STARTFONT 2.1
COMMENT
COMMENT Converted from OpenType font "UbuntuMono-Italic.ttf" by "otf2bdf 3.0".
COMMENT
FONT -FreeType-Ubuntu Mono-Medium-I-Normal--28-200-100-100-P-131-ISO10646-1
SIZE 20 100 100
FONTBOUNDINGBOX 25 28 -6 -5
STARTPROPERTIES 19
FOUNDRY "FreeType"
FAMILY_NAME "Ubuntu Mono"
WEIGHT_NAME "Medium"
SLANT "I"
SETWIDTH_NAME "Normal"
ADD_STYLE_NAME ""
PIXEL_SIZE 28
POINT_SIZE 200
RESOLUTION_X 100
RESOLUTION_Y 100
SPACING "P"
AVERAGE_WIDTH 131
CHARSET_REGISTRY "ISO10646"
CHARSET_ENCODING "1"
FONT_ASCENT 23
FONT_DESCENT 4
COPYRIGHT "Copyright 2011 Canonical Ltd.  Licensed under the Ubuntu Font Licence 1.0"
_OTF_FONTFILE "UbuntuMono-Italic.ttf"
_OTF_PSNAME "UbuntuMono-Italic"
ENDPROPERTIES
CHARS 1224
STARTCHAR 0000
ENCODING 0
SWIDTH 468 0
DWIDTH 13 0
BBX 0 0 0 0
BITMAP
ENDCHAR
STARTCHAR 0008
ENCODING 8
SWIDTH 468 0
DWIDTH 13 0
BBX 0 0 0 0
BITMAP
ENDCHAR
STARTCHAR 0009
ENCODING 9
SWIDTH 468 0
DWIDTH 13 0
BBX 0 0 0 0
BITMAP
ENDCHAR
STARTCHAR 000D
ENCODING 13
SWIDTH 468 0
DWIDTH 13 0
BBX 0 0 0 0
BITMAP
ENDCHAR
STARTCHAR 001D
ENCODING 29
SWIDTH 468 0
DWIDTH 13 0
BBX 0 0 0 0
BITMAP
ENDCHAR
STARTCHAR 0020
ENCODING 32
SWIDTH 468 0
DWIDTH 13 0
BBX 0 0 0 0
BITMAP
ENDCHAR
STARTCHAR 0021
ENCODING 33
SWIDTH 468 0
DWIDTH 13 0
BBX 6 17 5 0
BITMAP
0C
0C
1C
1C
18
18
38
38
30
30
30
00
00
00
E0
E0
E0
ENDCHAR
STARTCHAR 0022
ENCODING 34
SWIDTH 468 0
DWIDTH 13 0
BBX 8 7 6 12
BITMAP
63
63
66
66
C6
C6
C4
ENDCHAR
STARTCHAR 0023
ENCODING 35
SWIDTH 468 0
DWIDTH 13 0
BBX 15 17 1 0
BITMAP
018C
018C
030C
0318
3FFE
3FFC
0630
0C60
0C60
18E0
18C0
7FF8
3180
3180
6300
6300
C700
ENDCHAR
STARTCHAR 0024
ENCODING 36
SWIDTH 468 0
DWIDTH 13 0
BBX 13 22 2 -3
BITMAP
00C0
00C0
00C0
07F8
0F70
1C00
1800
1800
1C00
0E00
0780
01C0
00E0
0060
0060
00E0
F7C0
FF80
0C00
0C00
1800
1800
ENDCHAR
STARTCHAR 0025
ENCODING 37
SWIDTH 468 0
DWIDTH 13 0
BBX 15 18 1 0
BITMAP
0400
1F06
130C
331C
3318
2330
3260
36C0
1D80
0300
0378
06D8
0D98
1998
3198
6198
C1B0
C1E0
ENDCHAR
STARTCHAR 0026
ENCODING 38
SWIDTH 468 0
DWIDTH 13 0
BBX 11 18 2 0
BITMAP
0100
07C0
0CE0
1860
1860
18C0
19C0
1B80
0E00
3E60
7660
E760
C3C0
C1C0
C180
C3C0
FFC0
7CE0
ENDCHAR
STARTCHAR 0027
ENCODING 39
SWIDTH 468 0
DWIDTH 13 0
BBX 4 8 8 11
BITMAP
30
70
60
60
60
40
C0
C0
ENDCHAR
STARTCHAR 0028
ENCODING 40
SWIDTH 468 0
DWIDTH 13 0
BBX 10 23 4 -5
BITMAP
00C0
01C0
0380
0700
0E00
1C00
3800
3000
7000
6000
6000
E000
C000
C000
C000
C000
C000
E000
6000
6000
7000
3800
1800
ENDCHAR
STARTCHAR 0029
ENCODING 41
SWIDTH 468 0
DWIDTH 13 0
BBX 10 24 2 -5
BITMAP
0600
0700
0300
0180
0180
01C0
00C0
00C0
00C0
00C0
00C0
01C0
0180
0180
0380
0300
0700
0E00
0C00
1C00
7800
F000
C000
8000
ENDCHAR
STARTCHAR 002A
ENCODING 42
SWIDTH 468 0
DWIDTH 13 0
BBX 10 10 4 7
BITMAP
0C00
0C00
8C40
EDC0
FFC0
0C00
1E00
3B00
7380
2100
ENDCHAR
STARTCHAR 002B
ENCODING 43
SWIDTH 468 0
DWIDTH 13 0
BBX 12 12 2 1
BITMAP
0380
0300
0300
0300
0700
7FF0
FFF0
0600
0E00
0C00
0C00
0C00
ENDCHAR
STARTCHAR 002C
ENCODING 44
SWIDTH 468 0
DWIDTH 13 0
BBX 6 8 3 -4
BITMAP
18
3C
3C
3C
18
38
F0
C0
ENDCHAR
STARTCHAR 002D
ENCODING 45
SWIDTH 468 0
DWIDTH 13 0
BBX 6 2 5 6
BITMAP
FC
FC
ENDCHAR
STARTCHAR 002E
ENCODING 46
SWIDTH 468 0
DWIDTH 13 0
BBX 4 4 5 0
BITMAP
60
F0
F0
E0
ENDCHAR
STARTCHAR 002F
ENCODING 47
SWIDTH 468 0
DWIDTH 13 0
BBX 15 24 0 -5
BITMAP
0006
000C
001C
0018
0038
0030
0060
0060
00C0
01C0
0180
0380
0300
0700
0600
0C00
0C00
1800
3800
3000
7000
6000
C000
C000
ENDCHAR
STARTCHAR 0030
ENCODING 48
SWIDTH 468 0
DWIDTH 13 0
BBX 13 18 2 0
BITMAP
0080
07E0
0FF0
1C30
1838
3838
3038
7330
6730
6730
6670
E070
E060
E0E0
E0C0
61C0
7F80
3E00
ENDCHAR
STARTCHAR 0031
ENCODING 49
SWIDTH 468 0
DWIDTH 13 0
BBX 10 17 3 0
BITMAP
01C0
0380
0F80
3D80
3380
0300
0300
0300
0700
0600
0600
0600
0E00
0C00
0C00
FF80
FF80
ENDCHAR
STARTCHAR 0032
ENCODING 50
SWIDTH 468 0
DWIDTH 13 0
BBX 13 18 2 0
BITMAP
0180
0FE0
1EF0
0830
0038
0030
0030
0070
00E0
01C0
0780
0E00
1C00
3800
7000
6000
FFC0
FFC0
ENDCHAR
STARTCHAR 0033
ENCODING 51
SWIDTH 468 0
DWIDTH 13 0
BBX 12 18 2 0
BITMAP
0100
0FE0
0EF0
0030
0030
0030
0070
00E0
07C0
0FC0
00E0
0060
0060
0060
00E0
81C0
FFC0
FF00
ENDCHAR
STARTCHAR 0034
ENCODING 52
SWIDTH 468 0
DWIDTH 13 0
BBX 13 17 1 0
BITMAP
0038
0078
00F8
01B0
0330
0630
0C70
1C60
3860
3060
60E0
7FF0
FFF0
00C0
01C0
0180
0180
ENDCHAR
STARTCHAR 0035
ENCODING 53
SWIDTH 468 0
DWIDTH 13 0
BBX 13 17 2 0
BITMAP
07F8
07F8
0E00
0C00
0C00
1C00
1C00
1F80
07C0
00E0
0060
0060
0060
00E0
81C0
FF80
FF00
ENDCHAR
STARTCHAR 0036
ENCODING 54
SWIDTH 468 0
DWIDTH 13 0
BBX 12 17 3 0
BITMAP
01F0
07F0
0F00
1C00
3800
7000
6200
7FC0
F1C0
C0E0
C0E0
C0E0
C0E0
C0C0
C1C0
FF80
7F00
ENDCHAR
STARTCHAR 0037
ENCODING 55
SWIDTH 468 0
DWIDTH 13 0
BBX 12 17 4 0
BITMAP
7FF0
7FF0
0060
00C0
0180
0380
0700
0600
0C00
1C00
1800
3800
3000
7000
6000
E000
C000
ENDCHAR
STARTCHAR 0038
ENCODING 56
SWIDTH 468 0
DWIDTH 13 0
BBX 13 18 2 0
BITMAP
0080
07F0
0E78
1C38
1818
1838
1830
1C70
0EE0
1FC0
39E0
70E0
6060
E060
C060
E0E0
7FC0
3F80
ENDCHAR
STARTCHAR 0039
ENCODING 57
SWIDTH 468 0
DWIDTH 13 0
BBX 13 18 2 0
BITMAP
0080
07E0
1E70
1838
3838
3018
3038
3038
3038
3FF0
1FF0
0070
00E0
00C0
03C0
0F00
FE00
F800
ENDCHAR
STARTCHAR 003A
ENCODING 58
SWIDTH 468 0
DWIDTH 13 0
BBX 6 13 5 0
BITMAP
18
3C
3C
3C
00
00
00
00
00
60
F0
F0
E0
ENDCHAR
STARTCHAR 003B
ENCODING 59
SWIDTH 468 0
DWIDTH 13 0
BBX 8 17 3 -4
BITMAP
06
0F
0F
0F
00
00
00
00
00
18
3C
3C
3C
18
38
F0
C0
ENDCHAR
STARTCHAR 003C
ENCODING 60
SWIDTH 468 0
DWIDTH 13 0
BBX 12 10 2 3
BITMAP
0070
01F0
0FC0
3E00
F000
F000
7C00
1F00
03C0
00C0
ENDCHAR
STARTCHAR 003D
ENCODING 61
SWIDTH 468 0
DWIDTH 13 0
BBX 13 7 2 4
BITMAP
7FF8
7FF0
0000
0000
0000
FFE0
FFE0
ENDCHAR
STARTCHAR 003E
ENCODING 62
SWIDTH 468 0
DWIDTH 13 0
BBX 12 11 2 2
BITMAP
2000
3800
3E00
0F80
03E0
00F0
01F0
07C0
3E00
F800
C000
ENDCHAR
STARTCHAR 003F
ENCODING 63
SWIDTH 468 0
DWIDTH 13 0
BBX 9 18 5 0
BITMAP
0400
7F80
2380
0180
0180
0180
0300
0600
0C00
3800
3000
6000
0000
0000
0000
E000
E000
E000
ENDCHAR
STARTCHAR 0040
ENCODING 64
SWIDTH 468 0
DWIDTH 13 0
BBX 14 22 2 -4
BITMAP
00C0
03F0
0F38
1C18
181C
3018
70F8
63F8
6718
E638
CE30
CC30
CC30
CC70
CE60
C7E0
C3C0
E000
6000
7800
3F00
0E00
ENDCHAR
STARTCHAR 0041
ENCODING 65
SWIDTH 468 0
DWIDTH 13 0
BBX 13 17 0 0
BITMAP
0070
00F0
01F0
01B0
0330
0330
0638
0638
0C38
1C18
1818
3FF8
3FF8
7018
6018
E018
C018
ENDCHAR
STARTCHAR 0042
ENCODING 66
SWIDTH 468 0
DWIDTH 13 0
BBX 14 17 1 0
BITMAP
0FF0
0FF8
0C18
1C1C
1818
1818
1830
3FE0
3FE0
3070
3030
7038
7030
6030
60F0
7FE0
FF80
ENDCHAR
STARTCHAR 0043
ENCODING 67
SWIDTH 468 0
DWIDTH 13 0
BBX 14 18 2 0
BITMAP
0040
03FC
0FB8
1C00
1800
3800
3000
7000
6000
6000
6000
E000
E000
6000
6000
7000
3FC0
1FC0
ENDCHAR
STARTCHAR 0044
ENCODING 68
SWIDTH 468 0
DWIDTH 13 0
BBX 14 17 1 0
BITMAP
0FE0
0FF0
1C38
1818
1818
181C
381C
3018
3018
3018
7038
7030
6070
60E0
61C0
FF80
FE00
ENDCHAR
STARTCHAR 0045
ENCODING 69
SWIDTH 468 0
DWIDTH 13 0
BBX 14 17 2 0
BITMAP
0FFC
0FF8
1C00
1C00
1800
1800
1800
3FE0
3FE0
3000
3000
7000
6000
6000
6000
FFE0
FFC0
ENDCHAR
STARTCHAR 0046
ENCODING 70
SWIDTH 468 0
DWIDTH 13 0
BBX 14 17 2 0
BITMAP
0FFC
0FF8
1C00
1C00
1800
1800
1800
3FE0
3FE0
3000
3000
7000
6000
6000
6000
E000
C000
ENDCHAR
STARTCHAR 0047
ENCODING 71
SWIDTH 468 0
DWIDTH 13 0
BBX 13 18 2 0
BITMAP
00C0
03F8
0FB8
1C00
3800
3000
7000
6000
6000
E000
E070
E060
E060
E060
E0E0
70C0
7FC0
3FC0
ENDCHAR
STARTCHAR 0048
ENCODING 72
SWIDTH 468 0
DWIDTH 13 0
BBX 15 17 1 0
BITMAP
0C06
0C0E
1C0C
1C0C
180C
181C
3818
3FF8
3FF8
3038
3030
7030
6030
6070
6070
E060
C060
ENDCHAR
STARTCHAR 0049
ENCODING 73
SWIDTH 468 0
DWIDTH 13 0
BBX 13 17 2 0
BITMAP
0FF8
0FF8
0180
0180
0380
0300
0300
0300
0700
0600
0600
0600
0E00
0C00
0C00
FF80
FF80
ENDCHAR
STARTCHAR 004A
ENCODING 74
SWIDTH 468 0
DWIDTH 13 0
BBX 13 17 2 0
BITMAP
07F8
07F8
0038
0038
0030
0030
0070
0070
0060
0060
0060
00E0
00C0
00C0
41C0
FF80
7F00
ENDCHAR
STARTCHAR 004B
ENCODING 75
SWIDTH 468 0
DWIDTH 13 0
BBX 15 17 1 0
BITMAP
0C0E
0C1C
0C38
1C70
1CE0
19C0
1B80
1E00
3E00
3700
3380
3180
71C0
60C0
60E0
6060
E070
ENDCHAR
STARTCHAR 004C
ENCODING 76
SWIDTH 468 0
DWIDTH 13 0
BBX 10 17 2 0
BITMAP
1C00
1C00
1800
1800
3800
3800
3000
3000
3000
7000
6000
6000
6000
E000
C000
FFC0
FF80
ENDCHAR
STARTCHAR 004D
ENCODING 77
SWIDTH 468 0
DWIDTH 13 0
BBX 14 17 1 0
BITMAP
060C
0E1C
0E1C
0A3C
1A2C
1A6C
124C
33D8
3398
3398
6018
6018
6030
E030
C030
C030
C070
ENDCHAR
STARTCHAR 004E
ENCODING 78
SWIDTH 468 0
DWIDTH 13 0
BBX 15 17 1 0
BITMAP
0E06
0E06
0E0C
1B0C
1B0C
1B0C
1B18
3198
3198
3198
31B8
70B0
60F0
60F0
60F0
E0E0
C060
ENDCHAR
STARTCHAR 004F
ENCODING 79
SWIDTH 468 0
DWIDTH 13 0
BBX 13 18 2 0
BITMAP
0080
07F0
0F70
1C38
3818
3018
7018
6018
6038
6038
E030
E030
E070
E060
E0E0
61C0
7F80
3F00
ENDCHAR
STARTCHAR 0050
ENCODING 80
SWIDTH 468 0
DWIDTH 13 0
BBX 13 17 2 0
BITMAP
1FE0
1FF0
1838
1818
3818
3838
3038
3070
31E0
7FC0
7C00
6000
6000
E000
C000
C000
C000
ENDCHAR
STARTCHAR 0051
ENCODING 81
SWIDTH 468 0
DWIDTH 13 0
BBX 13 23 2 -5
BITMAP
0080
07F0
0F70
1C38
3818
3018
7018
6018
6038
6038
E030
E030
E070
E060
E0E0
61C0
7F80
3F00
1C00
1C00
0F00
0780
0080
ENDCHAR
STARTCHAR 0052
ENCODING 82
SWIDTH 468 0
DWIDTH 13 0
BBX 14 17 1 0
BITMAP
0FF0
0FF8
0C1C
1C1C
1C1C
1818
1818
3838
3FF0
3FC0
3180
30C0
70C0
60E0
6060
6060
E060
ENDCHAR
STARTCHAR 0053
ENCODING 83
SWIDTH 468 0
DWIDTH 13 0
BBX 13 18 2 0
BITMAP
00C0
07F8
0F78
1C00
1800
1800
1800
1C00
0F00
0780
01C0
00E0
0060
0060
00E0
80C0
FFC0
FF00
ENDCHAR
STARTCHAR 0054
ENCODING 84
SWIDTH 468 0
DWIDTH 13 0
BBX 12 17 4 0
BITMAP
7FF0
FFF0
0600
0E00
0E00
0C00
0C00
0C00
1C00
1800
1800
1800
3800
3000
3000
3000
7000
ENDCHAR
STARTCHAR 0055
ENCODING 85
SWIDTH 468 0
DWIDTH 13 0
BBX 14 17 2 0
BITMAP
180C
181C
3818
3818
3018
3038
7030
7030
6030
6070
6060
E060
E060
E0E0
61C0
7F80
3F00
ENDCHAR
STARTCHAR 0056
ENCODING 86
SWIDTH 468 0
DWIDTH 13 0
BBX 13 17 4 0
BITMAP
C038
C030
C070
C060
C0E0
C0C0
C1C0
C180
C380
C300
C600
E600
EC00
6C00
7800
7800
7000
ENDCHAR
STARTCHAR 0057
ENCODING 87
SWIDTH 468 0
DWIDTH 13 0
BBX 14 17 2 0
BITMAP
380C
300C
300C
301C
3018
6018
6318
6730
6530
6D30
4930
D960
F160
F140
E1C0
E1C0
C180
ENDCHAR
STARTCHAR 0058
ENCODING 88
SWIDTH 468 0
DWIDTH 13 0
BBX 15 17 1 0
BITMAP
0E06
060E
061C
0718
0330
0360
03E0
01C0
03C0
07C0
06C0
0CE0
1C60
3860
7070
E070
C030
ENDCHAR
STARTCHAR 0059
ENCODING 89
SWIDTH 468 0
DWIDTH 13 0
BBX 13 17 4 0
BITMAP
C038
E030
6070
60E0
60C0
6180
3380
3700
3600
1C00
1800
1800
1800
3800
3000
3000
3000
ENDCHAR
STARTCHAR 005A
ENCODING 90
SWIDTH 468 0
DWIDTH 13 0
BBX 15 17 1 0
BITMAP
0FFE
0FFE
001C
0038
0070
00E0
01C0
0180
0300
0600
0E00
1C00
3800
3000
6000
FFE0
FFE0
ENDCHAR
STARTCHAR 005B
ENCODING 91
SWIDTH 468 0
DWIDTH 13 0
BBX 12 24 3 -5
BITMAP
07F0
0600
0600
0600
0E00
0C00
0C00
0C00
1C00
1800
1800
1800
3800
3000
3000
3000
7000
6000
6000
6000
E000
C000
FE00
FC00
ENDCHAR
STARTCHAR 005C
ENCODING 92
SWIDTH 468 0
DWIDTH 13 0
BBX 4 24 6 -5
BITMAP
C0
E0
E0
E0
E0
60
60
60
60
60
60
60
60
70
70
70
70
70
30
30
30
30
30
30
ENDCHAR
STARTCHAR 005D
ENCODING 93
SWIDTH 468 0
DWIDTH 13 0
BBX 12 24 1 -5
BITMAP
07F0
0030
0060
0060
0060
0060
00C0
00C0
00C0
00C0
01C0
0180
0180
0180
0380
0300
0300
0300
0700
0600
0600
0600
FE00
FC00
ENDCHAR
STARTCHAR 005E
ENCODING 94
SWIDTH 468 0
DWIDTH 13 0
BBX 11 9 3 8
BITMAP
0380
0780
0F80
0CC0
18C0
38C0
7060
E060
4060
ENDCHAR
STARTCHAR 005F
ENCODING 95
SWIDTH 468 0
DWIDTH 13 0
BBX 13 2 -1 -5
BITMAP
FFF8
FFF8
ENDCHAR
STARTCHAR 0060
ENCODING 96
SWIDTH 468 0
DWIDTH 13 0
BBX 4 5 8 14
BITMAP
80
C0
60
70
20
ENDCHAR
STARTCHAR 0061
ENCODING 97
SWIDTH 468 0
DWIDTH 13 0
BBX 12 13 2 0
BITMAP
07F0
1FF0
3C30
7070
6060
E060
E060
C0E0
C0C0
C0C0
E1C0
7FC0
7EC0
ENDCHAR
STARTCHAR 0062
ENCODING 98
SWIDTH 468 0
DWIDTH 13 0
BBX 12 19 2 0
BITMAP
0C00
0C00
0C00
1C00
1800
1800
1FC0
3FE0
3870
3030
3030
7030
6070
6070
6060
E0E0
C1C0
FF80
FE00
ENDCHAR
STARTCHAR 0063
ENCODING 99
SWIDTH 468 0
DWIDTH 13 0
BBX 12 13 2 0
BITMAP
07F0
1FF0
3800
7000
6000
E000
C000
C000
C000
C000
E000
7FC0
3FC0
ENDCHAR
STARTCHAR 0064
ENCODING 100
SWIDTH 468 0
DWIDTH 13 0
BBX 14 19 2 0
BITMAP
000C
001C
0018
0018
0018
0038
07F0
0FF0
1C30
3830
7070
6060
E060
E060
E0E0
E0C0
E0C0
7FC0
3EE0
ENDCHAR
STARTCHAR 0065
ENCODING 101
SWIDTH 468 0
DWIDTH 13 0
BBX 12 13 2 0
BITMAP
07E0
1FF0
3870
7030
6070
E0E0
FFC0
FF00
C000
C000
E000
7FC0
3FC0
ENDCHAR
STARTCHAR 0066
ENCODING 102
SWIDTH 468 0
DWIDTH 13 0
BBX 17 24 0 -5
BITMAP
001F80
007F00
006000
00E000
00C000
00C000
07FE00
07FE00
018000
018000
018000
038000
038000
030000
030000
030000
070000
070000
060000
060000
0E0000
5C0000
FC0000
600000
ENDCHAR
STARTCHAR 0067
ENCODING 103
SWIDTH 468 0
DWIDTH 13 0
BBX 14 18 1 -5
BITMAP
01FC
07F8
0E18
1C18
3838
3030
3030
7030
7030
7060
39E0
3FE0
0060
00C0
01C0
C380
FF00
3800
ENDCHAR
STARTCHAR 0068
ENCODING 104
SWIDTH 468 0
DWIDTH 13 0
BBX 12 19 1 0
BITMAP
0600
0E00
0C00
0C00
0C00
1C00
1FE0
1FF0
1870
1830
3830
3030
3030
3070
7060
6060
6060
60E0
E0C0
ENDCHAR
STARTCHAR 0069
ENCODING 105
SWIDTH 468 0
DWIDTH 13 0
BBX 8 19 4 0
BITMAP
04
0E
0E
0E
00
00
FC
FC
1C
18
18
18
38
30
30
30
30
3F
1F
ENDCHAR
STARTCHAR 006A
ENCODING 106
SWIDTH 468 0
DWIDTH 13 0
BBX 13 23 1 -4
BITMAP
0078
0078
0070
0000
0000
07F0
0FF0
0070
0060
0060
0060
00E0
00C0
00C0
00C0
01C0
01C0
0180
0180
0380
C700
FE00
3800
ENDCHAR
STARTCHAR 006B
ENCODING 107
SWIDTH 468 0
DWIDTH 13 0
BBX 13 19 2 0
BITMAP
0C00
0C00
0C00
1C00
1C00
1800
1838
1870
38E0
3380
3700
3E00
7E00
6600
6700
6380
E180
C1C0
C0C0
ENDCHAR
STARTCHAR 006C
ENCODING 108
SWIDTH 468 0
DWIDTH 13 0
BBX 7 19 5 0
BITMAP
FC
FC
0C
1C
18
18
18
38
30
30
30
70
60
60
60
60
60
7E
7E
ENDCHAR
STARTCHAR 006D
ENCODING 109
SWIDTH 468 0
DWIDTH 13 0
BBX 13 13 1 0
BITMAP
1F78
1FF8
3198
3198
3398
3318
7318
6330
6030
6030
E030
C060
C060
ENDCHAR
STARTCHAR 006E
ENCODING 110
SWIDTH 468 0
DWIDTH 13 0
BBX 12 13 2 0
BITMAP
1FC0
3FE0
3870
3070
3070
3070
7060
6060
6060
60E0
E0C0
C0C0
C0C0
ENDCHAR
STARTCHAR 006F
ENCODING 111
SWIDTH 468 0
DWIDTH 13 0
BBX 12 13 2 0
BITMAP
07C0
1FE0
3870
3030
7030
6030
E070
E070
E060
E0E0
E1C0
7F80
3F00
ENDCHAR
STARTCHAR 0070
ENCODING 112
SWIDTH 468 0
DWIDTH 13 0
BBX 13 18 1 -5
BITMAP
0FE0
1FF0
1838
1818
1818
3818
3038
3038
3030
7070
60E0
7FC0
7F00
E000
E000
C000
C000
C000
ENDCHAR
STARTCHAR 0071
ENCODING 113
SWIDTH 468 0
DWIDTH 13 0
BBX 13 18 2 -5
BITMAP
07F8
0FF0
1C30
3830
7070
6060
E060
E060
E0E0
E0C0
E0C0
7FC0
3FC0
0180
0180
0180
0380
0300
ENDCHAR
STARTCHAR 0072
ENCODING 114
SWIDTH 468 0
DWIDTH 13 0
BBX 11 13 3 0
BITMAP
1FE0
3FE0
3000
3000
3000
7000
6000
6000
6000
E000
C000
C000
C000
ENDCHAR
STARTCHAR 0073
ENCODING 115
SWIDTH 468 0
DWIDTH 13 0
BBX 11 13 3 0
BITMAP
0FE0
3FC0
3000
3000
3000
3C00
1F00
0780
0180
0180
0180
FF80
FE00
ENDCHAR
STARTCHAR 0074
ENCODING 116
SWIDTH 468 0
DWIDTH 13 0
BBX 10 17 4 0
BITMAP
0C00
0C00
1C00
1800
FFC0
FFC0
3800
3000
3000
3000
7000
7000
6000
6000
7000
7F00
3F00
ENDCHAR
STARTCHAR 0075
ENCODING 117
SWIDTH 468 0
DWIDTH 13 0
BBX 12 13 2 0
BITMAP
3030
3030
3070
7070
7060
6060
60E0
60E0
E0C0
E0C0
E1C0
7FC0
3EC0
ENDCHAR
STARTCHAR 0076
ENCODING 118
SWIDTH 468 0
DWIDTH 13 0
BBX 11 13 4 0
BITMAP
C0E0
C0C0
C0C0
C180
C180
C300
C300
E600
EE00
6C00
7800
7800
7000
ENDCHAR
STARTCHAR 0077
ENCODING 119
SWIDTH 468 0
DWIDTH 13 0
BBX 14 13 2 0
BITMAP
600C
601C
6018
6318
6738
6730
6F30
CF60
DB60
D160
F1C0
E1C0
C180
ENDCHAR
STARTCHAR 0078
ENCODING 120
SWIDTH 468 0
DWIDTH 13 0
BBX 14 13 1 0
BITMAP
1C1C
1C38
0C30
0660
06C0
0380
0380
0780
0FC0
1CC0
38E0
70E0
E060
ENDCHAR
STARTCHAR 0079
ENCODING 121
SWIDTH 468 0
DWIDTH 13 0
BBX 15 18 0 -5
BITMAP
0C0E
0C0C
0C0C
0C1C
0E18
0E18
0630
0630
0660
0760
07C0
03C0
0380
0300
0700
9E00
FC00
E000
ENDCHAR
STARTCHAR 007A
ENCODING 122
SWIDTH 468 0
DWIDTH 13 0
BBX 12 13 2 0
BITMAP
1FF0
1FF0
00E0
01C0
0380
0700
0E00
1C00
3800
7000
6000
FFC0
FF80
ENDCHAR
STARTCHAR 007B
ENCODING 123
SWIDTH 468 0
DWIDTH 13 0
BBX 13 24 3 -5
BITMAP
01F8
0380
0600
0600
0600
0E00
0C00
0C00
0C00
1800
3800
F000
7000
3000
3000
3000
3000
3000
7000
6000
6000
7000
7E00
1E00
ENDCHAR
STARTCHAR 007C
ENCODING 124
SWIDTH 468 0
DWIDTH 13 0
BBX 8 24 4 -5
BITMAP
03
03
07
06
06
06
0E
0C
0C
0C
1C
18
18
18
38
30
30
30
70
60
60
60
E0
C0
ENDCHAR
STARTCHAR 007D
ENCODING 125
SWIDTH 468 0
DWIDTH 13 0
BBX 13 24 0 -5
BITMAP
07E0
00F0
0030
0030
0070
0060
0060
0060
00E0
00E0
0060
0078
00F0
01C0
0180
0180
0180
0300
0300
0300
0700
0E00
FC00
E000
ENDCHAR
STARTCHAR 007E
ENCODING 126
SWIDTH 468 0
DWIDTH 13 0
BBX 12 4 2 5
BITMAP
3C30
7F70
C3E0
41C0
ENDCHAR
STARTCHAR 00A0
ENCODING 160
SWIDTH 468 0
DWIDTH 13 0
BBX 0 0 0 0
BITMAP
ENDCHAR
STARTCHAR 00A1
ENCODING 161
SWIDTH 468 0
DWIDTH 13 0
BBX 7 18 4 -5
BITMAP
0C
1E
1E
0C
00
00
18
18
30
30
30
70
70
60
60
60
E0
E0
ENDCHAR
STARTCHAR 00A2
ENCODING 162
SWIDTH 468 0
DWIDTH 13 0
BBX 11 20 3 -3
BITMAP
0180
0180
0180
03C0
1FE0
3C00
7000
6000
E000
C000
C000
C000
C000
E000
FF80
3F80
1800
1800
1800
3800
ENDCHAR
STARTCHAR 00A3
ENCODING 163
SWIDTH 468 0
DWIDTH 13 0
BBX 13 18 3 0
BITMAP
0040
03F8
07F0
0E00
0C00
1C00
1800
1800
3800
FF80
FF80
3000
7000
6000
6000
E000
FFC0
FF80
ENDCHAR
STARTCHAR 00A4
ENCODING 164
SWIDTH 468 0
DWIDTH 13 0
BBX 11 11 3 4
BITMAP
C060
FFE0
73C0
60C0
60C0
60C0
60C0
60C0
7FC0
FFE0
C060
ENDCHAR
STARTCHAR 00A5
ENCODING 165
SWIDTH 468 0
DWIDTH 13 0
BBX 15 17 2 0
BITMAP
380E
181C
1818
1830
1C70
0CE0
0CC0
0780
7FF0
7FF0
0600
0600
0600
FFE0
0C00
0C00
0C00
ENDCHAR
STARTCHAR 00A6
ENCODING 166
SWIDTH 468 0
DWIDTH 13 0
BBX 8 24 4 -5
BITMAP
03
03
07
06
06
06
0E
0C
0C
00
00
00
00
00
38
30
30
30
70
60
60
60
E0
C0
ENDCHAR
STARTCHAR 00A7
ENCODING 167
SWIDTH 468 0
DWIDTH 13 0
BBX 14 21 1 -3
BITMAP
0060
03FC
0798
0600
0600
0600
0780
0FE0
1870
1830
3030
3830
1C60
1FC0
0780
01C0
00C0
00C0
43C0
FF80
3C00
ENDCHAR
STARTCHAR 00A8
ENCODING 168
SWIDTH 468 0
DWIDTH 13 0
BBX 7 3 7 15
BITMAP
C6
EE
C4
ENDCHAR
STARTCHAR 00A9
ENCODING 169
SWIDTH 468 0
DWIDTH 13 0
BBX 12 13 2 0
BITMAP
1F80
39C0
6060
4720
CF30
D830
D830
D830
DF30
CF20
6060
30C0
1F80
ENDCHAR
STARTCHAR 00AA
ENCODING 170
SWIDTH 468 0
DWIDTH 13 0
BBX 8 10 5 8
BITMAP
06
1F
73
63
C3
C2
C6
C6
FE
72
ENDCHAR
STARTCHAR 00AB
ENCODING 171
SWIDTH 468 0
DWIDTH 13 0
BBX 10 10 3 2
BITMAP
0840
18C0
3180
7380
E700
C600
6300
6300
3180
2100
ENDCHAR
STARTCHAR 00AC
ENCODING 172
SWIDTH 468 0
DWIDTH 13 0
BBX 11 9 3 1
BITMAP
FFE0
FFE0
0060
0060
00C0
00C0
00C0
00C0
0180
ENDCHAR
STARTCHAR 00AD
ENCODING 173
SWIDTH 468 0
DWIDTH 13 0
BBX 6 2 5 6
BITMAP
FC
FC
ENDCHAR
STARTCHAR 00AE
ENCODING 174
SWIDTH 468 0
DWIDTH 13 0
BBX 12 13 2 0
BITMAP
1F80
39C0
6060
4E20
CB30
C9B0
CF30
CF30
C930
C9A0
6060
30C0
1F80
ENDCHAR
STARTCHAR 00AF
ENCODING 175
SWIDTH 468 0
DWIDTH 13 0
BBX 7 2 7 16
BITMAP
FE
FE
ENDCHAR
STARTCHAR 00B0
ENCODING 176
SWIDTH 468 0
DWIDTH 13 0
BBX 7 7 6 12
BITMAP
7C
6E
C6
C6
C6
7C
10
ENDCHAR
STARTCHAR 00B1
ENCODING 177
SWIDTH 468 0
DWIDTH 13 0
BBX 13 15 1 0
BITMAP
00C0
00C0
01C0
0180
0180
3FF8
3FF8
0300
0300
0300
0300
0600
0000
FFE0
FFE0
ENDCHAR
STARTCHAR 00B2
ENCODING 178
SWIDTH 468 0
DWIDTH 13 0
BBX 8 10 5 8
BITMAP
04
3E
23
03
06
0C
38
60
40
FE
ENDCHAR
STARTCHAR 00B3
ENCODING 179
SWIDTH 468 0
DWIDTH 13 0
BBX 8 10 5 8
BITMAP
0C
3F
03
03
1E
1E
02
02
06
FC
ENDCHAR
STARTCHAR 00B4
ENCODING 180
SWIDTH 468 0
DWIDTH 13 0
BBX 5 5 9 14
BITMAP
10
38
60
C0
80
ENDCHAR
STARTCHAR 00B5
ENCODING 181
SWIDTH 468 0
DWIDTH 13 0
BBX 14 18 0 -5
BITMAP
0C0C
0C0C
0C1C
1C18
1C18
1818
1838
3830
3830
3830
3870
3FF8
7F98
6000
6000
6000
E000
C000
ENDCHAR
STARTCHAR 00B6
ENCODING 182
SWIDTH 468 0
DWIDTH 13 0
BBX 13 22 3 -5
BITMAP
0FF8
3FF0
7F30
FF30
FE30
FE60
FE60
FE60
FC60
7CC0
0CC0
0CC0
18C0
1980
1980
1980
1980
3300
3300
3300
3300
6300
ENDCHAR
STARTCHAR 00B7
ENCODING 183
SWIDTH 468 0
DWIDTH 13 0
BBX 4 4 6 5
BITMAP
70
F0
F0
60
ENDCHAR
STARTCHAR 00B8
ENCODING 184
SWIDTH 468 0
DWIDTH 13 0
BBX 4 6 4 -5
BITMAP
10
30
70
30
F0
E0
ENDCHAR
STARTCHAR 00B9
ENCODING 185
SWIDTH 468 0
DWIDTH 13 0
BBX 7 9 5 8
BITMAP
0C
3C
2C
0C
08
18
18
18
FE
ENDCHAR
STARTCHAR 00BA
ENCODING 186
SWIDTH 468 0
DWIDTH 13 0
BBX 9 10 5 8
BITMAP
0600
3F00
7180
6180
C180
C180
C300
C300
7E00
3800
ENDCHAR
STARTCHAR 00BB
ENCODING 187
SWIDTH 468 0
DWIDTH 13 0
BBX 10 10 3 2
BITMAP
2100
3180
3180
18C0
18C0
39C0
3180
6300
C600
8400
ENDCHAR
STARTCHAR 00BC
ENCODING 188
SWIDTH 468 0
DWIDTH 13 0
BBX 15 17 1 0
BITMAP
0606
1E0C
1618
0430
0470
0C60
0CC0
0180
0380
0300
0618
0C70
18D0
39B0
33F8
63F0
C020
ENDCHAR
STARTCHAR 00BD
ENCODING 189
SWIDTH 468 0
DWIDTH 13 0
BBX 15 17 1 0
BITMAP
060E
1E0C
1618
0430
0460
0CE0
0CC0
0180
0300
0700
06F0
0C98
1818
3030
70E0
6180
C1F0
ENDCHAR
STARTCHAR 00BE
ENCODING 190
SWIDTH 468 0
DWIDTH 13 0
BBX 15 18 1 0
BITMAP
0C00
1E06
020C
1E18
1E30
0670
3E60
38C0
0180
0380
0300
0618
0C70
18D0
39B0
33F8
63F0
C020
ENDCHAR
STARTCHAR 00BF
ENCODING 191
SWIDTH 468 0
DWIDTH 13 0
BBX 10 18 2 -5
BITMAP
01C0
03C0
03C0
0180
0000
0000
0300
0300
0600
0C00
3800
7000
6000
C000
E000
E100
7F00
3C00
ENDCHAR
STARTCHAR 00C0
ENCODING 192
SWIDTH 468 0
DWIDTH 13 0
BBX 13 23 0 0
BITMAP
0040
00E0
0070
0038
0010
0000
0070
00F0
01F0
01B0
0330
0330
0638
0638
0C38
1C18
1818
3FF8
3FF8
7018
6018
E018
C018
ENDCHAR
STARTCHAR 00C1
ENCODING 193
SWIDTH 468 0
DWIDTH 13 0
BBX 14 23 0 0
BITMAP
0004
000C
001C
0030
0020
0000
0070
00F0
01F0
01B0
0330
0330
0638
0638
0C38
1C18
1818
3FF8
3FF8
7018
6018
E018
C018
ENDCHAR
STARTCHAR 00C2
ENCODING 194
SWIDTH 468 0
DWIDTH 13 0
BBX 14 23 0 0
BITMAP
0010
0038
0078
00CC
0084
0000
0070
00F0
01F0
01B0
0330
0330
0638
0638
0C38
1C18
1818
3FF8
3FF8
7018
6018
E018
C018
ENDCHAR
STARTCHAR 00C3
ENCODING 195
SWIDTH 468 0
DWIDTH 13 0
BBX 15 22 0 0
BITMAP
00E2
01FE
0118
0000
0000
0070
00F0
01F0
01B0
0330
0330
0638
0638
0C38
1C18
1818
3FF8
3FF8
7018
6018
E018
C018
ENDCHAR
STARTCHAR 00C4
ENCODING 196
SWIDTH 468 0
DWIDTH 13 0
BBX 15 22 0 0
BITMAP
00C6
00CE
00C6
0000
0000
0070
00F0
01F0
01B0
0330
0330
0638
0638
0C38
1C18
1818
3FF8
3FF8
7018
6018
E018
C018
ENDCHAR
STARTCHAR 00C5
ENCODING 197
SWIDTH 468 0
DWIDTH 13 0
BBX 13 21 0 0
BITMAP
0070
00D8
0088
00C8
0070
00F0
01F0
01B0
0330
0330
0630
0638
0C38
1C18
1818
3FF8
3FF8
7018
6018
E018
C018
ENDCHAR
STARTCHAR 00C6
ENCODING 198
SWIDTH 468 0
DWIDTH 13 0
BBX 17 17 0 0
BITMAP
007F80
005F00
00F800
01B000
01B000
033000
037000
067C00
067C00
0C6000
1CE000
1FC000
3FC000
30C000
71C000
61F800
E1F800
ENDCHAR
STARTCHAR 00C7
ENCODING 199
SWIDTH 468 0
DWIDTH 13 0
BBX 14 23 2 -5
BITMAP
0040
03FC
0FB8
1C00
1800
3800
3000
7000
6000
6000
6000
E000
E000
6000
6000
7000
3FC0
1FC0
0C00
0C00
0600
3E00
3800
ENDCHAR
STARTCHAR 00C8
ENCODING 200
SWIDTH 468 0
DWIDTH 13 0
BBX 14 23 2 0
BITMAP
0080
01C0
00E0
0070
0020
0000
0FFC
0FF8
1C00
1C00
1800
1800
1800
3FE0
3FE0
3000
3000
7000
6000
6000
6000
FFE0
FFC0
ENDCHAR
STARTCHAR 00C9
ENCODING 201
SWIDTH 468 0
DWIDTH 13 0
BBX 14 23 2 0
BITMAP
0010
0030
0070
00C0
0080
0000
0FFC
0FF8
1C00
1C00
1800
1800
1800
3FE0
3FE0
3000
3000
7000
6000
6000
6000
FFE0
FFC0
ENDCHAR
STARTCHAR 00CA
ENCODING 202
SWIDTH 468 0
DWIDTH 13 0
BBX 14 23 2 0
BITMAP
0020
0060
01F0
0398
0000
0000
0FFC
0FF8
1C00
1C00
1800
1800
1800
3FE0
3FE0
3000
3000
7000
6000
6000
6000
FFE0
FFC0
ENDCHAR
STARTCHAR 00CB
ENCODING 203
SWIDTH 468 0
DWIDTH 13 0
BBX 14 22 2 0
BITMAP
0318
03B8
0318
0000
0000
0FFC
0FF8
1C00
1C00
1800
1800
1800
3FE0
3FE0
3000
3000
7000
6000
6000
6000
FFE0
FFC0
ENDCHAR
STARTCHAR 00CC
ENCODING 204
SWIDTH 468 0
DWIDTH 13 0
BBX 13 23 2 0
BITMAP
0100
0380
01C0
00E0
0040
0000
0FF8
0FF8
0180
0180
0380
0300
0300
0300
0700
0600
0600
0600
0E00
0C00
0C00
FF80
FF80
ENDCHAR
STARTCHAR 00CD
ENCODING 205
SWIDTH 468 0
DWIDTH 13 0
BBX 13 23 2 0
BITMAP
0020
0070
00E0
01C0
0080
0000
0FF8
0FF8
0180
0180
0380
0300
0300
0300
0700
0600
0600
0600
0E00
0C00
0C00
FF80
FF80
ENDCHAR
STARTCHAR 00CE
ENCODING 206
SWIDTH 468 0
DWIDTH 13 0
BBX 13 23 2 0
BITMAP
0040
00E0
01F0
0330
0210
0000
0FF8
0FF8
0180
0180
0380
0300
0300
0300
0700
0600
0600
0600
0E00
0C00
0C00
FF80
FF80
ENDCHAR
STARTCHAR 00CF
ENCODING 207
SWIDTH 468 0
DWIDTH 13 0
BBX 13 22 2 0
BITMAP
0318
03B8
0318
0000
0000
0FF8
0FF8
0180
0180
0380
0300
0300
0300
0700
0600
0600
0600
0E00
0C00
0C00
FF80
FF80
ENDCHAR
STARTCHAR 00D0
ENCODING 208
SWIDTH 468 0
DWIDTH 13 0
BBX 12 17 2 0
BITMAP
0FC0
0FE0
1C70
1830
1830
1830
3830
FE30
FC30
3030
7070
6060
60E0
60C0
E3C0
FF00
FE00
ENDCHAR
STARTCHAR 00D1
ENCODING 209
SWIDTH 468 0
DWIDTH 13 0
BBX 15 22 1 0
BITMAP
01C4
03FC
0238
0000
0000
0E06
0E06
0E0C
1B0C
1B0C
1B0C
1B18
3198
3198
3198
31B8
70B0
60F0
60F0
60F0
E0E0
C060
ENDCHAR
STARTCHAR 00D2
ENCODING 210
SWIDTH 468 0
DWIDTH 13 0
BBX 13 23 2 0
BITMAP
0180
0180
00C0
00E0
0060
0080
07F0
0F70
1C38
3818
3018
7018
6018
6038
6038
E030
E030
E070
E060
E0E0
61C0
7F80
3F00
ENDCHAR
STARTCHAR 00D3
ENCODING 211
SWIDTH 468 0
DWIDTH 13 0
BBX 13 23 2 0
BITMAP
0010
0030
0070
00C0
0080
0080
07F0
0F70
1C38
3818
3018
7018
6018
6038
6038
E030
E030
E070
E060
E0E0
61C0
7F80
3F00
ENDCHAR
STARTCHAR 00D4
ENCODING 212
SWIDTH 468 0
DWIDTH 13 0
BBX 13 23 2 0
BITMAP
0040
00E0
01F0
0330
0010
0080
07F0
0F70
1C38
3818
3018
7018
6018
6038
6038
E030
E030
E070
E060
E0E0
61C0
7F80
3F00
ENDCHAR
STARTCHAR 00D5
ENCODING 213
SWIDTH 468 0
DWIDTH 13 0
BBX 13 22 2 0
BITMAP
0388
07F8
0670
0000
0080
07F0
0F70
1C38
3818
3018
7018
6018
6038
6038
E030
E030
E070
E060
E0E0
61C0
7F80
3F00
ENDCHAR
STARTCHAR 00D6
ENCODING 214
SWIDTH 468 0
DWIDTH 13 0
BBX 13 22 2 0
BITMAP
0318
0398
0318
0000
0080
07F0
0F70
1C38
3818
3018
7018
6018
6038
6038
E030
E030
E070
E060
E0E0
61C0
7F80
3F00
ENDCHAR
STARTCHAR 00D7
ENCODING 215
SWIDTH 468 0
DWIDTH 13 0
BBX 11 10 3 2
BITMAP
2060
30E0
3B80
1F00
0E00
1E00
3F00
E380
C180
8000
ENDCHAR
STARTCHAR 00D8
ENCODING 216
SWIDTH 468 0
DWIDTH 13 0
BBX 14 19 1 -1
BITMAP
0044
03FC
0738
0C18
1C3C
186C
38EC
30DC
319C
7318
6718
6618
6C30
7830
7860
70E0
7FC0
FF80
4000
ENDCHAR
STARTCHAR 00D9
ENCODING 217
SWIDTH 468 0
DWIDTH 13 0
BBX 14 23 2 0
BITMAP
0100
0300
0180
00C0
0040
0000
180C
181C
3818
3818
3018
3038
7030
7030
6030
6070
6060
E060
E060
E0E0
61C0
7F80
3F00
ENDCHAR
STARTCHAR 00DA
ENCODING 218
SWIDTH 468 0
DWIDTH 13 0
BBX 14 23 2 0
BITMAP
0010
0030
0070
00C0
0080
0000
180C
181C
3818
3818
3018
3038
7030
7030
6030
6070
6060
E060
E060
E0E0
61C0
7F80
3F00
ENDCHAR
STARTCHAR 00DB
ENCODING 219
SWIDTH 468 0
DWIDTH 13 0
BBX 14 23 2 0
BITMAP
0040
00E0
01F0
0330
0210
0000
180C
181C
3818
3818
3018
3038
7030
7030
6030
6070
6060
E060
E060
E0E0
61C0
7F80
3F00
ENDCHAR
STARTCHAR 00DC
ENCODING 220
SWIDTH 468 0
DWIDTH 13 0
BBX 14 22 2 0
BITMAP
0318
03B8
0318
0000
0000
180C
181C
3818
3818
3018
3038
7030
7030
6030
6070
6060
E060
E060
E0E0
61C0
7F80
3F00
ENDCHAR
STARTCHAR 00DD
ENCODING 221
SWIDTH 468 0
DWIDTH 13 0
BBX 13 23 4 0
BITMAP
0040
00E0
01C0
0380
0200
0000
C038
E030
6070
60E0
60C0
6180
3380
3700
3600
1C00
1800
1800
1800
3800
3000
3000
3000
ENDCHAR
STARTCHAR 00DE
ENCODING 222
SWIDTH 468 0
DWIDTH 13 0
BBX 12 17 2 0
BITMAP
1C00
1800
1800
1FE0
3FF0
3870
3030
3030
3030
7070
60E0
7FC0
7F80
E000
C000
C000
C000
ENDCHAR
STARTCHAR 00DF
ENCODING 223
SWIDTH 468 0
DWIDTH 13 0
BBX 16 24 -2 -5
BITMAP
003E
007F
00E3
00C3
01C3
0187
018E
019C
03B8
0330
0330
033C
071E
0707
0607
0607
0607
0EFE
0EFC
0C00
1C00
B800
F800
C000
ENDCHAR
STARTCHAR 00E0
ENCODING 224
SWIDTH 468 0
DWIDTH 13 0
BBX 12 19 2 0
BITMAP
0100
0380
01C0
00C0
0040
0000
07F0
1FF0
3C30
7070
6060
E060
E060
C0E0
C0C0
C0C0
E1C0
7FC0
7EC0
ENDCHAR
STARTCHAR 00E1
ENCODING 225
SWIDTH 468 0
DWIDTH 13 0
BBX 12 19 2 0
BITMAP
0020
0070
00E0
01C0
0000
0000
07F0
1FF0
3C30
7070
6060
E060
E060
C0E0
C0C0
C0C0
E1C0
7FC0
7EC0
ENDCHAR
STARTCHAR 00E2
ENCODING 226
SWIDTH 468 0
DWIDTH 13 0
BBX 12 19 2 0
BITMAP
0040
01C0
03E0
0630
0000
0000
07F0
1FF0
3C30
7070
6060
E060
E060
C0E0
C0C0
C0C0
E1C0
7FC0
7EC0
ENDCHAR
STARTCHAR 00E3
ENCODING 227
SWIDTH 468 0
DWIDTH 13 0
BBX 13 18 2 0
BITMAP
0398
07F8
0420
0000
0000
07F0
1FF0
3C30
7070
6060
E060
E060
C0E0
C0C0
C0C0
E1C0
7FC0
7EC0
ENDCHAR
STARTCHAR 00E4
ENCODING 228
SWIDTH 468 0
DWIDTH 13 0
BBX 13 18 2 0
BITMAP
0338
0738
0210
0000
0000
07F0
1FF0
3C30
7070
6060
E060
E060
C0E0
C0C0
C0C0
E1C0
7FC0
7EC0
ENDCHAR
STARTCHAR 00E5
ENCODING 229
SWIDTH 468 0
DWIDTH 13 0
BBX 12 19 2 0
BITMAP
01E0
0120
0330
01E0
00C0
0000
07F0
1FF0
3C30
7070
6060
E060
E060
C0E0
C0C0
C0C0
E1C0
7FC0
7EC0
ENDCHAR
STARTCHAR 00E6
ENCODING 230
SWIDTH 468 0
DWIDTH 13 0
BBX 14 13 1 0
BITMAP
1E38
1F7C
03CC
038C
038C
0F18
3FF0
73E0
6300
E700
E780
FDF0
79F0
ENDCHAR
STARTCHAR 00E7
ENCODING 231
SWIDTH 468 0
DWIDTH 13 0
BBX 12 18 2 -5
BITMAP
07F0
1FF0
3800
7000
6000
E000
C000
C000
C000
C000
E000
7FC0
3FC0
0C00
1C00
0C00
3C00
3800
ENDCHAR
STARTCHAR 00E8
ENCODING 232
SWIDTH 468 0
DWIDTH 13 0
BBX 12 19 2 0
BITMAP
0100
0380
01C0
00C0
0040
0000
07E0
1FF0
3870
7030
6070
E0E0
FFC0
FF00
C000
C000
E000
7FC0
3FC0
ENDCHAR
STARTCHAR 00E9
ENCODING 233
SWIDTH 468 0
DWIDTH 13 0
BBX 12 19 2 0
BITMAP
0020
0070
00C0
0180
0100
0000
07E0
1FF0
3870
7030
6070
E0E0
FFC0
FF00
C000
C000
E000
7FC0
3FC0
ENDCHAR
STARTCHAR 00EA
ENCODING 234
SWIDTH 468 0
DWIDTH 13 0
BBX 12 19 2 0
BITMAP
0080
01C0
03E0
0630
0020
0000
07E0
1FF0
3870
7030
6070
E0E0
FFC0
FF00
C000
C000
E000
7FC0
3FC0
ENDCHAR
STARTCHAR 00EB
ENCODING 235
SWIDTH 468 0
DWIDTH 13 0
BBX 13 18 2 0
BITMAP
0338
0738
0210
0000
0000
07E0
1FF0
3870
7030
6070
E0E0
FFC0
FF00
C000
C000
E000
7FC0
3FC0
ENDCHAR
STARTCHAR 00EC
ENCODING 236
SWIDTH 468 0
DWIDTH 13 0
BBX 8 19 4 0
BITMAP
18
18
0C
06
00
00
FC
FC
1C
18
18
18
38
30
30
30
30
3F
1F
ENDCHAR
STARTCHAR 00ED
ENCODING 237
SWIDTH 468 0
DWIDTH 13 0
BBX 9 19 4 0
BITMAP
0100
0380
0700
0C00
0800
0000
FC00
FC00
1C00
1800
1800
1800
3800
3000
3000
3000
3000
3F00
1F00
ENDCHAR
STARTCHAR 00EE
ENCODING 238
SWIDTH 468 0
DWIDTH 13 0
BBX 8 19 4 0
BITMAP
04
0E
1F
33
00
00
FC
FC
1C
18
18
18
38
30
30
30
30
3F
1F
ENDCHAR
STARTCHAR 00EF
ENCODING 239
SWIDTH 468 0
DWIDTH 13 0
BBX 9 18 4 0
BITMAP
3180
3B80
3180
0000
0000
FC00
FC00
1C00
1800
1800
1800
3800
3000
3000
3000
3000
3F00
1F00
ENDCHAR
STARTCHAR 00F0
ENCODING 240
SWIDTH 468 0
DWIDTH 13 0
BBX 14 19 2 0
BITMAP
0180
01C4
00FC
03E0
0760
0070
0070
0FB0
1FF0
3870
7070
6070
E060
E060
E0E0
E0C0
61C0
7F80
3F00
ENDCHAR
STARTCHAR 00F1
ENCODING 241
SWIDTH 468 0
DWIDTH 13 0
BBX 12 18 2 0
BITMAP
0790
0FF0
0040
0000
0000
1FC0
3FE0
3870
3070
3070
3070
7060
6060
6060
60E0
E0C0
C0C0
C0C0
ENDCHAR
STARTCHAR 00F2
ENCODING 242
SWIDTH 468 0
DWIDTH 13 0
BBX 12 19 2 0
BITMAP
0300
0380
0180
00C0
0040
0000
07C0
1FE0
3870
3030
7030
6030
E070
E070
E060
E0E0
E1C0
7F80
3F00
ENDCHAR
STARTCHAR 00F3
ENCODING 243
SWIDTH 468 0
DWIDTH 13 0
BBX 12 19 2 0
BITMAP
0020
0070
00C0
0180
0100
0000
07C0
1FE0
3870
3030
7030
6030
E070
E070
E060
E0E0
E1C0
7F80
3F00
ENDCHAR
STARTCHAR 00F4
ENCODING 244
SWIDTH 468 0
DWIDTH 13 0
BBX 12 19 2 0
BITMAP
0080
01C0
03E0
0630
0020
0000
07C0
1FE0
3870
3030
7030
6030
E070
E070
E060
E0E0
E1C0
7F80
3F00
ENDCHAR
STARTCHAR 00F5
ENCODING 245
SWIDTH 468 0
DWIDTH 13 0
BBX 13 18 2 0
BITMAP
0798
0FF0
0440
0000
0000
07C0
1FE0
3870
3030
7030
6030
E070
E070
E060
E0E0
E1C0
7F80
3F00
ENDCHAR
STARTCHAR 00F6
ENCODING 246
SWIDTH 468 0
DWIDTH 13 0
BBX 12 18 2 0
BITMAP
0730
0730
0220
0000
0000
07C0
1FE0
3870
3030
7030
6030
E070
E070
E060
E0E0
E1C0
7F80
3F00
ENDCHAR
STARTCHAR 00F7
ENCODING 247
SWIDTH 468 0
DWIDTH 13 0
BBX 12 13 2 1
BITMAP
0100
0380
0780
0300
0000
0000
7FF0
FFF0
0000
0000
0E00
0E00
0C00
ENDCHAR
STARTCHAR 00F8
ENCODING 248
SWIDTH 468 0
DWIDTH 13 0
BBX 14 14 1 -1
BITMAP
0004
03EC
0FF8
1C38
1878
30D8
3198
7318
7638
6C30
7870
70E0
7FC0
DF80
ENDCHAR
STARTCHAR 00F9
ENCODING 249
SWIDTH 468 0
DWIDTH 13 0
BBX 12 19 2 0
BITMAP
0200
0700
0380
0180
0080
0000
3030
3030
3070
7070
7060
6060
60E0
60E0
E0C0
E0C0
E1C0
7FC0
3EC0
ENDCHAR
STARTCHAR 00FA
ENCODING 250
SWIDTH 468 0
DWIDTH 13 0
BBX 12 19 2 0
BITMAP
0040
00E0
01C0
0380
0000
0000
3030
3030
3070
7070
7060
6060
60E0
60E0
E0C0
E0C0
E1C0
7FC0
3EC0
ENDCHAR
STARTCHAR 00FB
ENCODING 251
SWIDTH 468 0
DWIDTH 13 0
BBX 12 19 2 0
BITMAP
0080
01C0
03C0
0660
0000
0000
3030
3030
3070
7070
7060
6060
60E0
60E0
E0C0
E0C0
E1C0
7FC0
3EC0
ENDCHAR
STARTCHAR 00FC
ENCODING 252
SWIDTH 468 0
DWIDTH 13 0
BBX 12 18 2 0
BITMAP
0670
0E70
0460
0000
0000
3030
3030
3070
7070
7060
6060
60E0
60E0
E0C0
E0C0
E1C0
7FC0
3EC0
ENDCHAR
STARTCHAR 00FD
ENCODING 253
SWIDTH 468 0
DWIDTH 13 0
BBX 15 24 0 -5
BITMAP
0010
0038
0070
00E0
0000
0000
0C0E
0C0C
0C0C
0C1C
0E18
0E18
0630
0630
0660
0760
07C0
03C0
0380
0300
0700
9E00
FC00
E000
ENDCHAR
STARTCHAR 00FE
ENCODING 254
SWIDTH 468 0
DWIDTH 13 0
BBX 13 24 1 -5
BITMAP
0600
0600
0600
0E00
0C00
0C00
0FE0
1FF0
1C38
1818
1818
3818
3038
3038
3030
7070
60E0
7FC0
7F00
E000
E000
C000
C000
C000
ENDCHAR
STARTCHAR 00FF
ENCODING 255
SWIDTH 468 0
DWIDTH 13 0
BBX 15 23 0 -5
BITMAP
039C
039C
0108
0000
0000
0C0E
0C0C
0C0C
0C1C
0E18
0E18
0630
0630
0660
0760
07C0
03C0
0380
0300
0700
9E00
FC00
E000
ENDCHAR
STARTCHAR 0100
ENCODING 256
SWIDTH 468 0
DWIDTH 13 0
BBX 15 22 0 0
BITMAP
00FE
00FE
0000
0000
0000
0070
00F0
01F0
01B0
0330
0330
0638
0638
0C38
1C18
1818
3FF8
3FF8
7018
6018
E018
C018
ENDCHAR
STARTCHAR 0101
ENCODING 257
SWIDTH 468 0
DWIDTH 13 0
BBX 13 18 2 0
BITMAP
03F8
03F8
0000
0000
0000
07F0
1FF0
3C30
7070
6060
E060
E060
C0E0
C0C0
C0C0
E1C0
7FC0
7EC0
ENDCHAR
STARTCHAR 0102
ENCODING 258
SWIDTH 468 0
DWIDTH 13 0
BBX 15 22 0 0
BITMAP
00C6
007C
0078
0000
0000
0070
00F0
01F0
01B0
0330
0330
0638
0638
0C38
1C18
1818
3FF8
3FF8
7018
6018
E018
C018
ENDCHAR
STARTCHAR 0103
ENCODING 259
SWIDTH 468 0
DWIDTH 13 0
BBX 13 19 2 0
BITMAP
0318
0318
01F0
00E0
0000
0000
07F0
1FF0
3C30
7070
6060
E060
E060
C0E0
C0C0
C0C0
E1C0
7FC0
7EC0
ENDCHAR
STARTCHAR 0104
ENCODING 260
SWIDTH 468 0
DWIDTH 13 0
BBX 13 22 0 -5
BITMAP
0070
00F0
01F0
01B0
0330
0330
0638
0638
0C38
1C18
1818
3FF8
3FF8
7018
6018
E018
C018
0030
0060
00E0
00F0
0070
ENDCHAR
STARTCHAR 0105
ENCODING 261
SWIDTH 468 0
DWIDTH 13 0
BBX 12 18 2 -5
BITMAP
07F0
1FF0
3C30
7070
6060
E060
E060
C0E0
C0C0
C0C0
E1C0
7FC0
7EC0
01C0
0300
0300
03C0
0180
ENDCHAR
STARTCHAR 0106
ENCODING 262
SWIDTH 468 0
DWIDTH 13 0
BBX 14 23 2 0
BITMAP
0010
0038
0070
00E0
0080
0040
03FC
0FB8
1C00
1800
3800
3000
7000
6000
6000
6000
E000
E000
6000
6000
7000
3FC0
1FC0
ENDCHAR
STARTCHAR 0107
ENCODING 263
SWIDTH 468 0
DWIDTH 13 0
BBX 12 19 2 0
BITMAP
0020
0070
00E0
01C0
0000
0000
07F0
1FF0
3800
7000
6000
E000
C000
C000
C000
C000
E000
7FC0
3FC0
ENDCHAR
STARTCHAR 0108
ENCODING 264
SWIDTH 468 0
DWIDTH 13 0
BBX 14 23 2 0
BITMAP
0020
0070
00F8
0198
0108
0040
03FC
0FB8
1C00
1800
3800
3000
7000
6000
6000
6000
E000
E000
6000
6000
7000
3FC0
1FC0
ENDCHAR
STARTCHAR 0109
ENCODING 265
SWIDTH 468 0
DWIDTH 13 0
BBX 12 19 2 0
BITMAP
0040
01C0
03E0
0630
0000
0000
07F0
1FF0
3800
7000
6000
E000
C000
C000
C000
C000
E000
7FC0
3FC0
ENDCHAR
STARTCHAR 010A
ENCODING 266
SWIDTH 468 0
DWIDTH 13 0
BBX 14 22 2 0
BITMAP
0060
00E0
0060
0000
0040
03FC
0FB8
1C00
1800
3800
3000
7000
6000
6000
6000
E000
E000
6000
6000
7000
3FC0
1FC0
ENDCHAR
STARTCHAR 010B
ENCODING 267
SWIDTH 468 0
DWIDTH 13 0
BBX 12 18 2 0
BITMAP
00E0
00E0
00C0
0000
0000
07F0
1FF0
3800
7000
6000
E000
C000
C000
C000
C000
E000
7FC0
3FC0
ENDCHAR
STARTCHAR 010C
ENCODING 268
SWIDTH 468 0
DWIDTH 13 0
BBX 14 23 2 0
BITMAP
0088
01D8
00F0
0060
0000
0040
03FC
0FB8
1C00
1800
3800
3000
7000
6000
6000
6000
E000
E000
6000
6000
7000
3FC0
1FC0
ENDCHAR
STARTCHAR 010D
ENCODING 269
SWIDTH 468 0
DWIDTH 13 0
BBX 12 19 2 0
BITMAP
0310
03B0
01E0
00C0
0000
0000
07F0
1FF0
3800
7000
6000
E000
C000
C000
C000
C000
E000
7FC0
3FC0
ENDCHAR
STARTCHAR 010E
ENCODING 270
SWIDTH 468 0
DWIDTH 13 0
BBX 14 23 1 0
BITMAP
0100
01B8
01E0
00C0
0000
0000
0FE0
0FF0
1C38
1818
1818
181C
381C
3018
3018
3018
7038
7030
6070
60E0
61C0
FF80
FE00
ENDCHAR
STARTCHAR 010F
ENCODING 271
SWIDTH 468 0
DWIDTH 13 0
BBX 17 19 1 0
BITMAP
001980
003B00
003300
003300
003200
007000
07E000
0FE000
1C6000
306000
70E000
60C000
60C000
E0C000
E1C000
E18000
E18000
7F8000
3DC000
ENDCHAR
STARTCHAR 0110
ENCODING 272
SWIDTH 468 0
DWIDTH 13 0
BBX 12 17 2 0
BITMAP
0FC0
0FE0
1C70
1830
1830
1830
3830
FE30
FC30
3030
7070
6060
60E0
60C0
E3C0
FF00
FE00
ENDCHAR
STARTCHAR 0111
ENCODING 273
SWIDTH 468 0
DWIDTH 13 0
BBX 15 19 2 0
BITMAP
0018
0018
03FE
03FE
0030
0030
07F0
0FF0
3C70
3060
7060
6060
E0E0
E0C0
E0C0
E0C0
E1C0
7FC0
3EC0
ENDCHAR
STARTCHAR 0112
ENCODING 274
SWIDTH 468 0
DWIDTH 13 0
BBX 14 22 2 0
BITMAP
03F8
03F8
0000
0000
0000
0FFC
0FF8
1C00
1C00
1800
1800
1800
3FE0
3FE0
3000
3000
7000
6000
6000
6000
FFE0
FFC0
ENDCHAR
STARTCHAR 0113
ENCODING 275
SWIDTH 468 0
DWIDTH 13 0
BBX 12 18 2 0
BITMAP
07F0
07F0
0000
0000
0000
07E0
1FF0
3870
7030
6070
E0E0
FFC0
FF00
C000
C000
E000
7FC0
3FC0
ENDCHAR
STARTCHAR 0114
ENCODING 276
SWIDTH 468 0
DWIDTH 13 0
BBX 14 22 2 0
BITMAP
0108
01F8
00F0
0000
0000
0FFC
0FF8
1C00
1C00
1800
1800
1800
3FE0
3FE0
3000
3000
7000
6000
6000
6000
FFE0
FFC0
ENDCHAR
STARTCHAR 0115
ENCODING 277
SWIDTH 468 0
DWIDTH 13 0
BBX 13 19 2 0
BITMAP
0218
0330
03F0
01C0
0000
0000
07E0
1FF0
3870
7030
6070
E0E0
FFC0
FF00
C000
C000
E000
7FC0
3FC0
ENDCHAR
STARTCHAR 0116
ENCODING 278
SWIDTH 468 0
DWIDTH 13 0
BBX 14 22 2 0
BITMAP
0060
00E0
00E0
0000
0000
0FFC
0FF8
1C00
1C00
1800
1800
1800
3FE0
3FE0
3000
3000
7000
6000
6000
6000
FFE0
FFC0
ENDCHAR
STARTCHAR 0117
ENCODING 279
SWIDTH 468 0
DWIDTH 13 0
BBX 12 18 2 0
BITMAP
01C0
01C0
0080
0000
0000
07E0
1FF0
3870
7030
6070
E0E0
FFC0
FF00
C000
C000
E000
7FC0
3FC0
ENDCHAR
STARTCHAR 0118
ENCODING 280
SWIDTH 468 0
DWIDTH 13 0
BBX 14 22 2 -5
BITMAP
0FFC
0FF8
1C00
1C00
1800
1800
1800
3FE0
3FE0
3000
3000
7000
6000
6000
6000
FFE0
FFC0
0180
0300
0700
0780
0180
ENDCHAR
STARTCHAR 0119
ENCODING 281
SWIDTH 468 0
DWIDTH 13 0
BBX 12 18 2 -5
BITMAP
07E0
1FF0
3870
7030
6070
E0E0
FFC0
FF00
C000
C000
E000
7FC0
3FC0
0380
0600
0600
0780
0300
ENDCHAR
STARTCHAR 011A
ENCODING 282
SWIDTH 468 0
DWIDTH 13 0
BBX 14 23 2 0
BITMAP
0108
0198
00F0
0060
0040
0000
0FFC
0FF8
1C00
1C00
1800
1800
1800
3FE0
3FE0
3000
3000
7000
6000
6000
6000
FFE0
FFC0
ENDCHAR
STARTCHAR 011B
ENCODING 283
SWIDTH 468 0
DWIDTH 13 0
BBX 12 19 2 0
BITMAP
0210
0370
01E0
0080
0000
0000
07E0
1FF0
3870
7030
6070
E0E0
FFC0
FF00
C000
C000
E000
7FC0
3FC0
ENDCHAR
STARTCHAR 011C
ENCODING 284
SWIDTH 468 0
DWIDTH 13 0
BBX 13 23 2 0
BITMAP
0020
0060
01F0
0398
0000
00C0
03F8
0FB8
1C00
3800
3000
7000
6000
6000
E000
E070
E060
E060
E060
E0E0
70C0
7FC0
3FC0
ENDCHAR
STARTCHAR 011D
ENCODING 285
SWIDTH 468 0
DWIDTH 13 0
BBX 14 24 1 -5
BITMAP
0020
0070
00F0
0198
0000
0000
01FC
07F8
0E18
1C18
3838
3030
3030
7030
7030
7060
39E0
3FE0
0060
00C0
01C0
C380
FF00
3800
ENDCHAR
STARTCHAR 011E
ENCODING 286
SWIDTH 468 0
DWIDTH 13 0
BBX 13 22 2 0
BITMAP
0108
01F8
00F0
0000
00C0
03F8
0FB8
1C00
3800
3000
7000
6000
6000
E000
E070
E060
E060
E060
E0E0
70C0
7FC0
3FC0
ENDCHAR
STARTCHAR 011F
ENCODING 287
SWIDTH 468 0
DWIDTH 13 0
BBX 14 24 1 -5
BITMAP
018C
018C
01F8
00F0
0000
0000
01FC
07F8
0E18
1C18
3838
3030
3030
7030
7030
7060
39E0
3FE0
0060
00C0
01C0
C380
FF00
3800
ENDCHAR
STARTCHAR 0120
ENCODING 288
SWIDTH 468 0
DWIDTH 13 0
BBX 13 22 2 0
BITMAP
0060
00E0
00E0
0000
00C0
03F8
0FB8
1C00
3800
3000
7000
6000
6000
E000
E070
E060
E060
E060
E0E0
70C0
7FC0
3FC0
ENDCHAR
STARTCHAR 0121
ENCODING 289
SWIDTH 468 0
DWIDTH 13 0
BBX 14 23 1 -5
BITMAP
0070
0070
0060
0000
0000
01FC
07F8
0E18
1C18
3838
3030
3030
7030
7030
7060
39E0
3FE0
0060
00C0
01C0
C380
FF00
3800
ENDCHAR
STARTCHAR 0122
ENCODING 290
SWIDTH 468 0
DWIDTH 13 0
BBX 13 23 2 -5
BITMAP
00C0
03F8
0FB8
1C00
3800
3000
7000
6000
6000
E000
E070
E060
E060
E060
E0E0
70C0
7FC0
3FC0
0000
0C00
1C00
7800
7000
ENDCHAR
STARTCHAR 0123
ENCODING 291
SWIDTH 468 0
DWIDTH 13 0
BBX 14 24 1 -5
BITMAP
0018
0030
0070
0060
0000
0000
01FC
07F8
0E18
1C18
3838
3030
3030
7030
7030
7060
39E0
3FE0
0060
00C0
01C0
C380
FF00
3800
ENDCHAR
STARTCHAR 0124
ENCODING 292
SWIDTH 468 0
DWIDTH 13 0
BBX 15 23 1 0
BITMAP
0020
0070
00F8
0198
0108
0000
0C06
0C0E
1C0C
1C0C
180C
181C
3818
3FF8
3FF8
3038
3030
7030
6030
6070
6070
E060
C060
ENDCHAR
STARTCHAR 0125
ENCODING 293
SWIDTH 468 0
DWIDTH 13 0
BBX 12 23 1 0
BITMAP
0100
0380
06C0
0040
0600
0E00
0E00
0C00
0C00
1C00
1FE0
1FF0
1870
1830
3830
3030
3030
3070
7060
6060
6060
60E0
E0C0
ENDCHAR
STARTCHAR 0126
ENCODING 294
SWIDTH 468 0
DWIDTH 13 0
BBX 14 17 2 0
BITMAP
0C18
1C18
7FFC
7FFC
1830
3830
3870
3FE0
3FE0
3060
70E0
60C0
60C0
60C0
E1C0
C1C0
C180
ENDCHAR
STARTCHAR 0127
ENCODING 295
SWIDTH 468 0
DWIDTH 13 0
BBX 12 19 2 0
BITMAP
0600
0E00
3FC0
3FC0
0C00
1C00
1FC0
1FE0
1870
3870
3870
3070
3060
3060
7060
60E0
60C0
60C0
E0C0
ENDCHAR
STARTCHAR 0128
ENCODING 296
SWIDTH 468 0
DWIDTH 13 0
BBX 13 22 2 0
BITMAP
0388
07F8
0470
0000
0000
0FF8
0FF8
0180
0180
0380
0300
0300
0300
0700
0600
0600
0600
0E00
0C00
0C00
FF80
FF80
ENDCHAR
STARTCHAR 0129
ENCODING 297
SWIDTH 468 0
DWIDTH 13 0
BBX 10 18 4 0
BITMAP
1CC0
3F80
2300
0000
0000
FC00
FC00
1C00
1800
1800
1800
3800
3000
3000
3000
3000
3F00
1F00
ENDCHAR
STARTCHAR 012A
ENCODING 298
SWIDTH 468 0
DWIDTH 13 0
BBX 13 22 2 0
BITMAP
03F8
03F8
0000
0000
0000
0FF8
0FF8
0180
0180
0380
0300
0300
0300
0700
0600
0600
0600
0E00
0C00
0C00
FF80
FF80
ENDCHAR
STARTCHAR 012B
ENCODING 299
SWIDTH 468 0
DWIDTH 13 0
BBX 9 18 4 0
BITMAP
3F80
3F80
0000
0000
0000
FC00
FC00
1C00
1800
1800
1800
3800
3000
3000
3000
3000
3F00
1F00
ENDCHAR
STARTCHAR 012C
ENCODING 300
SWIDTH 468 0
DWIDTH 13 0
BBX 13 22 2 0
BITMAP
0318
01F0
01E0
0000
0000
0FF8
0FF8
0180
0180
0380
0300
0300
0300
0700
0600
0600
0600
0E00
0C00
0C00
FF80
FF80
ENDCHAR
STARTCHAR 012D
ENCODING 301
SWIDTH 468 0
DWIDTH 13 0
BBX 10 19 4 0
BITMAP
10C0
1980
1F80
0F00
0000
0000
FC00
FC00
1C00
1800
1800
1800
3800
3000
3000
3000
3000
3F00
1F00
ENDCHAR
STARTCHAR 012E
ENCODING 302
SWIDTH 468 0
DWIDTH 13 0
BBX 13 22 2 -5
BITMAP
0FF8
0FF8
0180
0180
0380
0300
0300
0300
0700
0600
0600
0600
0E00
0C00
0C00
FF80
FF80
1800
3000
6000
7800
1000
ENDCHAR
STARTCHAR 012F
ENCODING 303
SWIDTH 468 0
DWIDTH 13 0
BBX 8 24 4 -5
BITMAP
04
0E
0E
0E
00
00
FC
FC
1C
18
18
18
38
30
30
30
30
3F
1F
0E
1C
18
1E
04
ENDCHAR
STARTCHAR 0130
ENCODING 304
SWIDTH 468 0
DWIDTH 13 0
BBX 13 22 2 0
BITMAP
00C0
00E0
00C0
0000
0000
0FF8
0FF8
0180
0180
0380
0300
0300
0300
0700
0600
0600
0600
0E00
0C00
0C00
FF80
FF80
ENDCHAR
STARTCHAR 0131
ENCODING 305
SWIDTH 468 0
DWIDTH 13 0
BBX 8 13 4 0
BITMAP
FC
FC
1C
18
18
18
38
30
30
30
30
3F
1F
ENDCHAR
STARTCHAR 0132
ENCODING 306
SWIDTH 468 0
DWIDTH 13 0
BBX 15 17 1 0
BITMAP
1C06
1C06
1806
180E
180C
380C
300C
301C
3018
7018
6018
6038
6038
E030
C070
CFE0
CFC0
ENDCHAR
STARTCHAR 0133
ENCODING 307
SWIDTH 468 0
DWIDTH 13 0
BBX 12 23 3 -5
BITMAP
1C70
1C70
0C60
0000
0000
18E0
38C0
38C0
30C0
31C0
7180
7180
6180
6380
6300
E300
C300
C700
0600
0600
4E00
7C00
7000
ENDCHAR
STARTCHAR 0134
ENCODING 308
SWIDTH 468 0
DWIDTH 13 0
BBX 13 23 2 0
BITMAP
0020
0070
00F8
0198
0108
0000
07F8
07F8
0038
0038
0030
0030
0070
0070
0060
0060
0060
00E0
00C0
00C0
41C0
FF80
7F00
ENDCHAR
STARTCHAR 0135
ENCODING 309
SWIDTH 468 0
DWIDTH 13 0
BBX 13 24 1 -5
BITMAP
0020
00E0
01F0
0318
0000
0000
07F0
0FF0
0070
0060
0060
0060
00E0
00C0
00C0
00C0
01C0
01C0
0180
0180
0380
C700
FE00
3800
ENDCHAR
STARTCHAR 0136
ENCODING 310
SWIDTH 468 0
DWIDTH 13 0
BBX 15 22 1 -5
BITMAP
0C0E
0C1C
0C38
1C70
1CE0
19C0
1B80
1E00
3E00
3700
3380
3180
71C0
60C0
60E0
6060
E070
0000
0E00
0C00
3C00
3000
ENDCHAR
STARTCHAR 0137
ENCODING 311
SWIDTH 468 0
DWIDTH 13 0
BBX 13 24 2 -5
BITMAP
0C00
0C00
0C00
1C00
1C00
1800
1838
1870
38E0
3380
3700
3E00
7E00
6600
6700
6380
E180
C1C0
C0C0
0000
0C00
1C00
7800
7000
ENDCHAR
STARTCHAR 0138
ENCODING 312
SWIDTH 468 0
DWIDTH 13 0
BBX 13 13 2 0
BITMAP
1838
3870
38E0
3380
3700
3E00
7C00
6600
6700
6380
E1C0
C1C0
C0E0
ENDCHAR
STARTCHAR 0139
ENCODING 313
SWIDTH 468 0
DWIDTH 13 0
BBX 10 23 2 0
BITMAP
0080
01C0
0380
0600
0400
0000
1C00
1C00
1800
1800
3800
3800
3000
3000
3000
7000
6000
6000
6000
E000
C000
FFC0
FF80
ENDCHAR
STARTCHAR 013A
ENCODING 314
SWIDTH 468 0
DWIDTH 13 0
BBX 8 23 5 0
BITMAP
02
0F
1C
00
FC
FC
0C
1C
18
18
18
38
30
30
30
70
60
60
60
60
60
7E
7E
ENDCHAR
STARTCHAR 013B
ENCODING 315
SWIDTH 468 0
DWIDTH 13 0
BBX 10 22 2 -5
BITMAP
1C00
1C00
1800
1800
3800
3800
3000
3000
3000
7000
6000
6000
6000
E000
C000
FFC0
FF80
0000
0C00
1C00
7800
7000
ENDCHAR
STARTCHAR 013C
ENCODING 316
SWIDTH 468 0
DWIDTH 13 0
BBX 7 24 5 -5
BITMAP
FC
FC
0C
1C
18
18
18
38
30
30
30
70
60
60
60
60
60
7E
7E
00
38
30
F0
C0
ENDCHAR
STARTCHAR 013D
ENCODING 317
SWIDTH 468 0
DWIDTH 13 0
BBX 10 17 2 0
BITMAP
1CC0
1CC0
1980
1980
3980
3800
3000
3000
3000
7000
6000
6000
6000
E000
C000
FFC0
FF80
ENDCHAR
STARTCHAR 013E
ENCODING 318
SWIDTH 468 0
DWIDTH 13 0
BBX 10 19 5 0
BITMAP
FCC0
FCC0
0CC0
1C80
1980
1800
1800
3800
3000
3000
3000
7000
6000
6000
6000
6000
6000
7E00
7E00
ENDCHAR
STARTCHAR 013F
ENCODING 319
SWIDTH 468 0
DWIDTH 13 0
BBX 11 17 2 0
BITMAP
1C00
1C00
1800
1800
3800
3800
3000
30E0
30E0
7000
6000
6000
6000
E000
C000
FFC0
FF80
ENDCHAR
STARTCHAR 0140
ENCODING 320
SWIDTH 468 0
DWIDTH 13 0
BBX 11 19 5 0
BITMAP
FC00
FC00
0C00
1C00
1800
1800
1800
3800
3040
30E0
30E0
7000
6000
6000
6000
6000
6000
7E00
7E00
ENDCHAR
STARTCHAR 0141
ENCODING 321
SWIDTH 468 0
DWIDTH 13 0
BBX 11 17 1 0
BITMAP
0600
0600
0E00
0C00
0C00
0C80
1F80
1F00
3C00
F800
3800
3000
3000
3000
7000
7FE0
7FC0
ENDCHAR
STARTCHAR 0142
ENCODING 322
SWIDTH 468 0
DWIDTH 13 0
BBX 7 19 5 0
BITMAP
FC
FC
0C
1C
18
18
18
3E
3C
F0
F0
70
60
60
60
60
60
7E
7E
ENDCHAR
STARTCHAR 0143
ENCODING 323
SWIDTH 468 0
DWIDTH 13 0
BBX 15 23 1 0
BITMAP
0008
0018
0038
0060
0040
0000
0E06
0E06
0E0C
1B0C
1B0C
1B0C
1B18
3198
3198
3198
31B8
70B0
60F0
60F0
60F0
E0E0
C060
ENDCHAR
STARTCHAR 0144
ENCODING 324
SWIDTH 468 0
DWIDTH 13 0
BBX 12 19 2 0
BITMAP
0020
0070
00C0
0180
0100
0000
1FC0
3FE0
3870
3070
3070
3070
7060
6060
6060
60E0
E0C0
C0C0
C0C0
ENDCHAR
STARTCHAR 0145
ENCODING 325
SWIDTH 468 0
DWIDTH 13 0
BBX 15 22 1 -5
BITMAP
0E06
0E06
0E0C
1B0C
1B0C
1B0C
1B18
3198
3198
3198
31B8
70B0
60F0
60F0
60F0
E0E0
C060
0000
0E00
0C00
3C00
3000
ENDCHAR
STARTCHAR 0146
ENCODING 326
SWIDTH 468 0
DWIDTH 13 0
BBX 12 18 2 -5
BITMAP
1FC0
3FE0
3870
3070
3070
3070
7060
6060
6060
60E0
E0C0
C0C0
C0C0
0000
1C00
1800
7800
6000
ENDCHAR
STARTCHAR 0147
ENCODING 327
SWIDTH 468 0
DWIDTH 13 0
BBX 15 23 1 0
BITMAP
0080
00DC
00F0
0060
0000
0000
0E06
0E06
0E0C
1B0C
1B0C
1B0C
1B18
3198
3198
3198
31B8
70B0
60F0
60F0
60F0
E0E0
C060
ENDCHAR
STARTCHAR 0148
ENCODING 328
SWIDTH 468 0
DWIDTH 13 0
BBX 12 19 2 0
BITMAP
0230
0360
01C0
0180
0000
0000
1FC0
3FE0
3870
3070
3070
3070
7060
6060
6060
60E0
E0C0
C0C0
C0C0
ENDCHAR
STARTCHAR 0149
ENCODING 329
SWIDTH 468 0
DWIDTH 13 0
BBX 12 19 2 0
BITMAP
1C00
1800
3800
3000
2000
0000
1FC0
3FE0
3870
3070
3070
3070
7060
6060
6060
60E0
E0C0
C0C0
C0C0
ENDCHAR
STARTCHAR 014A
ENCODING 330
SWIDTH 468 0
DWIDTH 13 0
BBX 15 22 1 -5
BITMAP
0E06
0E06
0E0C
1B0C
1B0C
1B0C
1B98
3198
3198
3198
30F8
70F0
60F0
60F0
6070
E060
C060
0060
00E0
00C0
0780
0600
ENDCHAR
STARTCHAR 014B
ENCODING 331
SWIDTH 468 0
DWIDTH 13 0
BBX 12 18 2 -5
BITMAP
1FC0
3FE0
3870
3070
3070
3070
7060
6060
6060
60E0
E0C0
C0C0
C0C0
01C0
0180
0380
0F00
0E00
ENDCHAR
STARTCHAR 014C
ENCODING 332
SWIDTH 468 0
DWIDTH 13 0
BBX 13 22 2 0
BITMAP
03F8
03F8
0000
0000
0080
07F0
0F70
1C38
3818
3018
7018
6018
6038
6038
E030
E030
E070
E060
E0E0
61C0
7F80
3F00
ENDCHAR
STARTCHAR 014D
ENCODING 333
SWIDTH 468 0
DWIDTH 13 0
BBX 12 18 2 0
BITMAP
07F0
07F0
0000
0000
0000
07C0
1FE0
3870
3030
7030
6030
E070
E070
E060
E0E0
E1C0
7F80
3F00
ENDCHAR
STARTCHAR 014E
ENCODING 334
SWIDTH 468 0
DWIDTH 13 0
BBX 13 22 2 0
BITMAP
0118
01F8
00E0
0000
0080
07F0
0F70
1C38
3818
3018
7018
6018
6038
6038
E030
E030
E070
E060
E0E0
61C0
7F80
3F00
ENDCHAR
STARTCHAR 014F
ENCODING 335
SWIDTH 468 0
DWIDTH 13 0
BBX 12 19 2 0
BITMAP
0210
0230
03F0
01C0
0000
0000
07C0
1FE0
3870
3030
7030
6030
E070
E070
E060
E0E0
E1C0
7F80
3F00
ENDCHAR
STARTCHAR 0150
ENCODING 336
SWIDTH 468 0
DWIDTH 13 0
BBX 14 23 2 0
BITMAP
0044
00CC
0198
0330
0200
0080
07F0
0F70
1C38
3818
3018
7018
6018
6038
6038
E030
E030
E070
E060
E0E0
61C0
7F80
3F00
ENDCHAR
STARTCHAR 0151
ENCODING 337
SWIDTH 468 0
DWIDTH 13 0
BBX 13 19 2 0
BITMAP
0118
0398
0730
0E60
0440
0000
07C0
1FE0
3870
3030
7030
6030
E070
E070
E060
E0E0
E1C0
7F80
3F00
ENDCHAR
STARTCHAR 0152
ENCODING 338
SWIDTH 468 0
DWIDTH 13 0
BBX 15 17 2 0
BITMAP
07FE
1FFC
18E0
30C0
70C0
60C0
61C0
E1F0
C1F0
C180
C380
C300
C300
C300
E700
7FE0
7FE0
ENDCHAR
STARTCHAR 0153
ENCODING 339
SWIDTH 468 0
DWIDTH 13 0
BBX 13 13 2 0
BITMAP
1E78
3EF8
7398
6398
E318
C338
C3F0
C7C0
C700
C700
CF00
FFE0
F9E0
ENDCHAR
STARTCHAR 0154
ENCODING 340
SWIDTH 468 0
DWIDTH 13 0
BBX 14 23 1 0
BITMAP
0010
0038
0070
00E0
0040
0000
0FF0
0FF8
0C1C
1C1C
1C1C
1818
1818
3838
3FF0
3FC0
3180
30C0
70C0
60E0
6060
6060
E060
ENDCHAR
STARTCHAR 0155
ENCODING 341
SWIDTH 468 0
DWIDTH 13 0
BBX 11 19 3 0
BITMAP
0040
00E0
01C0
0380
0000
0000
1FE0
3FE0
3000
3000
3000
7000
6000
6000
6000
E000
C000
C000
C000
ENDCHAR
STARTCHAR 0156
ENCODING 342
SWIDTH 468 0
DWIDTH 13 0
BBX 14 22 1 -5
BITMAP
0FF0
0FF8
0C1C
1C1C
1C1C
1818
1818
3838
3FF0
3FC0
3180
30C0
70C0
60E0
6060
6060
E060
0000
0E00
0C00
3C00
3000
ENDCHAR
STARTCHAR 0157
ENCODING 343
SWIDTH 468 0
DWIDTH 13 0
BBX 15 18 -1 -5
BITMAP
01FE
03FE
0300
0300
0300
0700
0600
0600
0600
0E00
0C00
0C00
0C00
0000
1800
1800
7000
E000
ENDCHAR
STARTCHAR 0158
ENCODING 344
SWIDTH 468 0
DWIDTH 13 0
BBX 14 23 1 0
BITMAP
0100
01B8
01E0
00C0
0000
0000
0FF0
0FF8
0C1C
1C1C
1C1C
1818
1818
3838
3FF0
3FC0
3180
30C0
70C0
60E0
6060
6060
E060
ENDCHAR
STARTCHAR 0159
ENCODING 345
SWIDTH 468 0
DWIDTH 13 0
BBX 11 19 3 0
BITMAP
0620
0360
03C0
0180
0000
0000
1FE0
3FE0
3000
3000
3000
7000
6000
6000
6000
E000
C000
C000
C000
ENDCHAR
STARTCHAR 015A
ENCODING 346
SWIDTH 468 0
DWIDTH 13 0
BBX 13 23 2 0
BITMAP
0020
0070
00E0
01C0
0080
00C0
07F8
0F78
1C00
1800
1800
1800
1C00
0F00
0780
01C0
00E0
0060
0060
00E0
80C0
FFC0
FF00
ENDCHAR
STARTCHAR 015B
ENCODING 347
SWIDTH 468 0
DWIDTH 13 0
BBX 11 19 3 0
BITMAP
0040
00E0
0180
0300
0200
0000
0FE0
3FC0
3000
3000
3000
3C00
1F00
0780
0180
0180
0180
FF80
FE00
ENDCHAR
STARTCHAR 015C
ENCODING 348
SWIDTH 468 0
DWIDTH 13 0
BBX 13 23 2 0
BITMAP
0040
00E0
01F0
0330
0210
00C0
07F8
0F78
1C00
1800
1800
1800
1C00
0F00
0780
01C0
00E0
0060
0060
00E0
80C0
FFC0
FF00
ENDCHAR
STARTCHAR 015D
ENCODING 349
SWIDTH 468 0
DWIDTH 13 0
BBX 11 19 3 0
BITMAP
0080
0380
07C0
0C60
0000
0000
0FE0
3FC0
3000
3000
3000
3C00
1F00
0780
0180
0180
0180
FF80
FE00
ENDCHAR
STARTCHAR 015E
ENCODING 350
SWIDTH 468 0
DWIDTH 13 0
BBX 13 23 2 -5
BITMAP
00C0
07F8
0F78
1C00
1800
1800
1800
1C00
0F00
0780
01C0
00E0
0060
0060
00E0
80C0
FFC0
FF00
1800
1800
0C00
7800
7000
ENDCHAR
STARTCHAR 015F
ENCODING 351
SWIDTH 468 0
DWIDTH 13 0
BBX 11 18 3 -5
BITMAP
0FE0
3FC0
3000
3000
3000
3C00
1F00
0780
0180
0180
0180
FF80
FE00
1000
3800
1800
F800
E000
ENDCHAR
STARTCHAR 0160
ENCODING 352
SWIDTH 468 0
DWIDTH 13 0
BBX 13 23 2 0
BITMAP
0108
01B8
00F0
00C0
0000
00C0
07F8
0F78
1C00
1800
1800
1800
1C00
0F00
0780
01C0
00E0
0060
0060
00E0
80C0
FFC0
FF00
ENDCHAR
STARTCHAR 0161
ENCODING 353
SWIDTH 468 0
DWIDTH 13 0
BBX 11 19 3 0
BITMAP
0620
0360
03C0
0180
0000
0000
0FE0
3FC0
3000
3000
3000
3C00
1F00
0780
0180
0180
0180
FF80
FE00
ENDCHAR
STARTCHAR 0162
ENCODING 354
SWIDTH 468 0
DWIDTH 13 0
BBX 13 22 3 -5
BITMAP
3FF8
7FF8
0300
0700
0700
0600
0600
0600
0E00
0C00
0C00
0C00
1C00
1800
1800
1800
3800
3000
7000
3000
F000
E000
ENDCHAR
STARTCHAR 0163
ENCODING 355
SWIDTH 468 0
DWIDTH 13 0
BBX 10 22 4 -5
BITMAP
0C00
1C00
1800
1800
FFC0
FFC0
3000
3000
3000
7000
6000
6000
6000
6000
6000
7F00
7F00
1000
3800
1800
F800
6000
ENDCHAR
STARTCHAR 0164
ENCODING 356
SWIDTH 468 0
DWIDTH 13 0
BBX 12 23 4 0
BITMAP
0400
06E0
0780
0300
0000
0000
7FF0
FFF0
0600
0E00
0E00
0C00
0C00
0C00
1C00
1800
1800
1800
3800
3000
3000
3000
7000
ENDCHAR
STARTCHAR 0165
ENCODING 357
SWIDTH 468 0
DWIDTH 13 0
BBX 11 19 4 0
BITMAP
0060
00C0
0CC0
0CC0
1C80
1800
FFC0
FFC0
3800
3000
3000
3000
7000
7000
6000
6000
7000
7F00
3F00
ENDCHAR
STARTCHAR 0166
ENCODING 358
SWIDTH 468 0
DWIDTH 13 0
BBX 12 17 4 0
BITMAP
7FF0
FFF0
0600
0E00
0E00
0C00
0C00
7F00
7F00
1800
1800
1800
3800
3000
3000
3000
7000
ENDCHAR
STARTCHAR 0167
ENCODING 359
SWIDTH 468 0
DWIDTH 13 0
BBX 11 17 3 0
BITMAP
0600
0600
0E00
0C00
7FE0
7FE0
1C00
1800
1800
FFC0
FFC0
3800
3000
3000
3000
3F80
1F80
ENDCHAR
STARTCHAR 0168
ENCODING 360
SWIDTH 468 0
DWIDTH 13 0
BBX 14 22 2 0
BITMAP
0388
07F8
0470
0000
0000
180C
181C
3818
3818
3018
3038
7030
7030
6030
6070
6060
E060
E060
E0E0
61C0
7F80
3F00
ENDCHAR
STARTCHAR 0169
ENCODING 361
SWIDTH 468 0
DWIDTH 13 0
BBX 12 18 2 0
BITMAP
0790
0FF0
0040
0000
0000
3030
3030
3070
7070
7060
6060
60E0
60E0
E0C0
E0C0
E1C0
7FC0
3EC0
ENDCHAR
STARTCHAR 016A
ENCODING 362
SWIDTH 468 0
DWIDTH 13 0
BBX 14 22 2 0
BITMAP
03F8
03F8
0000
0000
0000
180C
181C
3818
3818
3018
3038
7030
7030
6030
6070
6060
E060
E060
E0E0
61C0
7F80
3F00
ENDCHAR
STARTCHAR 016B
ENCODING 363
SWIDTH 468 0
DWIDTH 13 0
BBX 12 18 2 0
BITMAP
07F0
07F0
0000
0000
0000
3030
3030
3070
7070
7060
6060
60E0
60E0
E0C0
E0C0
E1C0
7FC0
3EC0
ENDCHAR
STARTCHAR 016C
ENCODING 364
SWIDTH 468 0
DWIDTH 13 0
BBX 14 22 2 0
BITMAP
0318
01F0
01E0
0000
0000
180C
181C
3818
3818
3018
3038
7030
7030
6030
6070
6060
E060
E060
E0E0
61C0
7F80
3F00
ENDCHAR
STARTCHAR 016D
ENCODING 365
SWIDTH 468 0
DWIDTH 13 0
BBX 12 19 2 0
BITMAP
0630
0630
03E0
01C0
0000
0000
3030
3030
3070
7070
7060
6060
60E0
60E0
E0C0
E0C0
E1C0
7FC0
3EC0
ENDCHAR
STARTCHAR 016E
ENCODING 366
SWIDTH 468 0
DWIDTH 13 0
BBX 14 23 2 0
BITMAP
01E0
0130
0130
01B0
00E0
0000
180C
181C
3818
3818
3018
3038
7030
7030
6030
6070
6060
E060
E060
E0E0
61C0
7F80
3F00
ENDCHAR
STARTCHAR 016F
ENCODING 367
SWIDTH 468 0
DWIDTH 13 0
BBX 12 19 2 0
BITMAP
03C0
0260
0260
03C0
0180
0000
3030
3030
3070
7070
7060
6060
60E0
60E0
E0C0
E0C0
E1C0
7FC0
3EC0
ENDCHAR
STARTCHAR 0170
ENCODING 368
SWIDTH 468 0
DWIDTH 13 0
BBX 14 23 2 0
BITMAP
0088
01DC
03B8
0730
0020
0000
180C
181C
3818
3818
3018
3038
7030
7030
6030
6070
6060
E060
E060
E0E0
61C0
7F80
3F00
ENDCHAR
STARTCHAR 0171
ENCODING 369
SWIDTH 468 0
DWIDTH 13 0
BBX 13 19 2 0
BITMAP
0110
03B8
0670
0CC0
0000
0000
3030
3030
3070
7070
7060
6060
60E0
60E0
E0C0
E0C0
E1C0
7FC0
3EC0
ENDCHAR
STARTCHAR 0172
ENCODING 370
SWIDTH 468 0
DWIDTH 13 0
BBX 14 22 2 -5
BITMAP
180C
181C
3818
3818
3018
3038
7030
7030
6030
6070
6060
E060
E060
E0E0
61C0
7F80
3F00
0600
0C00
1800
1E00
0400
ENDCHAR
STARTCHAR 0173
ENCODING 371
SWIDTH 468 0
DWIDTH 13 0
BBX 12 18 2 -5
BITMAP
3030
3030
3070
7070
7060
6060
60E0
60E0
E0C0
E0C0
E1C0
7FC0
3EC0
01C0
0300
0300
03C0
0180
ENDCHAR
STARTCHAR 0174
ENCODING 372
SWIDTH 468 0
DWIDTH 13 0
BBX 14 23 2 0
BITMAP
0040
00E0
01F0
0330
0210
0000
380C
300C
300C
301C
3018
6018
6318
6730
6530
6D30
4930
D960
F160
F140
E1C0
E1C0
C180
ENDCHAR
STARTCHAR 0175
ENCODING 373
SWIDTH 468 0
DWIDTH 13 0
BBX 14 19 2 0
BITMAP
0040
01C0
03E0
0630
0000
0000
600C
601C
6018
6318
6738
6730
6F30
CF60
DB60
D160
F1C0
E1C0
C180
ENDCHAR
STARTCHAR 0176
ENCODING 374
SWIDTH 468 0
DWIDTH 13 0
BBX 13 22 4 1
BITMAP
0380
07C0
0CC0
0040
0000
C038
E030
6070
60E0
60C0
6180
3380
3700
3600
1C00
1800
1800
1800
3800
3000
3000
3000
ENDCHAR
STARTCHAR 0177
ENCODING 375
SWIDTH 468 0
DWIDTH 13 0
BBX 15 24 0 -5
BITMAP
0020
0070
00F0
0198
0000
0000
0C0E
0C0C
0C0C
0C1C
0E18
0E18
0630
0630
0660
0760
07C0
03C0
0380
0300
0700
9E00
FC00
E000
ENDCHAR
STARTCHAR 0178
ENCODING 376
SWIDTH 468 0
DWIDTH 13 0
BBX 13 22 4 0
BITMAP
0C60
1CE0
0CC0
0000
0000
C038
E030
6070
60E0
60C0
6180
3380
3700
3600
1C00
1800
1800
1800
3800
3000
3000
3000
ENDCHAR
STARTCHAR 0179
ENCODING 377
SWIDTH 468 0
DWIDTH 13 0
BBX 15 23 1 0
BITMAP
0008
0018
0038
0060
0040
0000
0FFE
0FFE
001C
0038
0070
00E0
01C0
0180
0300
0600
0E00
1C00
3800
3000
6000
FFE0
FFE0
ENDCHAR
STARTCHAR 017A
ENCODING 378
SWIDTH 468 0
DWIDTH 13 0
BBX 12 19 2 0
BITMAP
0020
0070
00C0
0180
0100
0000
1FF0
1FF0
00E0
01C0
0380
0700
0E00
1C00
3800
7000
6000
FFC0
FF80
ENDCHAR
STARTCHAR 017B
ENCODING 379
SWIDTH 468 0
DWIDTH 13 0
BBX 15 22 1 0
BITMAP
0060
0070
0060
0000
0000
0FFE
0FFE
001C
0038
0070
00E0
01C0
0180
0300
0600
0E00
1C00
3800
3000
6000
FFE0
FFE0
ENDCHAR
STARTCHAR 017C
ENCODING 380
SWIDTH 468 0
DWIDTH 13 0
BBX 12 18 2 0
BITMAP
01C0
01C0
0080
0000
0000
1FF0
1FF0
00E0
01C0
0380
0700
0E00
1C00
3800
7000
6000
FFC0
FF80
ENDCHAR
STARTCHAR 017D
ENCODING 381
SWIDTH 468 0
DWIDTH 13 0
BBX 15 23 1 0
BITMAP
0080
00DC
00F0
0060
0000
0000
0FFE
0FFE
001C
0038
0070
00E0
01C0
0180
0300
0600
0E00
1C00
3800
3000
6000
FFE0
FFE0
ENDCHAR
STARTCHAR 017E
ENCODING 382
SWIDTH 468 0
DWIDTH 13 0
BBX 12 19 2 0
BITMAP
0230
0360
01C0
0180
0000
0000
1FF0
1FF0
00E0
01C0
0380
0700
0E00
1C00
3800
7000
6000
FFC0
FF80
ENDCHAR
STARTCHAR 017F
ENCODING 383
SWIDTH 468 0
DWIDTH 13 0
BBX 17 24 0 -5
BITMAP
001F80
007F00
006000
00E000
00C000
00C000
00C000
01C000
018000
018000
018000
018000
038000
030000
030000
030000
070000
070000
060000
060000
0E0000
5C0000
FC0000
600000
ENDCHAR
STARTCHAR 0180
ENCODING 384
SWIDTH 468 0
DWIDTH 13 0
BBX 12 19 2 0
BITMAP
0E00
0C00
3FC0
3FC0
1C00
1800
1FE0
1FF0
3870
3030
3030
3030
7030
6070
6060
60E0
E1C0
FF80
FE00
ENDCHAR
STARTCHAR 0181
ENCODING 385
SWIDTH 468 0
DWIDTH 13 0
BBX 12 17 3 0
BITMAP
3FC0
7FE0
CC70
CC70
CC70
1C60
18E0
1FC0
1FC0
38C0
30E0
30E0
30E0
70C0
61C0
7F80
7F00
ENDCHAR
STARTCHAR 0182
ENCODING 386
SWIDTH 468 0
DWIDTH 13 0
BBX 12 17 2 0
BITMAP
1FF0
1FF0
1800
1800
3800
3000
3E00
3FC0
71E0
7060
6060
6060
E060
E0E0
C1C0
FFC0
FF00
ENDCHAR
STARTCHAR 0183
ENCODING 387
SWIDTH 468 0
DWIDTH 13 0
BBX 13 19 2 0
BITMAP
0FF8
0FF8
0C00
1C00
1800
1800
1FC0
3FE0
3870
3030
3030
7030
6070
6070
6060
E0E0
C1C0
FF80
FE00
ENDCHAR
STARTCHAR 0184
ENCODING 388
SWIDTH 468 0
DWIDTH 13 0
BBX 12 19 2 0
BITMAP
0E00
3C00
1C00
0C00
1C00
1800
1FE0
1FF0
3870
3030
3030
3030
7030
6070
6060
60E0
E1C0
FF80
FE00
ENDCHAR
STARTCHAR 0185
ENCODING 389
SWIDTH 468 0
DWIDTH 13 0
BBX 12 17 2 0
BITMAP
0C00
3C00
1C00
1800
1800
1800
3F80
3FE0
3070
3070
7030
7030
6070
6060
E0E0
FFC0
FF00
ENDCHAR
STARTCHAR 0186
ENCODING 390
SWIDTH 468 0
DWIDTH 13 0
BBX 13 18 2 0
BITMAP
0180
1FE0
1DF0
0070
0038
0038
0038
0038
0038
0038
0030
0030
0070
0060
00E0
83C0
FF80
FE00
ENDCHAR
STARTCHAR 0187
ENCODING 391
SWIDTH 468 0
DWIDTH 13 0
BBX 16 20 2 0
BITMAP
0002
000F
005C
03F8
0FB0
1C00
1800
3800
3000
7000
6000
6000
6000
E000
E000
6000
6000
7000
3FC0
1F80
ENDCHAR
STARTCHAR 0188
ENCODING 392
SWIDTH 468 0
DWIDTH 13 0
BBX 14 16 2 0
BITMAP
000C
003C
0070
07E0
1FC0
3800
7000
6000
6000
E000
E000
E000
E000
6000
7F80
3F80
ENDCHAR
STARTCHAR 0189
ENCODING 393
SWIDTH 468 0
DWIDTH 13 0
BBX 12 17 2 0
BITMAP
0FC0
0FE0
1C70
1830
1830
1830
3830
FE30
FC30
3030
7070
6060
60E0
60C0
E3C0
FF00
FE00
ENDCHAR
STARTCHAR 018A
ENCODING 394
SWIDTH 468 0
DWIDTH 13 0
BBX 12 17 3 0
BITMAP
3FC0
7FE0
CC60
CC70
CC30
1C30
1830
1830
1870
3870
3060
30E0
30E0
71C0
6380
7F00
7E00
ENDCHAR
STARTCHAR 018B
ENCODING 395
SWIDTH 468 0
DWIDTH 13 0
BBX 14 17 2 0
BITMAP
0FFC
0FF8
0018
0018
0038
0038
01F0
1FF0
3C70
7070
6060
E060
C060
E0E0
E0C0
7FC0
3FC0
ENDCHAR
STARTCHAR 018C
ENCODING 396
SWIDTH 468 0
DWIDTH 13 0
BBX 14 19 2 0
BITMAP
07FC
07FC
0018
0018
0018
0038
03F8
0FF0
1C30
3830
7070
6060
E060
E060
E0E0
E0C0
E1C0
7FC0
3EE0
ENDCHAR
STARTCHAR 018D
ENCODING 397
SWIDTH 468 0
DWIDTH 13 0
BBX 13 18 1 -5
BITMAP
07E0
0FF0
1C38
3818
3818
3018
3038
3030
3070
38E0
1FC0
0F00
0380
0180
0180
4380
FF00
1C00
ENDCHAR
STARTCHAR 018E
ENCODING 398
SWIDTH 468 0
DWIDTH 13 0
BBX 14 17 1 0
BITMAP
0FFC
0FFC
001C
0018
0018
0018
0038
0FF0
1FF0
0030
0070
0060
0060
0060
00E0
FFE0
FFC0
ENDCHAR
STARTCHAR 018F
ENCODING 399
SWIDTH 468 0
DWIDTH 13 0
BBX 13 18 2 0
BITMAP
0180
1FE0
1CF0
0030
0038
0038
0018
0018
0018
7FF8
FFF0
C030
C070
C060
C0E0
E1C0
7F80
3F00
ENDCHAR
STARTCHAR 0190
ENCODING 400
SWIDTH 468 0
DWIDTH 13 0
BBX 14 17 2 1
BITMAP
07FC
0FB8
1C00
1800
1800
1800
1C00
0FC0
1FC0
3800
6000
E000
E000
E000
E020
7FE0
3FE0
ENDCHAR
STARTCHAR 0191
ENCODING 401
SWIDTH 468 0
DWIDTH 13 0
BBX 18 22 -2 -5
BITMAP
00FFC0
00FF80
01C000
01C000
018000
018000
018000
03FE00
03FE00
030000
030000
070000
060000
060000
060000
0E0000
0C0000
0C0000
0C0000
1C0000
F80000
600000
ENDCHAR
STARTCHAR 0192
ENCODING 402
SWIDTH 468 0
DWIDTH 13 0
BBX 17 24 0 -5
BITMAP
001F80
007F00
006000
00E000
00C000
00C000
07FE00
07FE00
018000
018000
018000
038000
038000
030000
030000
030000
070000
070000
060000
060000
0E0000
5C0000
FC0000
600000
ENDCHAR
STARTCHAR 0193
ENCODING 403
SWIDTH 468 0
DWIDTH 13 0
BBX 15 19 2 1
BITMAP
000E
00D8
07F8
0FF0
1C00
3800
3000
7000
6000
6000
E000
E070
E060
E060
E060
E0E0
70C0
7FC0
1FC0
ENDCHAR
STARTCHAR 0194
ENCODING 404
SWIDTH 468 0
DWIDTH 13 0
BBX 14 21 3 -5
BITMAP
601C
7018
7030
7070
3060
30E0
30C0
3180
1B80
1B00
1E00
1E00
0C00
1C00
3C00
7E00
6600
C600
C600
EE00
FC00
ENDCHAR
STARTCHAR 0195
ENCODING 405
SWIDTH 468 0
DWIDTH 13 0
BBX 14 19 1 0
BITMAP
0C00
0C00
0C00
1C00
1800
1800
1F0C
3F8C
318C
319C
3198
3318
7318
6338
6330
6630
E630
C7E0
C3C0
ENDCHAR
STARTCHAR 0196
ENCODING 406
SWIDTH 468 0
DWIDTH 13 0
BBX 10 17 5 0
BITMAP
7FC0
FF80
1800
1800
1800
3800
3800
3000
3000
7000
7000
6000
6000
6000
6000
7E00
7E00
ENDCHAR
STARTCHAR 0197
ENCODING 407
SWIDTH 468 0
DWIDTH 13 0
BBX 13 17 2 0
BITMAP
0FF8
0FF8
0180
0180
0380
0300
0300
1FC0
1FC0
0600
0600
0600
0E00
0C00
0C00
FF80
FF80
ENDCHAR
STARTCHAR 0198
ENCODING 408
SWIDTH 468 0
DWIDTH 13 0
BBX 16 17 1 1
BITMAP
0C1F
0C3F
0C70
1C60
1CC0
1980
1B00
1E00
3E00
3700
3380
3180
71C0
60C0
60E0
6060
E070
ENDCHAR
STARTCHAR 0199
ENCODING 409
SWIDTH 468 0
DWIDTH 13 0
BBX 13 19 2 0
BITMAP
0780
0F80
0C00
1C00
1C00
1800
1838
3870
38E0
3380
3700
3E00
7E00
6600
6700
6380
E180
C1C0
C0C0
ENDCHAR
STARTCHAR 019A
ENCODING 410
SWIDTH 468 0
DWIDTH 13 0
BBX 10 19 3 0
BITMAP
3F00
3F00
0300
0700
0600
0600
0600
0E00
FFC0
FFC0
0C00
1C00
1800
1800
1800
1800
1800
1F80
1F80
ENDCHAR
STARTCHAR 019B
ENCODING 411
SWIDTH 468 0
DWIDTH 13 0
BBX 13 19 1 0
BITMAP
0F00
0F80
01F8
03E0
07C0
00C0
01C0
01C0
03E0
0760
0660
0C60
1C60
1860
3060
7060
6060
E060
C060
ENDCHAR
STARTCHAR 019C
ENCODING 412
SWIDTH 468 0
DWIDTH 13 0
BBX 15 17 1 0
BITMAP
0C06
1C06
180C
180C
180C
380C
319C
3198
3318
3318
6338
6330
6730
6630
E630
7FE0
7BE0
ENDCHAR
STARTCHAR 019D
ENCODING 413
SWIDTH 468 0
DWIDTH 13 0
BBX 19 22 -3 -5
BITMAP
00E060
00E060
00E0C0
01B0C0
01B0C0
01B0C0
01B980
031980
031980
031980
030F80
070F00
060F00
060F00
060F00
060600
0C0600
0C0000
0C0000
180000
F80000
600000
ENDCHAR
STARTCHAR 019E
ENCODING 414
SWIDTH 468 0
DWIDTH 13 0
BBX 12 18 2 -5
BITMAP
1FC0
3FE0
3870
3070
3070
3070
7060
6060
6060
60E0
E0C0
C0C0
C0C0
01C0
0180
0180
0180
0380
ENDCHAR
STARTCHAR 019F
ENCODING 415
SWIDTH 468 0
DWIDTH 13 0
BBX 13 18 2 0
BITMAP
0180
07E0
0E70
1C38
3838
3018
7018
6018
7FF8
FFF0
E030
C030
C070
C060
E0E0
E1C0
7F80
3F00
ENDCHAR
STARTCHAR 01A0
ENCODING 416
SWIDTH 468 0
DWIDTH 13 0
BBX 15 20 2 0
BITMAP
0006
0006
008E
07EC
0EF8
1830
3830
3038
7038
6030
6030
E030
E030
C070
C060
C0E0
E0C0
E1C0
7F80
3E00
ENDCHAR
STARTCHAR 01A1
ENCODING 417
SWIDTH 468 0
DWIDTH 13 0
BBX 14 16 2 0
BITMAP
000C
000C
000C
0FD8
1FF8
3860
7060
6070
6060
E060
E060
E0E0
E0C0
E1C0
7F80
3F00
ENDCHAR
STARTCHAR 01A2
ENCODING 418
SWIDTH 468 0
DWIDTH 13 0
BBX 13 18 2 0
BITMAP
0200
0FF8
1BD8
3198
7198
6198
6198
E198
C1B0
C3B0
C330
C330
C370
C660
C660
CC60
FCE0
F8C0
ENDCHAR
STARTCHAR 01A3
ENCODING 419
SWIDTH 468 0
DWIDTH 13 0
BBX 13 18 1 -5
BITMAP
0FF8
1FF8
3398
3198
6198
6398
6338
6330
E330
E330
6670
7E60
7C60
0060
0060
00C0
00C0
00C0
ENDCHAR
STARTCHAR 01A4
ENCODING 420
SWIDTH 468 0
DWIDTH 13 0
BBX 12 17 3 0
BITMAP
3FE0
7FF0
CC30
CC30
CC30
1C30
1830
1860
19E0
3FC0
3C00
3000
3000
7000
6000
6000
6000
ENDCHAR
STARTCHAR 01A5
ENCODING 421
SWIDTH 468 0
DWIDTH 13 0
BBX 13 24 1 -5
BITMAP
03C0
07C0
0600
0E00
0C00
0C00
0FE0
1FF0
1838
1818
1818
3818
3038
3038
3030
7070
60E0
7FC0
7F00
E000
E000
C000
C000
C000
ENDCHAR
STARTCHAR 01A6
ENCODING 422
SWIDTH 468 0
DWIDTH 13 0
BBX 14 22 1 -3
BITMAP
0600
0E00
0FF0
0FF8
0C1C
1C1C
1C1C
1818
1818
1838
3FF0
3FC0
3180
30C0
70C0
60E0
6060
6060
E070
0030
0030
0030
ENDCHAR
STARTCHAR 01A7
ENCODING 423
SWIDTH 468 0
DWIDTH 13 0
BBX 13 18 2 0
BITMAP
0180
0FF0
0E70
0038
0018
0038
0030
00F0
03E0
1F80
3C00
7000
E000
C000
C000
E000
7FC0
3FC0
ENDCHAR
STARTCHAR 01A8
ENCODING 424
SWIDTH 468 0
DWIDTH 13 0
BBX 11 13 2 0
BITMAP
1FC0
1FE0
0060
0060
00E0
03C0
1F80
7C00
6000
E000
E000
FFC0
7FC0
ENDCHAR
STARTCHAR 01A9
ENCODING 425
SWIDTH 468 0
DWIDTH 13 0
BBX 15 17 1 0
BITMAP
0FFE
0FFE
0E00
0600
0700
0300
0380
0180
0180
0300
0E00
1C00
3800
7000
6000
FFE0
FFE0
ENDCHAR
STARTCHAR 01AA
ENCODING 426
SWIDTH 468 0
DWIDTH 13 0
BBX 7 24 5 -5
BITMAP
7C
FE
C6
86
CE
FE
7E
0C
0C
0C
1C
18
18
18
38
30
30
30
70
70
70
78
3C
0C
ENDCHAR
STARTCHAR 01AB
ENCODING 427
SWIDTH 468 0
DWIDTH 13 0
BBX 12 22 3 -5
BITMAP
0600
0E00
0C00
0C00
FFF0
FFE0
1800
1800
1800
3800
3000
3000
3000
3000
3000
3F80
1F80
0180
0180
0380
0F00
0C00
ENDCHAR
STARTCHAR 01AC
ENCODING 428
SWIDTH 468 0
DWIDTH 13 0
BBX 13 17 3 0
BITMAP
3FF8
7FF8
6380
C300
C300
0700
0700
0600
0600
0600
0E00
0C00
0C00
0C00
1C00
1800
1800
ENDCHAR
STARTCHAR 01AD
ENCODING 429
SWIDTH 468 0
DWIDTH 13 0
BBX 12 19 4 0
BITMAP
03F0
07F0
0E00
1C00
1800
1800
FFC0
FFC0
3000
3000
3000
7000
6000
6000
6000
6000
6000
7F00
3F00
ENDCHAR
STARTCHAR 01AE
ENCODING 430
SWIDTH 468 0
DWIDTH 13 0
BBX 12 22 4 -5
BITMAP
7FF0
FFF0
0600
0E00
0E00
0C00
0C00
0C00
1C00
1800
1800
1800
3800
3000
3000
3000
7000
6000
6000
7000
7C00
1800
ENDCHAR
STARTCHAR 01AF
ENCODING 431
SWIDTH 468 0
DWIDTH 13 0
BBX 16 20 2 0
BITMAP
0003
0003
0007
383E
3038
3030
3030
7070
7070
6060
6060
60E0
E0E0
C0C0
C0C0
C1C0
C180
C380
FF00
7E00
ENDCHAR
STARTCHAR 01B0
ENCODING 432
SWIDTH 468 0
DWIDTH 13 0
BBX 15 16 2 0
BITMAP
000E
000E
000C
307C
3070
7060
70E0
60E0
60C0
E0C0
E0C0
C1C0
C180
E380
FF80
7DC0
ENDCHAR
STARTCHAR 01B1
ENCODING 433
SWIDTH 468 0
DWIDTH 13 0
BBX 15 17 2 0
BITMAP
3E7E
3E7E
0C30
1830
3838
3038
7038
6038
E038
E030
C030
C070
C070
E0E0
E1C0
7F80
3F00
ENDCHAR
STARTCHAR 01B2
ENCODING 434
SWIDTH 468 0
DWIDTH 13 0
BBX 13 17 2 0
BITMAP
19E0
39F0
3838
3038
3018
7018
7038
6030
6030
6030
E030
C060
C060
C0C0
E1C0
FF80
7E00
ENDCHAR
STARTCHAR 01B3
ENCODING 435
SWIDTH 468 0
DWIDTH 13 0
BBX 14 17 3 0
BITMAP
E03C
607C
6060
60C0
61C0
3180
3300
3700
1E00
1C00
1C00
1800
1800
1800
3800
3000
3000
ENDCHAR
STARTCHAR 01B4
ENCODING 436
SWIDTH 468 0
DWIDTH 13 0
BBX 17 18 -1 -5
BITMAP
060780
060F80
060C00
061C00
061800
063800
063000
063000
066000
076000
03C000
03C000
038000
030000
070000
0E0000
FC0000
600000
ENDCHAR
STARTCHAR 01B5
ENCODING 437
SWIDTH 468 0
DWIDTH 13 0
BBX 15 17 1 0
BITMAP
0FFE
0FFE
001C
0038
0070
00E0
01C0
1FF8
1FF0
0700
0E00
1C00
3800
3000
6000
FFE0
FFE0
ENDCHAR
STARTCHAR 01B6
ENCODING 438
SWIDTH 468 0
DWIDTH 13 0
BBX 12 13 2 0
BITMAP
1FF0
1FF0
00E0
01C0
0380
3FE0
3FC0
1C00
3800
7000
6000
FFC0
FF80
ENDCHAR
STARTCHAR 01B7
ENCODING 439
SWIDTH 468 0
DWIDTH 13 0
BBX 15 17 1 0
BITMAP
0FFE
0FFC
0018
0030
0060
00C0
0380
03C0
07E0
0070
0030
0030
0030
0030
0060
FFE0
7F80
ENDCHAR
STARTCHAR 01B8
ENCODING 440
SWIDTH 468 0
DWIDTH 13 0
BBX 14 17 2 0
BITMAP
0FFC
0FFC
0E00
0600
0700
0300
0180
0780
1F80
3800
7000
6000
E000
6000
6020
7FE0
3FC0
ENDCHAR
STARTCHAR 01B9
ENCODING 441
SWIDTH 468 0
DWIDTH 13 0
BBX 13 18 2 -5
BITMAP
0FF8
1FF0
0C00
0C00
0600
0700
0300
0780
1F80
7800
6000
E000
C000
C000
E000
7180
7F80
0400
ENDCHAR
STARTCHAR 01BA
ENCODING 442
SWIDTH 468 0
DWIDTH 13 0
BBX 13 18 1 -5
BITMAP
0FF8
0FF8
0030
00E0
01C0
0300
0780
03E0
0060
0060
0060
00E0
07C0
7F00
F000
C000
C000
8000
ENDCHAR
STARTCHAR 01BB
ENCODING 443
SWIDTH 468 0
DWIDTH 13 0
BBX 12 18 2 0
BITMAP
0100
0FE0
1E70
1030
0030
0030
0030
0060
00E0
3FF0
3FF0
0E00
1C00
3000
7000
E000
FFC0
FFC0
ENDCHAR
STARTCHAR 01BC
ENCODING 444
SWIDTH 468 0
DWIDTH 13 0
BBX 13 17 2 0
BITMAP
1FF8
1FF8
0600
0C00
0C00
0C00
1C00
1F80
03E0
00E0
0060
0060
0060
00E0
01C0
FFC0
FF00
ENDCHAR
STARTCHAR 01BD
ENCODING 445
SWIDTH 468 0
DWIDTH 13 0
BBX 11 13 3 0
BITMAP
3FE0
7FE0
1800
1800
3000
3E00
3F80
0180
01C0
01C0
0180
FF80
FE00
ENDCHAR
STARTCHAR 01BE
ENCODING 446
SWIDTH 468 0
DWIDTH 13 0
BBX 11 17 3 0
BITMAP
0600
0E00
0C00
0C00
7FE0
7FE0
1800
1800
1800
1E00
0F80
03C0
00C0
00C0
81C0
FF80
FF00
ENDCHAR
STARTCHAR 01BF
ENCODING 447
SWIDTH 468 0
DWIDTH 13 0
BBX 14 18 0 -5
BITMAP
07F0
0FF8
0C1C
0C0C
0C0C
1C0C
181C
1818
1838
3870
30E0
33C0
3F00
7C00
6000
6000
6000
E000
ENDCHAR
STARTCHAR 01C0
ENCODING 448
SWIDTH 468 0
DWIDTH 13 0
BBX 8 24 4 -5
BITMAP
03
03
07
06
06
06
0E
0C
0C
0C
1C
18
18
18
38
30
30
30
70
60
60
60
E0
C0
ENDCHAR
STARTCHAR 01C1
ENCODING 449
SWIDTH 468 0
DWIDTH 13 0
BBX 12 24 2 -5
BITMAP
0630
0630
0630
0630
0E60
0C60
0C60
0C60
1CE0
18C0
18C0
18C0
39C0
3180
3180
3180
7380
6300
6300
6300
E700
C600
C600
C600
ENDCHAR
STARTCHAR 01C2
ENCODING 450
SWIDTH 468 0
DWIDTH 13 0
BBX 14 24 1 -5
BITMAP
0060
0060
00C0
00C0
00C0
00C0
0180
0180
3FFC
3FFC
0380
0300
0300
7FF8
FFF0
0600
0600
0600
0E00
0C00
0C00
0C00
1C00
1800
ENDCHAR
STARTCHAR 01C3
ENCODING 451
SWIDTH 468 0
DWIDTH 13 0
BBX 6 17 5 0
BITMAP
0C
0C
1C
1C
18
18
38
38
30
30
30
00
00
00
E0
E0
E0
ENDCHAR
STARTCHAR 01C4
ENCODING 452
SWIDTH 468 0
DWIDTH 13 0
BBX 18 23 1 0
BITMAP
000800
0008C0
000D00
000600
000000
000000
1F1F00
1F9F00
198600
198600
198C00
318C00
319800
319800
333000
633000
636000
676000
66C000
CEC000
CC8000
F9F000
F1F000
ENDCHAR
STARTCHAR 01C5
ENCODING 453
SWIDTH 468 0
DWIDTH 13 0
BBX 16 18 1 0
BITMAP
0001
1F0B
1F8C
1980
1980
319E
31BE
3186
338C
6318
6318
6330
6630
6660
CC60
CCC0
F8F8
F1F8
ENDCHAR
STARTCHAR 01C6
ENCODING 454
SWIDTH 468 0
DWIDTH 13 0
BBX 17 19 1 0
BITMAP
00C000
00C880
00CF00
018600
018000
018000
1F9E00
3BBE00
730600
630C00
E31800
C31800
C63000
C63000
C66000
C66000
CCC000
ECF800
7DF800
ENDCHAR
STARTCHAR 01C7
ENCODING 455
SWIDTH 468 0
DWIDTH 13 0
BBX 16 17 0 0
BITMAP
0E03
0C03
0C03
0C07
1C06
1806
1806
180E
380E
300C
300C
300C
701C
6018
6038
7EF0
FCE0
ENDCHAR
STARTCHAR 01C8
ENCODING 456
SWIDTH 468 0
DWIDTH 13 0
BBX 15 23 1 -5
BITMAP
000E
0C0E
1C0E
1800
1800
181C
381C
3018
3018
3038
7038
6030
6030
6030
E070
C060
FE60
FC60
00E0
00C0
09C0
0F80
0E00
ENDCHAR
STARTCHAR 01C9
ENCODING 457
SWIDTH 468 0
DWIDTH 13 0
BBX 12 24 2 -5
BITMAP
0C00
0C70
1C70
1870
1800
1800
38E0
30E0
30C0
30C0
70C0
61C0
6180
6180
E180
E380
E300
7300
2300
0700
0600
4E00
7C00
7000
ENDCHAR
STARTCHAR 01CA
ENCODING 458
SWIDTH 468 0
DWIDTH 13 0
BBX 16 17 0 0
BITMAP
0C63
0C63
0C43
0CC3
1CC6
1CC6
1686
1686
3786
378C
378C
270C
670C
6718
6718
46F0
C6E0
ENDCHAR
STARTCHAR 01CB
ENCODING 459
SWIDTH 468 0
DWIDTH 13 0
BBX 16 23 1 -5
BITMAP
0007
0CCF
1CC6
1CC0
1C80
1D8C
3D8C
3D8C
2D1C
2D18
6F18
6F18
6F18
4E30
CE30
CE30
CE30
8C60
0060
0060
04C0
07C0
0600
ENDCHAR
STARTCHAR 01CC
ENCODING 460
SWIDTH 468 0
DWIDTH 13 0
BBX 16 23 1 -5
BITMAP
0007
000F
0006
0000
0000
1F0C
3F8C
318C
319C
3198
7398
6318
6318
6330
6330
C630
C630
C660
0060
0060
04C0
07C0
0600
ENDCHAR
STARTCHAR 01CD
ENCODING 461
SWIDTH 468 0
DWIDTH 13 0
BBX 14 23 0 0
BITMAP
00C4
00CC
0078
0030
0020
0000
0070
00F0
01F0
01B0
0330
0330
0638
0638
0C38
1C18
1818
3FF8
3FF8
7018
6018
E018
C018
ENDCHAR
STARTCHAR 01CE
ENCODING 462
SWIDTH 468 0
DWIDTH 13 0
BBX 12 19 2 0
BITMAP
0310
03B0
01E0
00C0
0000
0000
07F0
1FF0
3C30
7070
6060
E060
E060
C0E0
C0C0
C0C0
E1C0
7FC0
7EC0
ENDCHAR
STARTCHAR 01CF
ENCODING 463
SWIDTH 468 0
DWIDTH 13 0
BBX 13 23 2 0
BITMAP
0110
03B0
01E0
00C0
0000
0000
0FF8
0FF8
0180
0180
0380
0300
0300
0300
0700
0600
0600
0600
0E00
0C00
0C00
FF80
FF80
ENDCHAR
STARTCHAR 01D0
ENCODING 464
SWIDTH 468 0
DWIDTH 13 0
BBX 9 19 4 0
BITMAP
1180
1B00
0E00
0C00
0000
0000
FC00
FC00
1C00
1800
1800
1800
3800
3000
3000
3000
3000
3F00
1F00
ENDCHAR
STARTCHAR 01D1
ENCODING 465
SWIDTH 468 0
DWIDTH 13 0
BBX 13 23 2 0
BITMAP
0100
01B8
01E0
00C0
0000
0080
07F0
0F70
1C38
3818
3018
7018
6018
6038
6038
E030
E030
E070
E060
E0E0
61C0
7F80
3F00
ENDCHAR
STARTCHAR 01D2
ENCODING 466
SWIDTH 468 0
DWIDTH 13 0
BBX 12 19 2 0
BITMAP
0230
0360
01C0
0180
0000
0000
07C0
1FE0
3870
3030
7030
6030
E070
E070
E060
E0E0
E1C0
7F80
3F00
ENDCHAR
STARTCHAR 01D3
ENCODING 467
SWIDTH 468 0
DWIDTH 13 0
BBX 14 23 2 0
BITMAP
0110
01B0
01E0
00C0
0000
0000
180C
181C
3818
3818
3018
3038
7030
7030
6030
6070
6060
E060
E060
E0E0
61C0
7F80
3F00
ENDCHAR
STARTCHAR 01D4
ENCODING 468
SWIDTH 468 0
DWIDTH 13 0
BBX 12 19 2 0
BITMAP
0620
0360
03C0
0180
0000
0000
3030
3030
3070
7070
7060
6060
60E0
60E0
E0C0
E0C0
E1C0
7FC0
3EC0
ENDCHAR
STARTCHAR 01D5
ENCODING 469
SWIDTH 468 0
DWIDTH 13 0
BBX 14 23 2 0
BITMAP
03F8
03F8
0210
0738
0630
0000
180C
181C
3818
3818
3018
3038
7030
7030
6030
6070
6060
E060
E060
E0E0
61C0
7F80
3F00
ENDCHAR
STARTCHAR 01D6
ENCODING 470
SWIDTH 468 0
DWIDTH 13 0
BBX 12 20 2 0
BITMAP
03F0
07F0
0000
0E70
0E70
0000
0000
3030
3030
3070
7070
7060
6060
60E0
60E0
E0C0
E0C0
E1C0
7FC0
3EC0
ENDCHAR
STARTCHAR 01D7
ENCODING 471
SWIDTH 468 0
DWIDTH 13 0
BBX 14 23 2 0
BITMAP
0040
0060
06D8
0E9C
0418
0000
180C
181C
3818
3818
3018
3038
7030
7030
6030
6070
6060
E060
E060
E0E0
61C0
7F80
3F00
ENDCHAR
STARTCHAR 01D8
ENCODING 472
SWIDTH 468 0
DWIDTH 13 0
BBX 12 21 2 0
BITMAP
0040
00E0
00C0
0180
0E70
0E70
0000
0000
3030
3030
3070
7070
7060
6060
60E0
60E0
E0C0
E0C0
E1C0
7FC0
3EC0
ENDCHAR
STARTCHAR 01D9
ENCODING 473
SWIDTH 468 0
DWIDTH 13 0
BBX 14 23 2 0
BITMAP
0120
01E0
06D8
0E1C
0418
0000
180C
181C
3818
3818
3018
3038
7030
7030
6030
6070
6060
E060
E060
E0E0
61C0
7F80
3F00
ENDCHAR
STARTCHAR 01DA
ENCODING 474
SWIDTH 468 0
DWIDTH 13 0
BBX 12 21 2 0
BITMAP
0200
0360
01C0
0080
0E70
0E70
0000
0000
3030
3030
3070
7070
7060
6060
60E0
60E0
E0C0
E0C0
E1C0
7FC0
3EC0
ENDCHAR
STARTCHAR 01DB
ENCODING 475
SWIDTH 468 0
DWIDTH 13 0
BBX 14 23 2 0
BITMAP
0080
0180
06D8
0E5C
0418
0000
180C
181C
3818
3818
3018
3038
7030
7030
6030
6070
6060
E060
E060
E0E0
61C0
7F80
3F00
ENDCHAR
STARTCHAR 01DC
ENCODING 476
SWIDTH 468 0
DWIDTH 13 0
BBX 12 21 2 0
BITMAP
0300
0300
0180
0180
0E70
0E70
0000
0000
3030
3030
3070
7070
7060
6060
60E0
60E0
E0C0
E0C0
E1C0
7FC0
3EC0
ENDCHAR
STARTCHAR 01DD
ENCODING 477
SWIDTH 468 0
DWIDTH 13 0
BBX 12 13 2 0
BITMAP
1FC0
3FE0
2070
0030
0030
07F0
3FF0
7870
E060
E0E0
E1C0
7F80
7F00
ENDCHAR
STARTCHAR 01DE
ENCODING 478
SWIDTH 468 0
DWIDTH 13 0
BBX 15 23 0 0
BITMAP
00FE
00FC
0084
01CE
018C
0000
0070
00F0
00F0
01B0
03B0
0330
0630
0630
0C38
0C18
1818
3FF8
3FF8
7018
6018
E018
C018
ENDCHAR
STARTCHAR 01DF
ENCODING 479
SWIDTH 468 0
DWIDTH 13 0
BBX 13 20 2 0
BITMAP
03F8
03F0
0000
0630
0630
0000
0000
07F0
1FF0
3C30
7070
6060
E060
E060
C0E0
C0C0
C0C0
E1C0
7FC0
7EC0
ENDCHAR
STARTCHAR 01E0
ENCODING 480
SWIDTH 468 0
DWIDTH 13 0
BBX 15 23 0 0
BITMAP
00FE
00FE
0030
0030
0030
0000
0070
00F0
00F0
01B0
03B0
0330
0630
0630
0C38
0C18
1818
3FF8
3FF8
7018
6018
E018
C018
ENDCHAR
STARTCHAR 01E1
ENCODING 481
SWIDTH 468 0
DWIDTH 13 0
BBX 13 20 2 0
BITMAP
03F8
03F0
0000
01C0
01C0
0000
0000
07F0
1FF0
3C30
7070
6060
E060
E060
C0E0
C0C0
C0C0
E1C0
7FC0
7EC0
ENDCHAR
STARTCHAR 01E2
ENCODING 482
SWIDTH 468 0
DWIDTH 13 0
BBX 17 22 0 0
BITMAP
003F80
003F80
000000
000000
000000
007F80
005F00
00F800
01B000
01B000
033000
037000
067C00
067C00
0C6000
1CE000
1FC000
3FC000
30C000
71C000
61F800
E1F800
ENDCHAR
STARTCHAR 01E3
ENCODING 483
SWIDTH 468 0
DWIDTH 13 0
BBX 14 18 1 0
BITMAP
03F8
03F8
0000
0000
0000
1E38
1F7C
03CC
038C
038C
0F18
3FF0
73E0
6300
E700
E780
FDF0
79F0
ENDCHAR
STARTCHAR 01E4
ENCODING 484
SWIDTH 468 0
DWIDTH 13 0
BBX 13 18 2 0
BITMAP
0040
07F8
0F78
1C00
3800
3000
7000
6000
6000
E060
E060
E1F0
E3F0
E0C0
E0C0
70C0
7FC0
3F80
ENDCHAR
STARTCHAR 01E5
ENCODING 485
SWIDTH 468 0
DWIDTH 13 0
BBX 14 18 1 -5
BITMAP
03F8
07F8
0E38
1C38
3830
31FC
31FC
7070
7060
7060
3BE0
3FE0
00C0
00C0
01C0
C780
FF00
3800
ENDCHAR
STARTCHAR 01E6
ENCODING 486
SWIDTH 468 0
DWIDTH 13 0
BBX 13 23 2 0
BITMAP
0088
01D8
00F0
0060
0000
00C0
03F8
0FB8
1C00
3800
3000
7000
6000
6000
E000
E070
E060
E060
E060
E0E0
70C0
7FC0
3FC0
ENDCHAR
STARTCHAR 01E7
ENCODING 487
SWIDTH 468 0
DWIDTH 13 0
BBX 14 24 1 -5
BITMAP
0084
00DC
0078
0060
0000
0000
01FC
07F8
0E18
1C18
3838
3030
3030
7030
7030
7060
39E0
3FE0
0060
00C0
01C0
C380
FF00
3800
ENDCHAR
STARTCHAR 01E8
ENCODING 488
SWIDTH 468 0
DWIDTH 13 0
BBX 15 23 1 0
BITMAP
0108
0198
00F0
0060
0040
0000
0C0E
0C1C
0C38
1C70
1CE0
19C0
1B80
1E00
3E00
3700
3380
3180
71C0
60C0
60E0
6060
E070
ENDCHAR
STARTCHAR 01E9
ENCODING 489
SWIDTH 468 0
DWIDTH 13 0
BBX 13 23 2 0
BITMAP
0440
07C0
0300
0000
0000
0C00
0C00
1C00
1C00
1800
1838
3870
38E0
3380
3700
3E00
7E00
6600
6700
6380
E180
C1C0
C0C0
ENDCHAR
STARTCHAR 01EA
ENCODING 490
SWIDTH 468 0
DWIDTH 13 0
BBX 13 23 2 -5
BITMAP
0180
07E0
0F70
1C38
3838
3018
7018
6018
6038
E030
E030
C030
C070
C060
E0E0
E1C0
7F80
3F00
0C00
1800
3000
3C00
0C00
ENDCHAR
STARTCHAR 01EB
ENCODING 491
SWIDTH 468 0
DWIDTH 13 0
BBX 12 18 2 -5
BITMAP
07C0
1FE0
3870
3030
7030
6030
E070
E070
E060
E0E0
E1C0
7F80
3F00
0C00
1800
3800
3C00
0C00
ENDCHAR
STARTCHAR 01EC
ENCODING 492
SWIDTH 468 0
DWIDTH 13 0
BBX 13 27 2 -5
BITMAP
03F8
03F8
0000
0000
0180
07E0
0F70
1C38
3838
3018
7018
6018
6038
E030
E030
C030
C070
C060
E0E0
E1C0
7F80
3F00
0C00
1800
3000
3C00
0C00
ENDCHAR
STARTCHAR 01ED
ENCODING 493
SWIDTH 468 0
DWIDTH 13 0
BBX 12 23 2 -5
BITMAP
07F0
07F0
0000
0000
0000
07C0
1FE0
3870
3030
7030
6030
E070
E070
E060
E0E0
E1C0
7F80
3F00
0C00
1800
3800
3C00
0C00
ENDCHAR
STARTCHAR 01EE
ENCODING 494
SWIDTH 468 0
DWIDTH 13 0
BBX 15 23 1 0
BITMAP
0088
00D8
00F0
0060
0000
0000
0FFE
0FFC
0018
0030
0060
00C0
0380
03C0
07E0
0070
0030
0030
0030
0030
0060
FFE0
7F80
ENDCHAR
STARTCHAR 01EF
ENCODING 495
SWIDTH 468 0
DWIDTH 13 0
BBX 13 24 1 -5
BITMAP
0118
01B0
00E0
00C0
0000
0000
0FF8
0FF8
0030
0060
00C0
0180
0700
0E00
0FC0
01C0
00E0
0060
0060
00E0
01C0
E7C0
FF00
1000
ENDCHAR
STARTCHAR 01F0
ENCODING 496
SWIDTH 468 0
DWIDTH 13 0
BBX 14 24 1 -5
BITMAP
008C
00D8
0070
0060
0000
0000
07F0
0FF0
0070
0060
0060
0060
00E0
00C0
00C0
00C0
01C0
01C0
0180
0180
0380
C700
FE00
3800
ENDCHAR
STARTCHAR 01F1
ENCODING 497
SWIDTH 468 0
DWIDTH 13 0
BBX 16 17 1 0
BITMAP
1F1F
1F9F
1986
1986
198C
318C
3198
3198
3330
6330
6360
6760
66C0
CEC0
CC80
F9F0
F1F0
ENDCHAR
STARTCHAR 01F2
ENCODING 498
SWIDTH 468 0
DWIDTH 13 0
BBX 15 17 1 0
BITMAP
1F00
1F80
1980
1980
319E
31BE
3186
338C
6318
6318
6330
6630
6660
CC60
CCC0
F8F8
F1F8
ENDCHAR
STARTCHAR 01F3
ENCODING 499
SWIDTH 468 0
DWIDTH 13 0
BBX 15 19 1 0
BITMAP
00C0
00C0
00C0
0180
0180
0180
1F9E
3BBE
7306
630C
E318
C318
C630
C630
C660
C660
CCC0
ECF8
7DF8
ENDCHAR
STARTCHAR 01F4
ENCODING 500
SWIDTH 468 0
DWIDTH 13 0
BBX 13 23 2 0
BITMAP
0020
0070
00E0
01C0
0080
00C0
03F8
0FB8
1C00
3800
3000
7000
6000
6000
E000
E070
E060
E060
E060
E0E0
70C0
7FC0
3FC0
ENDCHAR
STARTCHAR 01F5
ENCODING 501
SWIDTH 468 0
DWIDTH 13 0
BBX 14 24 1 -5
BITMAP
0010
0038
0070
00E0
0000
0000
01FC
07F8
0E18
1C18
3838
3030
3030
7030
7030
7060
39E0
3FE0
0060
00C0
01C0
C380
FF00
3800
ENDCHAR
STARTCHAR 01F6
ENCODING 502
SWIDTH 468 0
DWIDTH 13 0
BBX 14 17 1 0
BITMAP
1CE0
18C0
18C0
18C0
39CC
318C
318C
3F8C
3F98
6318
6318
6318
6330
E730
C630
C7E0
C3E0
ENDCHAR
STARTCHAR 01F7
ENCODING 503
SWIDTH 468 0
DWIDTH 13 0
BBX 14 22 1 -5
BITMAP
07F0
0FF8
0C1C
0C0C
0C0C
1C0C
180C
181C
1818
3838
3030
3070
30E0
73C0
6F00
7E00
7000
E000
C000
C000
C000
C000
ENDCHAR
STARTCHAR 01F8
ENCODING 504
SWIDTH 468 0
DWIDTH 13 0
BBX 15 23 1 0
BITMAP
0080
01C0
00C0
0060
0020
0000
0E06
0E06
0E0C
1B0C
1B0C
1B0C
1B18
3198
3198
3198
31B8
70B0
60F0
60F0
60F0
E0E0
C060
ENDCHAR
STARTCHAR 01F9
ENCODING 505
SWIDTH 468 0
DWIDTH 13 0
BBX 12 19 2 0
BITMAP
0200
0300
0180
01C0
0080
0000
1FC0
3FE0
3870
3070
3070
3070
7060
6060
6060
60E0
E0C0
C0C0
C0C0
ENDCHAR
STARTCHAR 01FA
ENCODING 506
SWIDTH 468 0
DWIDTH 13 0
BBX 13 23 0 0
BITMAP
0008
0038
0060
0020
0070
0088
00D8
0070
00F0
01B0
01B0
0330
0230
0638
0C18
0C18
1818
1FF8
3FF8
3018
6018
6018
C018
ENDCHAR
STARTCHAR 01FB
ENCODING 507
SWIDTH 468 0
DWIDTH 13 0
BBX 12 23 2 0
BITMAP
0010
0070
00E0
0080
00C0
0120
0120
01E0
00C0
0000
07F0
1FF0
3C30
7070
6060
E060
E060
C0E0
C0C0
C0C0
E1C0
7FC0
7EC0
ENDCHAR
STARTCHAR 01FC
ENCODING 508
SWIDTH 468 0
DWIDTH 13 0
BBX 17 23 0 0
BITMAP
000200
000700
000E00
001C00
000800
000000
007F80
005F00
00F800
01B000
01B000
033000
037000
067C00
067C00
0C6000
1CE000
1FC000
3FC000
30C000
71C000
61F800
E1F800
ENDCHAR
STARTCHAR 01FD
ENCODING 509
SWIDTH 468 0
DWIDTH 13 0
BBX 14 19 1 0
BITMAP
0010
0038
0060
00C0
0080
0000
1E38
1F7C
03CC
038C
038C
0F18
3FF0
73E0
6300
E700
E780
FDF0
79F0
ENDCHAR
STARTCHAR 01FE
ENCODING 510
SWIDTH 468 0
DWIDTH 13 0
BBX 14 24 1 -1
BITMAP
0020
0070
00E0
01C0
0100
0044
03FC
0738
0C18
1C3C
186C
38EC
30DC
319C
7318
6718
6618
6C30
7830
7860
70E0
7FC0
FF80
4000
ENDCHAR
STARTCHAR 01FF
ENCODING 511
SWIDTH 468 0
DWIDTH 13 0
BBX 14 19 1 -1
BITMAP
0020
0070
00E0
0180
0000
0004
03EC
0FF8
1C38
1878
30D8
3198
7318
7638
6C30
7870
70E0
7FC0
DF80
ENDCHAR
STARTCHAR 0200
ENCODING 512
SWIDTH 468 0
DWIDTH 13 0
BBX 14 23 0 0
BITMAP
0110
03B8
0198
00CC
0044
0000
0070
00F0
01F0
01B0
0330
0330
0638
0638
0C38
1C18
1818
3FF8
3FF8
7018
6018
E018
C018
ENDCHAR
STARTCHAR 0201
ENCODING 513
SWIDTH 468 0
DWIDTH 13 0
BBX 12 19 2 0
BITMAP
0C40
0CC0
0660
0620
0220
0000
07F0
1FF0
3C30
7070
6060
E060
E060
C0E0
C0C0
C0C0
E1C0
7FC0
7EC0
ENDCHAR
STARTCHAR 0202
ENCODING 514
SWIDTH 468 0
DWIDTH 13 0
BBX 14 23 0 0
BITMAP
0010
007C
00CC
0184
0000
0000
0070
00F0
01F0
01B0
0330
0330
0638
0638
0C38
1C18
1818
3FF8
3FF8
7018
6018
E018
C018
ENDCHAR
STARTCHAR 0203
ENCODING 515
SWIDTH 468 0
DWIDTH 13 0
BBX 12 19 2 0
BITMAP
0080
03E0
0630
0630
0000
0000
07F0
1FF0
3C30
7070
6060
E060
E060
C0E0
C0C0
C0C0
E1C0
7FC0
7EC0
ENDCHAR
STARTCHAR 0204
ENCODING 516
SWIDTH 468 0
DWIDTH 13 0
BBX 14 23 2 0
BITMAP
0220
0660
0330
0310
0110
0000
0FFC
0FF8
1C00
1C00
1800
1800
1800
3FE0
3FE0
3000
3000
7000
6000
6000
6000
FFE0
FFC0
ENDCHAR
STARTCHAR 0205
ENCODING 517
SWIDTH 468 0
DWIDTH 13 0
BBX 12 19 2 0
BITMAP
0C40
0CC0
0660
0620
0220
0000
07E0
1FF0
3870
7030
6070
E0E0
FFC0
FF00
C000
C000
E000
7FC0
3FC0
ENDCHAR
STARTCHAR 0206
ENCODING 518
SWIDTH 468 0
DWIDTH 13 0
BBX 14 23 2 0
BITMAP
0020
01F0
0318
0318
0000
0000
0FFC
0FF8
1C00
1C00
1800
1800
1800
3FE0
3FE0
3000
3000
7000
6000
6000
6000
FFE0
FFC0
ENDCHAR
STARTCHAR 0207
ENCODING 519
SWIDTH 468 0
DWIDTH 13 0
BBX 12 19 2 0
BITMAP
00C0
03E0
0620
0630
0000
0000
07E0
1FF0
3870
7030
6070
E0E0
FFC0
FF00
C000
C000
E000
7FC0
3FC0
ENDCHAR
STARTCHAR 0208
ENCODING 520
SWIDTH 468 0
DWIDTH 13 0
BBX 13 23 2 0
BITMAP
0440
0EE0
0660
0330
0110
0000
0FF8
0FF8
0180
0180
0380
0300
0300
0300
0700
0600
0600
0600
0E00
0C00
0C00
FF80
FF80
ENDCHAR
STARTCHAR 0209
ENCODING 521
SWIDTH 468 0
DWIDTH 13 0
BBX 8 19 4 0
BITMAP
22
66
33
31
11
00
FC
FC
1C
18
18
18
38
30
30
30
30
3F
1F
ENDCHAR
STARTCHAR 020A
ENCODING 522
SWIDTH 468 0
DWIDTH 13 0
BBX 13 23 2 0
BITMAP
0040
01F0
0330
0210
0000
0000
0FF8
0FF8
0180
0180
0380
0300
0300
0300
0700
0600
0600
0600
0E00
0C00
0C00
FF80
FF80
ENDCHAR
STARTCHAR 020B
ENCODING 523
SWIDTH 468 0
DWIDTH 13 0
BBX 9 19 4 0
BITMAP
0600
1F00
3100
3180
0000
0000
FC00
FC00
1C00
1800
1800
1800
3800
3000
3000
3000
3000
3F00
1F00
ENDCHAR
STARTCHAR 020C
ENCODING 524
SWIDTH 468 0
DWIDTH 13 0
BBX 13 23 2 0
BITMAP
0460
0660
0770
0330
0110
0080
07F0
0F70
1C38
3818
3018
7018
6018
6038
6038
E030
E030
E070
E060
E0E0
61C0
7F80
3F00
ENDCHAR
STARTCHAR 020D
ENCODING 525
SWIDTH 468 0
DWIDTH 13 0
BBX 12 19 2 0
BITMAP
08C0
0CC0
0E60
0660
0220
0000
07C0
1FE0
3870
3030
7030
6030
E070
E070
E060
E0E0
E1C0
7F80
3F00
ENDCHAR
STARTCHAR 020E
ENCODING 526
SWIDTH 468 0
DWIDTH 13 0
BBX 13 23 2 0
BITMAP
0040
01F0
0310
0310
0000
0080
07F0
0F70
1C38
3818
3018
7018
6018
6038
6038
E030
E030
E070
E060
E0E0
61C0
7F80
3F00
ENDCHAR
STARTCHAR 020F
ENCODING 527
SWIDTH 468 0
DWIDTH 13 0
BBX 12 19 2 0
BITMAP
00C0
03E0
0620
0630
0000
0000
07C0
1FE0
3870
3030
7030
6030
E070
E070
E060
E0E0
E1C0
7F80
3F00
ENDCHAR
STARTCHAR 0210
ENCODING 528
SWIDTH 468 0
DWIDTH 13 0
BBX 14 23 1 0
BITMAP
0220
0660
0330
0310
0110
0000
0FF0
0FF8
0C1C
1C1C
1C1C
1818
1818
3838
3FF0
3FC0
3180
30C0
70C0
60E0
6060
6060
E060
ENDCHAR
STARTCHAR 0211
ENCODING 529
SWIDTH 468 0
DWIDTH 13 0
BBX 11 19 3 0
BITMAP
1880
1980
0CC0
0C40
0440
0000
1FE0
3FE0
3000
3000
3000
7000
6000
6000
6000
E000
C000
C000
C000
ENDCHAR
STARTCHAR 0212
ENCODING 530
SWIDTH 468 0
DWIDTH 13 0
BBX 14 23 1 0
BITMAP
0020
00F8
0198
0108
0000
0000
0FF0
0FF8
0C1C
1C1C
1C1C
1818
1818
3838
3FF0
3FC0
3180
30C0
70C0
60E0
6060
6060
E060
ENDCHAR
STARTCHAR 0213
ENCODING 531
SWIDTH 468 0
DWIDTH 13 0
BBX 11 19 3 0
BITMAP
0100
07C0
0C60
0C60
0000
0000
1FE0
3FE0
3000
3000
3000
7000
6000
6000
6000
E000
C000
C000
C000
ENDCHAR
STARTCHAR 0214
ENCODING 532
SWIDTH 468 0
DWIDTH 13 0
BBX 14 23 2 0
BITMAP
0440
0EE0
0660
0330
0110
0000
180C
181C
3818
3818
3018
3038
7030
7030
6030
6070
6060
E060
E060
E0E0
61C0
7F80
3F00
ENDCHAR
STARTCHAR 0215
ENCODING 533
SWIDTH 468 0
DWIDTH 13 0
BBX 12 19 2 0
BITMAP
08C0
0CC0
0E60
0660
0220
0000
3030
3030
3070
7070
7060
6060
60E0
60E0
E0C0
E0C0
E1C0
7FC0
3EC0
ENDCHAR
STARTCHAR 0216
ENCODING 534
SWIDTH 468 0
DWIDTH 13 0
BBX 14 23 2 0
BITMAP
0040
01F0
0330
0210
0000
0000
180C
181C
3818
3818
3018
3038
7030
7030
6030
6070
6060
E060
E060
E0E0
61C0
7F80
3F00
ENDCHAR
STARTCHAR 0217
ENCODING 535
SWIDTH 468 0
DWIDTH 13 0
BBX 12 19 2 0
BITMAP
00C0
03E0
0620
0420
0000
0000
3030
3030
3070
7070
7060
6060
60E0
60E0
E0C0
E0C0
E1C0
7FC0
3EC0
ENDCHAR
STARTCHAR 0218
ENCODING 536
SWIDTH 468 0
DWIDTH 13 0
BBX 13 23 2 -5
BITMAP
00C0
07F8
0F78
1C00
1800
1800
1800
1C00
0F00
0780
01C0
00E0
0060
0060
00E0
80C0
FFC0
FF00
0000
1800
3800
F000
E000
ENDCHAR
STARTCHAR 0219
ENCODING 537
SWIDTH 468 0
DWIDTH 13 0
BBX 11 18 3 -5
BITMAP
0FE0
3FC0
3000
3000
3000
3C00
1F00
0780
0180
0180
0180
FF80
FE00
0000
3800
3000
F000
C000
ENDCHAR
STARTCHAR 021A
ENCODING 538
SWIDTH 468 0
DWIDTH 13 0
BBX 14 22 2 -5
BITMAP
1FFC
3FFC
0180
0380
0380
0300
0300
0300
0700
0600
0600
0600
0E00
0C00
0C00
0C00
1C00
0000
1800
3800
7000
E000
ENDCHAR
STARTCHAR 021B
ENCODING 539
SWIDTH 468 0
DWIDTH 13 0
BBX 10 22 4 -5
BITMAP
0C00
0C00
1C00
1800
FFC0
FFC0
3800
3000
3000
3000
7000
7000
6000
6000
7000
7F00
3F00
0000
1800
3800
F000
E000
ENDCHAR
STARTCHAR 021C
ENCODING 540
SWIDTH 468 0
DWIDTH 13 0
BBX 16 23 -1 -5
BITMAP
0040
07FC
079E
0006
0007
0007
0006
000E
001C
00F8
03E0
07F8
0038
001C
000C
000C
001C
0018
0038
00F0
0FE0
7F80
E000
ENDCHAR
STARTCHAR 021D
ENCODING 541
SWIDTH 468 0
DWIDTH 13 0
BBX 12 18 1 -5
BITMAP
1FE0
1FF0
0030
0030
0030
0070
00E0
0FC0
0FC0
00E0
0060
0060
0060
00E0
01C0
1F80
FE00
8000
ENDCHAR
STARTCHAR 021E
ENCODING 542
SWIDTH 468 0
DWIDTH 13 0
BBX 15 23 1 0
BITMAP
0088
01D8
00F0
0060
0000
0000
0C06
0C0E
1C0C
1C0C
180C
181C
3818
3FF8
3FF8
3038
3030
7030
6030
6070
6070
E060
C060
ENDCHAR
STARTCHAR 021F
ENCODING 543
SWIDTH 468 0
DWIDTH 13 0
BBX 12 23 1 0
BITMAP
0440
07C0
0380
0000
0000
0E00
0E00
0C00
0C00
1C00
1FE0
1FF0
1870
1830
3830
3030
3030
3070
7060
6060
6060
60E0
E0C0
ENDCHAR
STARTCHAR 0220
ENCODING 544
SWIDTH 468 0
DWIDTH 13 0
BBX 14 23 1 -5
BITMAP
0040
0FF8
0F7C
1C1C
1C0C
180C
181C
181C
3818
3018
3018
3038
7030
6030
6030
6070
E060
C060
0060
00E0
00C0
00C0
00C0
ENDCHAR
STARTCHAR 0221
ENCODING 545
SWIDTH 468 0
DWIDTH 13 0
BBX 13 24 1 -5
BITMAP
0030
0070
0060
0060
0060
00E0
0FC0
1FC0
38C0
31C0
6180
6180
6180
E380
E300
E300
E300
7FF0
3F38
0618
0E18
1F30
33E0
0080
ENDCHAR
STARTCHAR 0222
ENCODING 546
SWIDTH 468 0
DWIDTH 13 0
BBX 13 17 2 0
BITMAP
0C18
0C18
1838
1838
1830
1870
1CE0
0FC0
3FE0
7070
E030
C030
C070
C060
E0E0
FFC0
3F00
ENDCHAR
STARTCHAR 0223
ENCODING 547
SWIDTH 468 0
DWIDTH 13 0
BBX 13 19 2 0
BITMAP
0C18
0C18
1C18
1818
1818
1830
1C70
0FE0
1FC0
38E0
7070
6070
E070
C070
C060
E0E0
E1C0
7FC0
3F00
ENDCHAR
STARTCHAR 0224
ENCODING 548
SWIDTH 468 0
DWIDTH 13 0
BBX 15 22 1 -5
BITMAP
0FFE
0FFE
001C
0038
0070
00E0
01C0
0180
0300
0600
0E00
1C00
3800
3000
6000
FFE0
FFE0
0060
00E0
00C0
07C0
0200
ENDCHAR
STARTCHAR 0225
ENCODING 549
SWIDTH 468 0
DWIDTH 13 0
BBX 12 18 2 -5
BITMAP
1FF0
1FF0
00E0
01C0
0380
0700
0E00
1C00
3800
7000
6000
FFC0
FF80
0180
0180
0380
1F00
0C00
ENDCHAR
STARTCHAR 0226
ENCODING 550
SWIDTH 468 0
DWIDTH 13 0
BBX 13 22 0 0
BITMAP
0030
0030
0030
0000
0000
0070
00F0
01F0
01B0
0330
0330
0638
0638
0C38
1C18
1818
3FF8
3FF8
7018
6018
E018
C018
ENDCHAR
STARTCHAR 0227
ENCODING 551
SWIDTH 468 0
DWIDTH 13 0
BBX 12 18 2 0
BITMAP
00C0
01C0
0080
0000
0000
07F0
1FF0
3C30
7070
6060
E060
E060
C0E0
C0C0
C0C0
E1C0
7FC0
7EC0
ENDCHAR
STARTCHAR 0228
ENCODING 552
SWIDTH 468 0
DWIDTH 13 0
BBX 13 22 2 -5
BITMAP
1FF8
1FF8
1800
1800
3800
3800
3000
3FE0
3FC0
7000
6000
6000
6000
E000
C000
FFC0
FFC0
0C00
0C00
0600
3C00
3800
ENDCHAR
STARTCHAR 0229
ENCODING 553
SWIDTH 468 0
DWIDTH 13 0
BBX 12 18 2 -5
BITMAP
07E0
1FF0
3870
7030
6070
E0E0
FFC0
FF00
C000
C000
E000
7FC0
3FC0
0C00
0C00
0600
3C00
3800
ENDCHAR
STARTCHAR 022A
ENCODING 554
SWIDTH 468 0
DWIDTH 13 0
BBX 13 23 2 0
BITMAP
03F8
03F8
0210
0738
0630
0000
03E0
0FF0
1C38
1838
3818
3018
7018
6018
6038
E030
E030
E070
E060
E0E0
61C0
7F80
3F00
ENDCHAR
STARTCHAR 022B
ENCODING 555
SWIDTH 468 0
DWIDTH 13 0
BBX 13 20 2 0
BITMAP
03F8
03F0
0000
0630
0630
0000
0000
07C0
1FE0
3870
3030
7030
6030
E070
E070
E060
E0E0
E1C0
7F80
3F00
ENDCHAR
STARTCHAR 022C
ENCODING 556
SWIDTH 468 0
DWIDTH 13 0
BBX 13 23 2 0
BITMAP
01F8
03F8
0000
03F8
0470
0000
03E0
0FF0
1C38
1838
3818
3018
7018
6018
6038
E030
E030
E070
E060
E0E0
61C0
7F80
3F00
ENDCHAR
STARTCHAR 022D
ENCODING 557
SWIDTH 468 0
DWIDTH 13 0
BBX 13 20 2 0
BITMAP
03F8
03F0
0000
0398
06F0
0000
0000
07C0
1FE0
3870
3030
7030
6030
E070
E070
E060
E0E0
E1C0
7F80
3F00
ENDCHAR
STARTCHAR 022E
ENCODING 558
SWIDTH 468 0
DWIDTH 13 0
BBX 13 22 2 0
BITMAP
0060
00E0
00E0
0000
0080
07F0
0F70
1C38
3818
3018
7018
6018
6038
6038
E030
E030
E070
E060
E0E0
61C0
7F80
3F00
ENDCHAR
STARTCHAR 022F
ENCODING 559
SWIDTH 468 0
DWIDTH 13 0
BBX 12 18 2 0
BITMAP
01C0
01C0
0080
0000
0000
07C0
1FE0
3870
3030
7030
6030
E070
E070
E060
E0E0
E1C0
7F80
3F00
ENDCHAR
STARTCHAR 0230
ENCODING 560
SWIDTH 468 0
DWIDTH 13 0
BBX 13 23 2 0
BITMAP
01F8
01F8
0040
00E0
00C0
0000
03E0
0FF0
1C38
1838
3818
3018
7018
6018
6038
E030
E030
E070
E060
E0E0
61C0
7F80
3F00
ENDCHAR
STARTCHAR 0231
ENCODING 561
SWIDTH 468 0
DWIDTH 13 0
BBX 12 20 2 0
BITMAP
03F0
03F0
0000
01C0
01C0
0000
0000
07C0
1FE0
3870
3030
7030
6030
E070
E070
E060
E0E0
E1C0
7F80
3F00
ENDCHAR
STARTCHAR 0232
ENCODING 562
SWIDTH 468 0
DWIDTH 13 0
BBX 13 22 4 0
BITMAP
0FE0
0FE0
0000
0000
0000
C038
E030
6070
60E0
60C0
6180
3380
3700
3600
1C00
1800
1800
1800
3800
3000
3000
3000
ENDCHAR
STARTCHAR 0233
ENCODING 563
SWIDTH 468 0
DWIDTH 13 0
BBX 15 23 0 -5
BITMAP
01FC
01FC
0000
0000
0000
0C0E
0C0C
0C0C
0C1C
0E18
0E18
0630
0630
0660
0760
07C0
03C0
0380
0300
0700
9E00
FC00
E000
ENDCHAR
STARTCHAR 0234
ENCODING 564
SWIDTH 468 0
DWIDTH 13 0
BBX 11 24 1 -5
BITMAP
0FC0
0FC0
00C0
01C0
0180
0180
0180
0380
0300
0300
0300
0700
0600
0600
0600
0E00
0E00
0FE0
0E60
1C60
3C60
7CE0
EFC0
4200
ENDCHAR
STARTCHAR 0235
ENCODING 565
SWIDTH 468 0
DWIDTH 13 0
BBX 13 18 1 -5
BITMAP
1F80
3F80
31C0
31C0
3180
7180
6180
6380
6380
E300
C300
C3F0
C738
0618
0E18
1F30
33E0
0180
ENDCHAR
STARTCHAR 0236
ENCODING 566
SWIDTH 468 0
DWIDTH 13 0
BBX 14 22 1 -5
BITMAP
0180
0180
0180
0380
1FFC
1FF8
0300
0700
0600
0600
0600
0E00
0C00
0C00
0C00
1FC0
1CC0
1860
3840
78C0
CF80
0200
ENDCHAR
STARTCHAR 0237
ENCODING 567
SWIDTH 468 0
DWIDTH 13 0
BBX 12 18 1 -5
BITMAP
07F0
0FF0
0070
0060
0060
0060
00E0
00C0
00C0
00C0
01C0
01C0
0180
0180
0380
C700
FE00
3800
ENDCHAR
STARTCHAR 0238
ENCODING 568
SWIDTH 468 0
DWIDTH 13 0
BBX 14 19 1 0
BITMAP
0060
0060
00E0
00C0
00C0
00C0
0FF8
1FF8
399C
318C
618C
631C
6318
E318
E318
C638
E630
6FE0
7FC0
ENDCHAR
STARTCHAR 0239
ENCODING 569
SWIDTH 468 0
DWIDTH 13 0
BBX 14 18 1 -5
BITMAP
0F78
1FF8
399C
318C
638C
631C
6318
E318
E318
E638
E630
6EE0
7FC0
0C00
0C00
0C00
0C00
1800
ENDCHAR
STARTCHAR 023A
ENCODING 570
SWIDTH 468 0
DWIDTH 13 0
BBX 15 21 0 -3
BITMAP
0002
0006
0074
00FC
00F8
01B8
03B0
0338
0638
0678
0CD8
0CD8
1998
1FF8
3FF8
3318
6618
6618
CC18
0C00
0800
ENDCHAR
STARTCHAR 023B
ENCODING 571
SWIDTH 468 0
DWIDTH 13 0
BBX 14 21 2 -3
BITMAP
000C
0078
03FC
07FC
0E60
1860
38C0
30C0
7180
6180
6300
6300
E600
E600
6C00
6C00
7800
3FC0
3FC0
3000
6000
ENDCHAR
STARTCHAR 023C
ENCODING 572
SWIDTH 468 0
DWIDTH 13 0
BBX 12 17 2 -2
BITMAP
0030
0020
07F0
1FF0
3CC0
3080
7180
6100
E300
E200
E600
E400
6C00
7FC0
3FC0
1000
3000
ENDCHAR
STARTCHAR 023D
ENCODING 573
SWIDTH 468 0
DWIDTH 13 0
BBX 9 17 3 0
BITMAP
0C00
1C00
1800
1800
1800
3800
3000
FF00
FF00
7000
6000
6000
6000
E000
C000
FF80
FF80
ENDCHAR
STARTCHAR 023E
ENCODING 574
SWIDTH 468 0
DWIDTH 13 0
BBX 17 19 1 0
BITMAP
000180
1FFF00
1FFE00
00CC00
01D800
01F000
01B000
01E000
01C000
038000
030000
070000
0F0000
1F0000
1E0000
360000
660000
CE0000
800000
ENDCHAR
STARTCHAR 023F
ENCODING 575
SWIDTH 468 0
DWIDTH 13 0
BBX 12 18 2 -5
BITMAP
07F0
1FE0
1800
1800
1800
1E00
0F80
03C0
00C0
00C0
00C0
7FC0
FF00
7000
3000
1C00
1F00
0300
ENDCHAR
STARTCHAR 0240
ENCODING 576
SWIDTH 468 0
DWIDTH 13 0
BBX 12 18 2 -5
BITMAP
1FF0
1FF0
00E0
01C0
0380
0700
0E00
1C00
3800
7000
6000
E000
F000
3800
1C00
0F00
0780
0180
ENDCHAR
STARTCHAR 0241
ENCODING 577
SWIDTH 468 0
DWIDTH 13 0
BBX 11 18 4 0
BITMAP
0400
7FC0
79C0
00E0
00E0
00E0
01C0
0380
0F00
1C00
3800
7000
6000
6000
6000
E000
C000
C000
ENDCHAR
STARTCHAR 0242
ENCODING 578
SWIDTH 468 0
DWIDTH 13 0
BBX 10 13 4 0
BITMAP
7F00
7F80
01C0
01C0
0180
0780
1E00
3C00
7000
6000
6000
6000
E000
ENDCHAR
STARTCHAR 0243
ENCODING 579
SWIDTH 468 0
DWIDTH 13 0
BBX 13 17 2 0
BITMAP
0FF0
0FF8
1C38
1C18
1818
1830
1870
3FC0
3FE0
3060
3070
FE30
FC70
6060
60E0
FFC0
FF00
ENDCHAR
STARTCHAR 0244
ENCODING 580
SWIDTH 468 0
DWIDTH 13 0
BBX 13 17 2 0
BITMAP
1C18
1C18
1818
1838
1830
3830
3030
FFF8
FFF8
7060
6060
60E0
60E0
60C0
61C0
7F80
3F00
ENDCHAR
STARTCHAR 0245
ENCODING 581
SWIDTH 468 0
DWIDTH 13 0
BBX 13 17 0 0
BITMAP
0070
00F0
01F0
01B0
0330
0330
0638
0638
0C38
1C18
1818
3818
3018
7018
6018
E018
C018
ENDCHAR
STARTCHAR 0246
ENCODING 582
SWIDTH 468 0
DWIDTH 13 0
BBX 15 22 2 -3
BITMAP
0004
0006
1FFC
1FF8
1818
1830
3870
3860
30C0
3FE0
3FE0
7300
6300
6600
6E00
EC00
D800
FFE0
FFE0
6000
6000
4000
ENDCHAR
STARTCHAR 0247
ENCODING 583
SWIDTH 468 0
DWIDTH 13 0
BBX 12 17 2 -2
BITMAP
0040
00C0
07E0
1FF0
39B0
3330
6330
6260
FFC0
FE00
CC00
EC00
7800
7FC0
3FC0
3000
2000
ENDCHAR
STARTCHAR 0248
ENCODING 584
SWIDTH 468 0
DWIDTH 13 0
BBX 13 17 2 0
BITMAP
07F8
0FF0
0030
0030
0070
0070
0060
07F8
07F8
00E0
00C0
00C0
01C0
01C0
8380
FF00
FE00
ENDCHAR
STARTCHAR 0249
ENCODING 585
SWIDTH 468 0
DWIDTH 13 0
BBX 14 24 0 -5
BITMAP
0010
0038
0038
0038
0000
0000
07F8
07F0
0030
0030
0070
0FFC
0FF8
0060
00E0
00E0
00C0
00C0
01C0
01C0
0180
6780
FF00
3C00
ENDCHAR
STARTCHAR 024A
ENCODING 586
SWIDTH 468 0
DWIDTH 13 0
BBX 12 23 2 -5
BITMAP
0100
07E0
0EF0
1830
3830
3030
7030
6030
6030
E030
E070
C070
C060
C0E0
E0E0
E1E0
7FC0
3EC0
00C0
01C0
01C0
00E0
0060
ENDCHAR
STARTCHAR 024B
ENCODING 587
SWIDTH 468 0
DWIDTH 13 0
BBX 13 18 2 -5
BITMAP
07F8
0FF0
1C30
3830
7070
6060
E060
E060
E0E0
E0C0
E0C0
7FC0
3FC0
0180
0180
0180
01E0
0060
ENDCHAR
STARTCHAR 024C
ENCODING 588
SWIDTH 468 0
DWIDTH 13 0
BBX 13 17 2 0
BITMAP
0FE0
1FF0
1838
1838
1838
3830
3830
3070
FFE0
FF80
7380
6180
6180
61C0
E0C0
C0C0
C0C0
ENDCHAR
STARTCHAR 024D
ENCODING 589
SWIDTH 468 0
DWIDTH 13 0
BBX 12 13 2 0
BITMAP
0FF0
1FF0
1800
1800
3800
3800
FF80
FF00
3000
7000
6000
6000
6000
ENDCHAR
STARTCHAR 024E
ENCODING 590
SWIDTH 468 0
DWIDTH 13 0
BBX 14 17 3 0
BITMAP
601C
7018
3038
FFFC
FFFC
30C0
19C0
1B80
1B00
0E00
0C00
0C00
0C00
1C00
1800
1800
1800
ENDCHAR
STARTCHAR 024F
ENCODING 591
SWIDTH 468 0
DWIDTH 13 0
BBX 15 18 0 -5
BITMAP
0C0E
0C0C
0C0C
0C1C
0E18
1FFE
3FFC
0630
0660
0760
07C0
03C0
0380
0300
0700
9E00
FC00
E000
ENDCHAR
STARTCHAR 0292
ENCODING 658
SWIDTH 468 0
DWIDTH 13 0
BBX 13 18 1 -5
BITMAP
0FF8
0FF8
0030
0060
00C0
0180
0700
0E00
0FC0
01C0
00E0
0060
0060
00E0
01C0
E7C0
FF00
1000
ENDCHAR
STARTCHAR 02BC
ENCODING 700
SWIDTH 468 0
DWIDTH 13 0
BBX 4 5 8 14
BITMAP
70
60
60
C0
80
ENDCHAR
STARTCHAR 02C6
ENCODING 710
SWIDTH 468 0
DWIDTH 13 0
BBX 6 4 7 14
BITMAP
10
38
7C
CC
ENDCHAR
STARTCHAR 02C7
ENCODING 711
SWIDTH 468 0
DWIDTH 13 0
BBX 6 4 8 14
BITMAP
8C
D8
70
60
ENDCHAR
STARTCHAR 02C9
ENCODING 713
SWIDTH 468 0
DWIDTH 13 0
BBX 7 2 7 16
BITMAP
FE
FE
ENDCHAR
STARTCHAR 02D8
ENCODING 728
SWIDTH 468 0
DWIDTH 13 0
BBX 7 4 7 15
BITMAP
C6
C6
7C
38
ENDCHAR
STARTCHAR 02D9
ENCODING 729
SWIDTH 468 0
DWIDTH 13 0
BBX 3 3 9 15
BITMAP
E0
E0
C0
ENDCHAR
STARTCHAR 02DA
ENCODING 730
SWIDTH 468 0
DWIDTH 13 0
BBX 5 5 8 14
BITMAP
F0
98
98
F0
60
ENDCHAR
STARTCHAR 02DB
ENCODING 731
SWIDTH 468 0
DWIDTH 13 0
BBX 5 5 3 -5
BITMAP
38
60
60
F0
30
ENDCHAR
STARTCHAR 02DC
ENCODING 732
SWIDTH 468 0
DWIDTH 13 0
BBX 8 3 6 15
BITMAP
79
FF
04
ENDCHAR
STARTCHAR 02DD
ENCODING 733
SWIDTH 468 0
DWIDTH 13 0
BBX 9 4 6 14
BITMAP
3100
3380
6600
CC00
ENDCHAR
STARTCHAR 0311
ENCODING 785
SWIDTH 468 0
DWIDTH 13 0
BBX 6 4 7 15
BITMAP
10
7C
CC
84
ENDCHAR
STARTCHAR 0384
ENCODING 900
SWIDTH 468 0
DWIDTH 13 0
BBX 4 5 8 14
BITMAP
30
30
60
C0
40
ENDCHAR
STARTCHAR 0385
ENCODING 901
SWIDTH 468 0
DWIDTH 13 0
BBX 10 4 5 14
BITMAP
0600
66C0
EDC0
5880
ENDCHAR
STARTCHAR 0386
ENCODING 902
SWIDTH 468 0
DWIDTH 13 0
BBX 13 18 0 0
BITMAP
0400
0670
0EF0
0CF0
19B0
0BB8
0338
0618
0618
0C18
0C18
1818
1FF8
3FF8
3018
6018
6018
C018
ENDCHAR
STARTCHAR 0388
ENCODING 904
SWIDTH 468 0
DWIDTH 13 0
BBX 15 17 0 1
BITMAP
37FE
77FE
6600
C600
4E00
0C00
0C00
0FF0
1FF0
1800
1800
1800
3800
3000
3000
3FF0
7FF0
ENDCHAR
STARTCHAR 0389
ENCODING 905
SWIDTH 468 0
DWIDTH 13 0
BBX 16 17 0 1
BITMAP
7603
6607
EE06
CE06
8C06
0C0E
1C0C
1FFC
1FFC
181C
1818
3818
3018
3038
3038
7030
6030
ENDCHAR
STARTCHAR 038A
ENCODING 906
SWIDTH 468 0
DWIDTH 13 0
BBX 14 17 1 1
BITMAP
77FC
67FC
E0C0
C0C0
81C0
0180
0180
0180
0380
0300
0300
0300
0700
0600
0600
7FC0
7FC0
ENDCHAR
STARTCHAR 038C
ENCODING 908
SWIDTH 468 0
DWIDTH 13 0
BBX 14 18 1 0
BITMAP
0040
73F0
6738
EE1C
DC1C
981C
381C
301C
301C
7018
6018
6018
6030
6030
6060
70E0
3FC0
1F80
ENDCHAR
STARTCHAR 038E
ENCODING 910
SWIDTH 468 0
DWIDTH 13 0
BBX 18 17 -1 1
BITMAP
3601C0
660380
660300
C70700
430E00
030C00
031800
01B800
01F000
01E000
00C000
01C000
01C000
018000
018000
018000
038000
ENDCHAR
STARTCHAR 038F
ENCODING 911
SWIDTH 468 0
DWIDTH 13 0
BBX 15 18 0 0
BITMAP
0030
39FC
33FC
660E
6E0E
5C06
1806
180E
380E
380C
380C
381C
3818
3838
1830
1860
FCF8
FDF8
ENDCHAR
STARTCHAR 0390
ENCODING 912
SWIDTH 468 0
DWIDTH 13 0
BBX 10 19 4 0
BITMAP
0600
66C0
ECC0
5800
0800
0000
FC00
FC00
1C00
1800
1800
1800
3800
3000
3000
3000
3000
3F00
1F00
ENDCHAR
STARTCHAR 0391
ENCODING 913
SWIDTH 468 0
DWIDTH 13 0
BBX 13 17 0 0
BITMAP
0070
00F0
01F0
01B0
0330
0330
0638
0638
0C38
1C18
1818
3FF8
3FF8
7018
6018
E018
C018
ENDCHAR
STARTCHAR 0392
ENCODING 914
SWIDTH 468 0
DWIDTH 13 0
BBX 14 17 1 0
BITMAP
0FF0
0FF8
0C18
1C1C
1818
1818
1830
3FE0
3FE0
3070
3030
7038
7030
6030
60F0
7FE0
FF80
ENDCHAR
STARTCHAR 0393
ENCODING 915
SWIDTH 468 0
DWIDTH 13 0
BBX 15 17 1 0
BITMAP
03FE
03FE
0300
0700
0700
0600
0600
0E00
0E00
0C00
0C00
0C00
1C00
1800
1800
FF80
FF00
ENDCHAR
STARTCHAR 0394
ENCODING 916
SWIDTH 468 0
DWIDTH 13 0
BBX 13 17 0 0
BITMAP
0070
00F0
01F0
01B0
0330
0330
0638
0638
0C38
1C18
1818
3818
3018
7018
6018
FFF8
FFF8
ENDCHAR
STARTCHAR 0395
ENCODING 917
SWIDTH 468 0
DWIDTH 13 0
BBX 14 17 2 0
BITMAP
0FFC
0FF8
1C00
1C00
1800
1800
1800
3FE0
3FE0
3000
3000
7000
6000
6000
6000
FFE0
FFC0
ENDCHAR
STARTCHAR 0396
ENCODING 918
SWIDTH 468 0
DWIDTH 13 0
BBX 15 17 1 0
BITMAP
0FFE
0FFE
001C
0038
0070
00E0
01C0
0180
0300
0600
0E00
1C00
3800
3000
6000
FFE0
FFE0
ENDCHAR
STARTCHAR 0397
ENCODING 919
SWIDTH 468 0
DWIDTH 13 0
BBX 15 17 1 0
BITMAP
0C06
0C0E
1C0C
1C0C
180C
181C
3818
3FF8
3FF8
3038
3030
7030
6030
6070
6070
E060
C060
ENDCHAR
STARTCHAR 0398
ENCODING 920
SWIDTH 468 0
DWIDTH 13 0
BBX 13 18 2 0
BITMAP
0080
07F0
0F70
1C38
3818
3018
7018
6018
67B8
67B8
E030
E030
E070
E060
E0E0
61C0
7F80
3F00
ENDCHAR
STARTCHAR 0399
ENCODING 921
SWIDTH 468 0
DWIDTH 13 0
BBX 13 17 2 0
BITMAP
0FF8
0FF8
0180
0180
0380
0300
0300
0300
0700
0600
0600
0600
0E00
0C00
0C00
FF80
FF80
ENDCHAR
STARTCHAR 039A
ENCODING 922
SWIDTH 468 0
DWIDTH 13 0
BBX 15 17 1 0
BITMAP
0C0E
0C1C
0C38
1C70
1CE0
19C0
1B80
1E00
3E00
3700
3380
3180
71C0
60C0
60E0
6060
E070
ENDCHAR
STARTCHAR 039B
ENCODING 923
SWIDTH 468 0
DWIDTH 13 0
BBX 13 17 0 0
BITMAP
0070
00F0
01F0
01B0
0330
0330
0638
0638
0C38
1C18
1818
3818
3018
7018
6018
E018
C018
ENDCHAR
STARTCHAR 039C
ENCODING 924
SWIDTH 468 0
DWIDTH 13 0
BBX 14 17 1 0
BITMAP
060C
0E1C
0E1C
0A3C
1A2C
1A6C
124C
33D8
3398
3398
6018
6018
6030
E030
C030
C030
C070
ENDCHAR
STARTCHAR 039D
ENCODING 925
SWIDTH 468 0
DWIDTH 13 0
BBX 15 17 1 0
BITMAP
0E06
0E06
0E0C
1B0C
1B0C
1B0C
1B18
3198
3198
3198
31B8
70B0
60F0
60F0
60F0
E0E0
C060
ENDCHAR
STARTCHAR 039E
ENCODING 926
SWIDTH 468 0
DWIDTH 13 0
BBX 15 17 1 0
BITMAP
0FFE
0FFE
0000
0000
0000
0000
0000
1FF0
1FF0
0000
0000
0000
0000
0000
0000
FFF0
FFE0
ENDCHAR
STARTCHAR 039F
ENCODING 927
SWIDTH 468 0
DWIDTH 13 0
BBX 13 18 2 0
BITMAP
0080
07F0
0F70
1C38
3818
3018
7018
6018
6038
6038
E030
E030
E070
E060
E0E0
61C0
7F80
3F00
ENDCHAR
STARTCHAR 03A0
ENCODING 928
SWIDTH 468 0
DWIDTH 13 0
BBX 15 17 1 0
BITMAP
0FFE
0FFE
1C0C
1C0C
180C
181C
3818
3818
3018
3038
3030
7030
6030
6070
6070
E060
C060
ENDCHAR
STARTCHAR 03A1
ENCODING 929
SWIDTH 468 0
DWIDTH 13 0
BBX 13 17 2 0
BITMAP
1FE0
1FF0
1838
1818
3818
3838
3038
3070
31E0
7FC0
7C00
6000
6000
E000
C000
C000
C000
ENDCHAR
STARTCHAR 03A3
ENCODING 931
SWIDTH 468 0
DWIDTH 13 0
BBX 15 17 1 0
BITMAP
0FFE
0FFE
0E00
0600
0700
0300
0380
0180
0180
0300
0E00
1C00
3800
7000
6000
FFE0
FFE0
ENDCHAR
STARTCHAR 03A4
ENCODING 932
SWIDTH 468 0
DWIDTH 13 0
BBX 12 17 4 0
BITMAP
7FF0
FFF0
0600
0E00
0E00
0C00
0C00
0C00
1C00
1800
1800
1800
3800
3000
3000
3000
7000
ENDCHAR
STARTCHAR 03A5
ENCODING 933
SWIDTH 468 0
DWIDTH 13 0
BBX 13 17 4 0
BITMAP
C038
E030
6070
60E0
60C0
6180
3380
3700
3600
1C00
1800
1800
1800
3800
3000
3000
3000
ENDCHAR
STARTCHAR 03A6
ENCODING 934
SWIDTH 468 0
DWIDTH 13 0
BBX 13 18 2 0
BITMAP
00C0
0180
07E0
1FF0
39B8
33B8
7338
6318
6318
E738
E630
6670
6660
76E0
3FC0
1F00
0C00
0C00
ENDCHAR
STARTCHAR 03A7
ENCODING 935
SWIDTH 468 0
DWIDTH 13 0
BBX 15 17 1 0
BITMAP
0E06
060E
061C
0718
0330
0360
03E0
01C0
03C0
07C0
06C0
0CE0
1C60
3860
7070
E070
C030
ENDCHAR
STARTCHAR 03A8
ENCODING 936
SWIDTH 468 0
DWIDTH 13 0
BBX 13 17 3 0
BITMAP
3018
6018
6038
6030
6630
C630
C670
C660
CC60
CCC0
EDC0
7F80
3E00
1800
1800
1800
3800
ENDCHAR
STARTCHAR 03A9
ENCODING 937
SWIDTH 468 0
DWIDTH 13 0
BBX 15 18 0 0
BITMAP
0030
01FC
03FC
060E
0E0E
1C06
1806
180E
380E
380C
380C
381C
3818
3838
1830
1860
FCF8
FDF8
ENDCHAR
STARTCHAR 03AA
ENCODING 938
SWIDTH 468 0
DWIDTH 13 0
BBX 13 22 2 0
BITMAP
0318
0738
0330
0000
0000
0FF8
0FF8
0180
0180
0380
0300
0300
0300
0700
0600
0600
0600
0E00
0C00
0C00
FF80
FF80
ENDCHAR
STARTCHAR 03AB
ENCODING 939
SWIDTH 468 0
DWIDTH 13 0
BBX 13 22 4 0
BITMAP
0C60
1CE0
0CC0
0000
0000
C038
E030
6070
60E0
60C0
6180
3380
3700
3600
1C00
1800
1800
1800
3800
3000
3000
3000
ENDCHAR
STARTCHAR 03AC
ENCODING 940
SWIDTH 468 0
DWIDTH 13 0
BBX 12 19 2 0
BITMAP
0030
0070
00E0
01C0
0080
0000
07F0
0FF0
1C70
3870
7060
6060
E0E0
E0E0
E0C0
E0C0
E0C0
7FF0
3F60
ENDCHAR
STARTCHAR 03AD
ENCODING 941
SWIDTH 468 0
DWIDTH 13 0
BBX 12 19 2 0
BITMAP
0030
0070
00E0
00C0
0080
0000
07F0
1FF0
3800
3800
3800
1F80
1F80
7800
6000
E000
6000
7FC0
3FC0
ENDCHAR
STARTCHAR 03AE
ENCODING 942
SWIDTH 468 0
DWIDTH 13 0
BBX 12 24 2 -5
BITMAP
0030
0070
00E0
00C0
0080
0000
1FC0
3FE0
3870
3070
3070
3070
7060
6060
6060
60E0
E0C0
C0C0
C0C0
01C0
0180
0180
0180
0380
ENDCHAR
STARTCHAR 03AF
ENCODING 943
SWIDTH 468 0
DWIDTH 13 0
BBX 8 19 4 0
BITMAP
03
07
06
0C
00
00
FC
FC
1C
18
18
18
38
30
30
30
30
3F
1F
ENDCHAR
STARTCHAR 03B0
ENCODING 944
SWIDTH 468 0
DWIDTH 13 0
BBX 13 19 2 0
BITMAP
00C0
0CD8
1DB8
0B10
0000
0000
3830
3030
3030
3070
7060
6060
6060
60E0
E0C0
E0C0
61C0
7F80
3F00
ENDCHAR
STARTCHAR 03B1
ENCODING 945
SWIDTH 468 0
DWIDTH 13 0
BBX 12 13 2 0
BITMAP
07F0
0FF0
1C70
3870
7060
6060
E0E0
E0E0
E0C0
E0C0
E0C0
7FF0
3F60
ENDCHAR
STARTCHAR 03B2
ENCODING 946
SWIDTH 468 0
DWIDTH 13 0
BBX 13 24 1 -5
BITMAP
01F0
03F8
0718
0618
0C18
0C18
0C38
1CF0
19C0
18E0
1830
3830
3838
3030
3030
7070
70E0
7FE0
7F80
6000
E000
C000
C000
C000
ENDCHAR
STARTCHAR 03B3
ENCODING 947
SWIDTH 468 0
DWIDTH 13 0
BBX 11 18 4 -5
BITMAP
C0E0
C0C0
C0C0
C1C0
C180
E380
E300
E700
EE00
EC00
7800
7000
E000
E000
E000
E000
C000
C000
ENDCHAR
STARTCHAR 03B4
ENCODING 948
SWIDTH 468 0
DWIDTH 13 0
BBX 13 19 2 0
BITMAP
03F8
07F8
0E00
0E00
0E00
0700
0380
0FC0
1CE0
3860
7070
6070
6070
E070
E060
60E0
60C0
7FC0
3F00
ENDCHAR
STARTCHAR 03B5
ENCODING 949
SWIDTH 468 0
DWIDTH 13 0
BBX 12 13 2 0
BITMAP
07F0
1FF0
3800
3800
3800
1F80
1F80
7800
6000
E000
6000
7FC0
3FC0
ENDCHAR
STARTCHAR 03B6
ENCODING 950
SWIDTH 468 0
DWIDTH 13 0
BBX 13 24 3 -5
BITMAP
0FF8
1FF8
0060
01C0
0380
0700
0E00
1C00
3800
7000
6000
E000
C000
C000
C000
C000
F000
7E00
1F00
0380
0380
0300
0700
0200
ENDCHAR
STARTCHAR 03B7
ENCODING 951
SWIDTH 468 0
DWIDTH 13 0
BBX 12 18 2 -5
BITMAP
1FC0
3FE0
3870
3070
3070
3070
7060
6060
6060
60E0
E0C0
C0C0
C0C0
01C0
0180
0180
0180
0380
ENDCHAR
STARTCHAR 03B8
ENCODING 952
SWIDTH 468 0
DWIDTH 13 0
BBX 12 19 3 0
BITMAP
07C0
0FE0
1C60
3870
3070
7070
6070
6070
FFE0
FFE0
C060
C060
C0E0
C0C0
C1C0
C180
C380
FF00
7E00
ENDCHAR
STARTCHAR 03B9
ENCODING 953
SWIDTH 468 0
DWIDTH 13 0
BBX 8 13 4 0
BITMAP
FC
FC
1C
18
18
18
38
30
30
30
30
3F
1F
ENDCHAR
STARTCHAR 03BA
ENCODING 954
SWIDTH 468 0
DWIDTH 13 0
BBX 13 13 2 0
BITMAP
1838
3870
38E0
3380
3700
3E00
7C00
6600
6700
6380
E1C0
C1C0
C0E0
ENDCHAR
STARTCHAR 03BB
ENCODING 955
SWIDTH 468 0
DWIDTH 13 0
BBX 11 19 1 0
BITMAP
0F00
0F80
0180
00C0
00C0
00C0
01C0
01C0
03E0
0760
0660
0C60
1C60
1860
3060
7060
6060
E060
C060
ENDCHAR
STARTCHAR 03BC
ENCODING 956
SWIDTH 468 0
DWIDTH 13 0
BBX 14 18 0 -5
BITMAP
0C0C
0C0C
0C1C
1C18
1C18
1818
1838
3830
3830
3830
3870
3FF8
7F98
6000
6000
6000
E000
C000
ENDCHAR
STARTCHAR 03BD
ENCODING 957
SWIDTH 468 0
DWIDTH 13 0
BBX 11 13 4 0
BITMAP
C0E0
C0C0
C0C0
C180
C180
C300
C300
E600
EE00
6C00
7800
7800
7000
ENDCHAR
STARTCHAR 03BE
ENCODING 958
SWIDTH 468 0
DWIDTH 13 0
BBX 13 24 3 -5
BITMAP
03F8
0FF0
1C00
1800
1800
1800
1800
1E00
0FC0
1FC0
7800
E000
C000
C000
C000
C000
F000
7E00
1F00
0380
0380
0300
0700
0200
ENDCHAR
STARTCHAR 03BF
ENCODING 959
SWIDTH 468 0
DWIDTH 13 0
BBX 12 13 2 0
BITMAP
07C0
1FE0
3870
3030
7030
6030
E070
E070
E060
E0E0
E1C0
7F80
3F00
ENDCHAR
STARTCHAR 03C0
ENCODING 960
SWIDTH 468 0
DWIDTH 13 0
BBX 12 13 2 0
BITMAP
3FF0
3FF0
3030
3070
3060
7060
6060
60E0
60C0
E0C0
C0C0
C1C0
C180
ENDCHAR
STARTCHAR 03C1
ENCODING 961
SWIDTH 468 0
DWIDTH 13 0
BBX 13 18 1 -5
BITMAP
03E0
0FF0
0C38
1C18
1818
3818
3818
3038
3030
7070
70E0
7FE0
7F80
6000
E000
C000
C000
C000
ENDCHAR
STARTCHAR 03C2
ENCODING 962
SWIDTH 468 0
DWIDTH 13 0
BBX 12 18 2 -5
BITMAP
07F0
0FF0
1C00
3800
7000
6000
6000
E000
E000
6000
7800
3F00
0F80
0180
0180
0180
0300
0100
ENDCHAR
STARTCHAR 03C3
ENCODING 963
SWIDTH 468 0
DWIDTH 13 0
BBX 14 13 2 0
BITMAP
07FC
1FF8
3860
7060
6060
E070
C060
C060
C060
C0E0
E1C0
7F80
3F00
ENDCHAR
STARTCHAR 03C4
ENCODING 964
SWIDTH 468 0
DWIDTH 13 0
BBX 12 13 3 0
BITMAP
FFF0
FFE0
1800
1800
1800
3800
3000
3000
3000
3000
3000
3F80
1F80
ENDCHAR
STARTCHAR 03C5
ENCODING 965
SWIDTH 468 0
DWIDTH 13 0
BBX 12 13 2 0
BITMAP
3830
3030
3030
3070
7060
6060
6060
60E0
E0C0
E0C0
61C0
7F80
3F00
ENDCHAR
STARTCHAR 03C6
ENCODING 966
SWIDTH 468 0
DWIDTH 13 0
BBX 13 18 2 -5
BITMAP
0FC0
1FF0
7370
6330
E338
C638
C638
C630
C630
CE70
ECE0
7FC0
3F00
0C00
1800
1800
1800
1800
ENDCHAR
STARTCHAR 03C7
ENCODING 967
SWIDTH 468 0
DWIDTH 13 0
BBX 14 13 1 0
BITMAP
1C1C
1C38
0C30
0660
06C0
0380
0380
0780
0FC0
1CC0
38E0
70E0
E060
ENDCHAR
STARTCHAR 03C8
ENCODING 968
SWIDTH 468 0
DWIDTH 13 0
BBX 13 18 2 -5
BITMAP
7018
7018
6018
6338
6630
E630
C630
C670
CC60
CC60
CCC0
FFC0
7F80
1800
1800
1800
1800
3000
ENDCHAR
STARTCHAR 03C9
ENCODING 969
SWIDTH 468 0
DWIDTH 13 0
BBX 13 13 1 0
BITMAP
0C30
1C30
3838
3038
6018
6318
6318
E338
C738
C730
E730
7FE0
79E0
ENDCHAR
STARTCHAR 03CA
ENCODING 970
SWIDTH 468 0
DWIDTH 13 0
BBX 9 18 4 0
BITMAP
3180
3B80
3180
0000
0000
FC00
FC00
1C00
1800
1800
1800
3800
3000
3000
3000
3000
3F00
1F00
ENDCHAR
STARTCHAR 03CB
ENCODING 971
SWIDTH 468 0
DWIDTH 13 0
BBX 12 18 2 0
BITMAP
0E70
0E70
0420
0000
0000
3830
3030
3030
3070
7060
6060
6060
60E0
E0C0
E0C0
61C0
7F80
3F00
ENDCHAR
STARTCHAR 03CC
ENCODING 972
SWIDTH 468 0
DWIDTH 13 0
BBX 12 19 2 0
BITMAP
0030
0070
00E0
00C0
0080
0000
07C0
1FE0
3870
3030
7030
6030
E070
E070
E060
E0E0
E1C0
7F80
3F00
ENDCHAR
STARTCHAR 03CD
ENCODING 973
SWIDTH 468 0
DWIDTH 13 0
BBX 12 19 2 0
BITMAP
0060
00E0
01C0
0180
0100
0000
3830
3030
3030
3070
7060
6060
6060
60E0
E0C0
E0C0
61C0
7F80
3F00
ENDCHAR
STARTCHAR 03CE
ENCODING 974
SWIDTH 468 0
DWIDTH 13 0
BBX 13 19 1 0
BITMAP
0030
0070
00E0
01C0
0080
0000
0C30
1C30
3838
3038
6018
6318
6318
E338
C738
C730
E730
7FE0
79E0
ENDCHAR
STARTCHAR 0400
ENCODING 1024
SWIDTH 468 0
DWIDTH 13 0
BBX 14 23 2 0
BITMAP
0100
0380
01C0
00E0
0040
0000
0FFC
0FF8
1C00
1C00
1800
1800
1800
3FE0
3FE0
3000
3000
7000
6000
6000
6000
FFE0
FFC0
ENDCHAR
STARTCHAR 0401
ENCODING 1025
SWIDTH 468 0
DWIDTH 13 0
BBX 14 22 2 0
BITMAP
0318
03B8
0318
0000
0000
0FFC
0FF8
1C00
1C00
1800
1800
1800
3FE0
3FE0
3000
3000
7000
6000
6000
6000
FFE0
FFC0
ENDCHAR
STARTCHAR 0402
ENCODING 1026
SWIDTH 468 0
DWIDTH 13 0
BBX 11 17 3 0
BITMAP
7FE0
7FE0
1800
1800
3800
3800
3F00
3FC0
31C0
70E0
60E0
60E0
60E0
E0C0
C1C0
CF80
DE00
ENDCHAR
STARTCHAR 0403
ENCODING 1027
SWIDTH 468 0
DWIDTH 13 0
BBX 15 23 1 0
BITMAP
0004
000C
001C
0030
0020
0000
03FE
03FE
0300
0700
0700
0600
0600
0E00
0E00
0C00
0C00
0C00
1C00
1800
1800
FF80
FF00
ENDCHAR
STARTCHAR 0404
ENCODING 1028
SWIDTH 468 0
DWIDTH 13 0
BBX 14 18 2 0
BITMAP
0040
03FC
0FB8
1C00
1800
3000
3000
7000
7FC0
7F80
6000
E000
E000
6000
6000
7000
3FC0
1FC0
ENDCHAR
STARTCHAR 0405
ENCODING 1029
SWIDTH 468 0
DWIDTH 13 0
BBX 13 18 2 0
BITMAP
00C0
07F8
0F78
1C00
1800
1800
1800
1C00
0F00
0780
01C0
00E0
0060
0060
00E0
80C0
FFC0
FF00
ENDCHAR
STARTCHAR 0406
ENCODING 1030
SWIDTH 468 0
DWIDTH 13 0
BBX 13 17 2 0
BITMAP
0FF8
0FF8
0180
0180
0380
0300
0300
0300
0700
0600
0600
0600
0E00
0C00
0C00
FF80
FF80
ENDCHAR
STARTCHAR 0407
ENCODING 1031
SWIDTH 468 0
DWIDTH 13 0
BBX 13 22 2 0
BITMAP
0318
03B8
0318
0000
0000
0FF8
0FF8
0180
0180
0380
0300
0300
0300
0700
0600
0600
0600
0E00
0C00
0C00
FF80
FF80
ENDCHAR
STARTCHAR 0408
ENCODING 1032
SWIDTH 468 0
DWIDTH 13 0
BBX 13 17 2 0
BITMAP
07F8
07F8
0038
0038
0030
0030
0070
0070
0060
0060
0060
00E0
00C0
00C0
41C0
FF80
7F00
ENDCHAR
STARTCHAR 0409
ENCODING 1033
SWIDTH 468 0
DWIDTH 13 0
BBX 14 17 0 0
BITMAP
03F0
03F0
0330
0360
0660
0660
0678
06FC
0CCC
0CCC
0CCC
198C
198C
198C
3198
E3F8
C3E0
ENDCHAR
STARTCHAR 040A
ENCODING 1034
SWIDTH 468 0
DWIDTH 13 0
BBX 13 17 1 0
BITMAP
0C60
1860
1860
18C0
18C0
30C0
3FF0
3FF8
3198
7198
6198
6318
6318
6318
C330
C7F0
C7C0
ENDCHAR
STARTCHAR 040B
ENCODING 1035
SWIDTH 468 0
DWIDTH 13 0
BBX 10 17 3 0
BITMAP
7FC0
7FC0
1800
1800
3800
3800
3780
3FC0
31C0
70C0
60C0
60C0
60C0
E0C0
C1C0
C180
C180
ENDCHAR
STARTCHAR 040C
ENCODING 1036
SWIDTH 468 0
DWIDTH 13 0
BBX 15 23 1 0
BITMAP
0008
0018
0038
0060
0040
0000
0C0E
0C1C
0C38
1C70
1CE0
19C0
1B80
1E00
3E00
3700
3380
3180
71C0
60C0
60E0
6060
E070
ENDCHAR
STARTCHAR 040D
ENCODING 1037
SWIDTH 468 0
DWIDTH 13 0
BBX 15 23 1 0
BITMAP
0080
01C0
00E0
0070
0020
0000
0C0E
0C1E
0C1C
183C
186C
18CC
18D8
3198
3318
3718
3638
6C30
6830
7830
7070
E060
E060
ENDCHAR
STARTCHAR 040E
ENCODING 1038
SWIDTH 468 0
DWIDTH 13 0
BBX 16 22 1 0
BITMAP
018C
01FC
00F8
0000
0000
1C03
0C07
0C06
0C0C
0E0C
0618
0638
0630
0670
0360
03C0
03C0
0180
0300
0700
FE00
F800
ENDCHAR
STARTCHAR 040F
ENCODING 1039
SWIDTH 468 0
DWIDTH 13 0
BBX 15 22 1 -5
BITMAP
0C06
0C0E
1C0C
180C
180C
181C
3818
3818
3018
3038
3030
7030
6030
6070
6070
FFE0
FFE0
0C00
0C00
0C00
1C00
1800
ENDCHAR
STARTCHAR 0410
ENCODING 1040
SWIDTH 468 0
DWIDTH 13 0
BBX 13 17 0 0
BITMAP
0070
00F0
01F0
01B0
0330
0330
0638
0638
0C38
1C18
1818
3FF8
3FF8
7018
6018
E018
C018
ENDCHAR
STARTCHAR 0411
ENCODING 1041
SWIDTH 468 0
DWIDTH 13 0
BBX 14 17 1 0
BITMAP
0FFC
0FF8
0C00
1C00
1800
1800
1F80
3FE0
3070
3038
3038
7038
7030
6070
60E0
7FC0
FF00
ENDCHAR
STARTCHAR 0412
ENCODING 1042
SWIDTH 468 0
DWIDTH 13 0
BBX 14 17 1 0
BITMAP
0FF0
0FF8
0C18
1C1C
1818
1818
1830
3FE0
3FE0
3070
3030
7038
7030
6030
60F0
7FE0
FF80
ENDCHAR
STARTCHAR 0413
ENCODING 1043
SWIDTH 468 0
DWIDTH 13 0
BBX 15 17 1 0
BITMAP
03FE
03FE
0300
0700
0700
0600
0600
0E00
0E00
0C00
0C00
0C00
1C00
1800
1800
FF80
FF00
ENDCHAR
STARTCHAR 0414
ENCODING 1044
SWIDTH 468 0
DWIDTH 13 0
BBX 16 22 -1 -5
BITMAP
007F
00FF
00E3
00C7
00C7
01C6
0186
0186
038E
030C
030C
070C
061C
0E18
1C18
3FFC
3FFC
7018
6018
6018
6018
E038
ENDCHAR
STARTCHAR 0415
ENCODING 1045
SWIDTH 468 0
DWIDTH 13 0
BBX 14 17 2 0
BITMAP
0FFC
0FF8
1C00
1C00
1800
1800
1800
3FE0
3FE0
3000
3000
7000
6000
6000
6000
FFE0
FFC0
ENDCHAR
STARTCHAR 0416
ENCODING 1046
SWIDTH 468 0
DWIDTH 13 0
BBX 17 17 0 0
BITMAP
0E7380
066300
066600
066600
066C00
02D800
03F000
03F000
07F000
07B000
0DB000
199800
399800
331800
631800
631800
C31800
ENDCHAR
STARTCHAR 0417
ENCODING 1047
SWIDTH 468 0
DWIDTH 13 0
BBX 14 17 1 1
BITMAP
0FF0
0F78
001C
001C
0018
0038
0070
0FE0
0FE0
0070
0030
0030
0030
0070
00E0
FFE0
7F80
ENDCHAR
STARTCHAR 0418
ENCODING 1048
SWIDTH 468 0
DWIDTH 13 0
BBX 15 17 1 0
BITMAP
0C0E
0C1E
0C1C
183C
186C
18CC
18D8
3198
3318
3718
3638
6C30
6830
7830
7070
E060
E060
ENDCHAR
STARTCHAR 0419
ENCODING 1049
SWIDTH 468 0
DWIDTH 13 0
BBX 15 22 1 0
BITMAP
018C
01FC
00F8
0000
0000
0C0E
0C1E
0C1C
183C
186C
18CC
18D8
3198
3318
3718
3638
6C30
6830
7830
7070
E060
E060
ENDCHAR
STARTCHAR 041A
ENCODING 1050
SWIDTH 468 0
DWIDTH 13 0
BBX 15 17 1 0
BITMAP
0C0E
0C1C
0C38
1C70
1CE0
19C0
1B80
1E00
3E00
3700
3380
3180
71C0
60C0
60E0
6060
E070
ENDCHAR
STARTCHAR 041B
ENCODING 1051
SWIDTH 468 0
DWIDTH 13 0
BBX 16 17 0 0
BITMAP
00FF
01FF
0186
0186
0186
038E
030C
030C
030C
061C
0618
0E18
0C18
1C38
3838
F030
E030
ENDCHAR
STARTCHAR 041C
ENCODING 1052
SWIDTH 468 0
DWIDTH 13 0
BBX 14 17 1 0
BITMAP
060C
0E1C
0E1C
0A3C
1A2C
1A6C
124C
33D8
3398
3398
6018
6018
6030
E030
C030
C030
C070
ENDCHAR
STARTCHAR 041D
ENCODING 1053
SWIDTH 468 0
DWIDTH 13 0
BBX 15 17 1 0
BITMAP
0C06
0C0E
1C0C
1C0C
180C
181C
3818
3FF8
3FF8
3038
3030
7030
6030
6070
6070
E060
C060
ENDCHAR
STARTCHAR 041E
ENCODING 1054
SWIDTH 468 0
DWIDTH 13 0
BBX 13 18 2 0
BITMAP
0080
07F0
0F70
1C38
3818
3018
7018
6018
6038
6038
E030
E030
E070
E060
E0E0
61C0
7F80
3F00
ENDCHAR
STARTCHAR 041F
ENCODING 1055
SWIDTH 468 0
DWIDTH 13 0
BBX 15 17 1 0
BITMAP
0FFE
0FFE
1C0C
1C0C
180C
181C
3818
3818
3018
3038
3030
7030
6030
6070
6070
E060
C060
ENDCHAR
STARTCHAR 0420
ENCODING 1056
SWIDTH 468 0
DWIDTH 13 0
BBX 13 17 2 0
BITMAP
1FE0
1FF0
1838
1818
3818
3838
3038
3070
31E0
7FC0
7C00
6000
6000
E000
C000
C000
C000
ENDCHAR
STARTCHAR 0421
ENCODING 1057
SWIDTH 468 0
DWIDTH 13 0
BBX 14 18 2 0
BITMAP
0040
03FC
0FB8
1C00
1800
3800
3000
7000
6000
6000
6000
E000
E000
6000
6000
7000
3FC0
1FC0
ENDCHAR
STARTCHAR 0422
ENCODING 1058
SWIDTH 468 0
DWIDTH 13 0
BBX 12 17 4 0
BITMAP
7FF0
FFF0
0600
0E00
0E00
0C00
0C00
0C00
1C00
1800
1800
1800
3800
3000
3000
3000
7000
ENDCHAR
STARTCHAR 0423
ENCODING 1059
SWIDTH 468 0
DWIDTH 13 0
BBX 16 17 1 0
BITMAP
1C03
0C07
0C06
0C0C
0E0C
0618
0638
0630
0670
0360
03C0
03C0
0180
0300
0700
FE00
F800
ENDCHAR
STARTCHAR 0424
ENCODING 1060
SWIDTH 468 0
DWIDTH 13 0
BBX 13 18 2 0
BITMAP
00C0
0180
07E0
1FF0
39B8
33B8
7338
6318
6318
E738
E630
6670
6660
76E0
3FC0
1F00
0C00
0C00
ENDCHAR
STARTCHAR 0425
ENCODING 1061
SWIDTH 468 0
DWIDTH 13 0
BBX 15 17 1 0
BITMAP
0E06
060E
061C
0718
0330
0360
03E0
01C0
03C0
07C0
06C0
0CE0
1C60
3860
7070
E070
C030
ENDCHAR
STARTCHAR 0426
ENCODING 1062
SWIDTH 468 0
DWIDTH 13 0
BBX 14 22 1 -5
BITMAP
0C0C
0C0C
1C0C
181C
181C
1818
3818
3818
3038
3030
3030
7030
6070
6060
6060
FFF0
FFF0
0060
0060
0060
0060
00E0
ENDCHAR
STARTCHAR 0427
ENCODING 1063
SWIDTH 468 0
DWIDTH 13 0
BBX 12 17 4 0
BITMAP
6030
6070
E060
E060
C060
C0E0
C0C0
C0C0
E0C0
FFC0
3F80
0180
0180
0380
0380
0300
0300
ENDCHAR
STARTCHAR 0428
ENCODING 1064
SWIDTH 468 0
DWIDTH 13 0
BBX 15 17 1 0
BITMAP
0C06
0C06
1C0C
180C
180C
180C
3998
3198
3398
3318
3330
6330
6730
6630
6660
FFE0
FFE0
ENDCHAR
STARTCHAR 0429
ENCODING 1065
SWIDTH 468 0
DWIDTH 13 0
BBX 14 22 1 -5
BITMAP
0C0C
0C0C
1C0C
180C
181C
1818
3998
3398
3338
3330
3330
6330
6670
6660
6660
FFF0
FFF0
0060
0060
0060
0060
00E0
ENDCHAR
STARTCHAR 042A
ENCODING 1066
SWIDTH 468 0
DWIDTH 13 0
BBX 11 17 3 0
BITMAP
7C00
7C00
1800
1800
1800
3800
3F80
3FC0
30C0
70E0
70E0
60E0
60C0
E0C0
E1C0
FF80
FE00
ENDCHAR
STARTCHAR 042B
ENCODING 1067
SWIDTH 468 0
DWIDTH 13 0
BBX 15 17 1 0
BITMAP
1C06
1806
1806
180E
380C
300C
3E0C
3F1C
7398
6198
6198
61B8
E3B0
C330
C730
FE70
FC60
ENDCHAR
STARTCHAR 042C
ENCODING 1068
SWIDTH 468 0
DWIDTH 13 0
BBX 13 17 1 0
BITMAP
0C00
0C00
0C00
1C00
1800
1800
1FC0
3FF0
3078
3038
3018
7018
7038
6030
60F0
7FE0
FF80
ENDCHAR
STARTCHAR 042D
ENCODING 1069
SWIDTH 468 0
DWIDTH 13 0
BBX 13 18 2 0
BITMAP
0300
1FE0
1CF0
0030
0038
0038
0018
0018
0FF8
0FF8
0030
0030
0070
0060
00E0
81C0
FF80
FE00
ENDCHAR
STARTCHAR 042E
ENCODING 1070
SWIDTH 468 0
DWIDTH 13 0
BBX 15 18 1 0
BITMAP
0010
0C7C
1CEC
19CC
198E
198E
3B0C
330C
3F0C
3F0C
360C
661C
6618
6618
6630
E630
C7E0
C3C0
ENDCHAR
STARTCHAR 042F
ENCODING 1071
SWIDTH 468 0
DWIDTH 13 0
BBX 15 17 1 0
BITMAP
01FE
07FE
0E0C
0C0C
1C0C
1C1C
1C18
1C18
0FF8
07F8
0638
0C30
1830
3830
7070
6060
E060
ENDCHAR
STARTCHAR 0430
ENCODING 1072
SWIDTH 468 0
DWIDTH 13 0
BBX 12 13 2 0
BITMAP
07F0
1FF0
3C30
7070
6060
E060
E060
C0E0
C0C0
C0C0
E1C0
7FC0
7EC0
ENDCHAR
STARTCHAR 0431
ENCODING 1073
SWIDTH 468 0
DWIDTH 13 0
BBX 13 19 3 0
BITMAP
00F8
07F8
0F80
1C00
3800
3000
7700
7FC0
79C0
E0E0
C060
C060
C0E0
C0E0
C0C0
C1C0
C380
FF00
7E00
ENDCHAR
STARTCHAR 0432
ENCODING 1074
SWIDTH 468 0
DWIDTH 13 0
BBX 11 13 2 0
BITMAP
0FC0
1FE0
3860
3060
7060
7FC0
7FC0
60E0
E060
E0E0
C0E0
FFC0
FF80
ENDCHAR
STARTCHAR 0433
ENCODING 1075
SWIDTH 468 0
DWIDTH 13 0
BBX 11 13 2 0
BITMAP
1FC0
1FE0
0060
0060
00E0
03C0
1F80
7C00
6000
E000
E000
FFC0
7FC0
ENDCHAR
STARTCHAR 0434
ENCODING 1076
SWIDTH 468 0
DWIDTH 13 0
BBX 12 19 2 0
BITMAP
1F80
1FC0
00E0
0060
0070
0030
07B0
1FF0
3C70
3030
7030
6070
6060
E060
E0E0
E0C0
61C0
7F80
3F00
ENDCHAR
STARTCHAR 0435
ENCODING 1077
SWIDTH 468 0
DWIDTH 13 0
BBX 12 13 2 0
BITMAP
07E0
1FF0
3870
7030
6070
E0E0
FFC0
FF00
C000
C000
E000
7FC0
3FC0
ENDCHAR
STARTCHAR 0436
ENCODING 1078
SWIDTH 468 0
DWIDTH 13 0
BBX 16 13 0 0
BITMAP
18C7
3CCE
0CD8
0CD8
0C90
0DB0
0FF0
09B0
0930
1B30
1330
F338
E218
ENDCHAR
STARTCHAR 0437
ENCODING 1079
SWIDTH 468 0
DWIDTH 13 0
BBX 12 13 2 0
BITMAP
1FE0
1FE0
0070
0030
0060
0FE0
1F80
01E0
00E0
00E0
00E0
FFC0
FF00
ENDCHAR
STARTCHAR 0438
ENCODING 1080
SWIDTH 468 0
DWIDTH 13 0
BBX 12 13 2 0
BITMAP
3030
3030
3070
7070
7060
6060
60E0
60E0
E0C0
E0C0
E1C0
7FC0
3EC0
ENDCHAR
STARTCHAR 0439
ENCODING 1081
SWIDTH 468 0
DWIDTH 13 0
BBX 12 18 2 0
BITMAP
0C30
07E0
03C0
0000
0000
3030
3030
3070
7070
7060
6060
60E0
60E0
E0C0
E0C0
E1C0
7FC0
3EC0
ENDCHAR
STARTCHAR 043A
ENCODING 1082
SWIDTH 468 0
DWIDTH 13 0
BBX 13 13 2 0
BITMAP
1838
3870
38E0
3380
3700
3E00
7C00
6600
6700
6380
E1C0
C1C0
C0E0
ENDCHAR
STARTCHAR 043B
ENCODING 1083
SWIDTH 468 0
DWIDTH 13 0
BBX 14 13 0 0
BITMAP
01FC
01FC
038C
031C
0318
0718
0618
0638
0C30
1C30
3830
F070
E060
ENDCHAR
STARTCHAR 043C
ENCODING 1084
SWIDTH 468 0
DWIDTH 13 0
BBX 14 13 1 0
BITMAP
1C0C
1C1C
1C3C
3C3C
3C78
34D8
66D8
6798
6798
E738
C030
C030
C030
ENDCHAR
STARTCHAR 043D
ENCODING 1085
SWIDTH 468 0
DWIDTH 13 0
BBX 12 13 2 0
BITMAP
3830
3830
3030
3070
3060
7FE0
7FE0
60E0
60C0
E0C0
C0C0
C1C0
C180
ENDCHAR
STARTCHAR 043E
ENCODING 1086
SWIDTH 468 0
DWIDTH 13 0
BBX 12 13 2 0
BITMAP
07C0
1FE0
3870
3030
7030
6030
E070
E070
E060
E0E0
E1C0
7F80
3F00
ENDCHAR
STARTCHAR 043F
ENCODING 1087
SWIDTH 468 0
DWIDTH 13 0
BBX 12 13 2 0
BITMAP
1FC0
3FE0
3870
3070
3070
3070
7060
6060
6060
60E0
E0C0
C0C0
C0C0
ENDCHAR
STARTCHAR 0440
ENCODING 1088
SWIDTH 468 0
DWIDTH 13 0
BBX 13 18 1 -5
BITMAP
0FE0
1FF0
1838
1818
1818
3818
3038
3038
3030
7070
60E0
7FC0
7F00
E000
E000
C000
C000
C000
ENDCHAR
STARTCHAR 0441
ENCODING 1089
SWIDTH 468 0
DWIDTH 13 0
BBX 12 13 2 0
BITMAP
07F0
1FF0
3800
7000
6000
E000
C000
C000
C000
C000
E000
7FC0
3FC0
ENDCHAR
STARTCHAR 0442
ENCODING 1090
SWIDTH 468 0
DWIDTH 13 0
BBX 13 13 1 0
BITMAP
1F78
1FF8
3198
3198
3398
3318
7318
6330
6030
6030
E030
C060
C060
ENDCHAR
STARTCHAR 0443
ENCODING 1091
SWIDTH 468 0
DWIDTH 13 0
BBX 15 18 0 -5
BITMAP
0C0E
0C0C
0C0C
0C1C
0E18
0E18
0630
0630
0660
0760
07C0
03C0
0380
0300
0700
9E00
FC00
E000
ENDCHAR
STARTCHAR 0444
ENCODING 1092
SWIDTH 468 0
DWIDTH 13 0
BBX 13 24 2 -5
BITMAP
00C0
00C0
00C0
0180
0180
0180
0FC0
1FF0
3370
6338
E338
C638
C638
C630
C630
CE70
ECE0
7FC0
3F00
0C00
1800
1800
1800
1800
ENDCHAR
STARTCHAR 0445
ENCODING 1093
SWIDTH 468 0
DWIDTH 13 0
BBX 14 13 1 0
BITMAP
1C1C
1C38
0C30
0660
06C0
0380
0380
0780
0FC0
1CC0
38E0
70E0
E060
ENDCHAR
STARTCHAR 0446
ENCODING 1094
SWIDTH 468 0
DWIDTH 13 0
BBX 11 17 2 -4
BITMAP
3060
3060
3060
70E0
60E0
60C0
60C0
E0C0
C1C0
C180
E1C0
7FE0
7EE0
00C0
00C0
00C0
00C0
ENDCHAR
STARTCHAR 0447
ENCODING 1095
SWIDTH 468 0
DWIDTH 13 0
BBX 11 13 3 0
BITMAP
6060
6060
E060
E0E0
C0C0
C0C0
F3C0
7FC0
0180
0180
0180
0380
0300
ENDCHAR
STARTCHAR 0448
ENCODING 1096
SWIDTH 468 0
DWIDTH 13 0
BBX 14 13 1 0
BITMAP
300C
3018
3018
3318
7318
6330
6330
6630
E630
C670
C660
FFF0
7FB0
ENDCHAR
STARTCHAR 0449
ENCODING 1097
SWIDTH 468 0
DWIDTH 13 0
BBX 14 17 1 -4
BITMAP
300C
3018
3018
3318
7318
6330
6330
6630
E630
C670
C670
FFF8
7F98
0038
0030
0030
0030
ENDCHAR
STARTCHAR 044A
ENCODING 1098
SWIDTH 468 0
DWIDTH 13 0
BBX 11 13 3 0
BITMAP
F800
F800
3800
3000
3000
3F80
7FC0
60E0
60E0
60C0
E0C0
FF80
FF00
ENDCHAR
STARTCHAR 044B
ENCODING 1099
SWIDTH 468 0
DWIDTH 13 0
BBX 14 13 1 0
BITMAP
180C
380C
301C
3018
3018
7F18
7F18
63B8
61B0
63B0
C330
FF70
FE60
ENDCHAR
STARTCHAR 044C
ENCODING 1100
SWIDTH 468 0
DWIDTH 13 0
BBX 11 13 2 0
BITMAP
1800
1800
3800
3800
3000
3FC0
7FE0
7060
6060
6060
E0E0
FFC0
FF80
ENDCHAR
STARTCHAR 044D
ENCODING 1101
SWIDTH 468 0
DWIDTH 13 0
BBX 12 13 2 0
BITMAP
1F80
1FE0
00E0
0070
0070
0FF0
1FF0
0060
0060
00E0
01C0
FF80
FF00
ENDCHAR
STARTCHAR 044E
ENCODING 1102
SWIDTH 468 0
DWIDTH 13 0
BBX 14 13 1 0
BITMAP
1878
18F8
3998
339C
331C
331C
3F18
7F18
6718
6738
6730
E3F0
C3E0
ENDCHAR
STARTCHAR 044F
ENCODING 1103
SWIDTH 468 0
DWIDTH 13 0
BBX 12 13 2 0
BITMAP
07F0
1FF0
3830
3070
3070
3060
3FE0
1FE0
18E0
30C0
70C0
E0C0
C1C0
ENDCHAR
STARTCHAR 0450
ENCODING 1104
SWIDTH 468 0
DWIDTH 13 0
BBX 12 19 2 0
BITMAP
0100
0380
01C0
00C0
0040
0000
07E0
1FF0
3870
7030
6070
E0E0
FFC0
FF00
C000
C000
E000
7FC0
3FC0
ENDCHAR
STARTCHAR 0451
ENCODING 1105
SWIDTH 468 0
DWIDTH 13 0
BBX 13 18 2 0
BITMAP
0338
0738
0210
0000
0000
07E0
1FF0
3870
7030
6070
E0E0
FFC0
FF00
C000
C000
E000
7FC0
3FC0
ENDCHAR
STARTCHAR 0452
ENCODING 1106
SWIDTH 468 0
DWIDTH 13 0
BBX 12 24 2 -5
BITMAP
0600
0E00
3FC0
3FC0
0C00
1C00
1FC0
1FE0
1870
3870
3870
3070
3060
3060
7060
60E0
60C0
60C0
E0C0
01C0
0180
0380
0F00
0C00
ENDCHAR
STARTCHAR 0453
ENCODING 1107
SWIDTH 468 0
DWIDTH 13 0
BBX 11 19 2 0
BITMAP
0040
00E0
01C0
0380
0000
0000
1FC0
1FE0
0060
0060
00E0
03C0
1F80
7C00
6000
E000
E000
FFC0
7FC0
ENDCHAR
STARTCHAR 0454
ENCODING 1108
SWIDTH 468 0
DWIDTH 13 0
BBX 12 13 2 0
BITMAP
07F0
1FF0
3C00
3000
7000
7F80
FF80
E000
E000
E000
6000
7FC0
3FC0
ENDCHAR
STARTCHAR 0455
ENCODING 1109
SWIDTH 468 0
DWIDTH 13 0
BBX 11 13 3 0
BITMAP
0FE0
3FC0
3000
3000
3000
3C00
1F00
0780
0180
0180
0180
FF80
FE00
ENDCHAR
STARTCHAR 0456
ENCODING 1110
SWIDTH 468 0
DWIDTH 13 0
BBX 8 19 4 0
BITMAP
04
0E
0E
0E
00
00
FC
FC
1C
18
18
18
38
30
30
30
30
3F
1F
ENDCHAR
STARTCHAR 0457
ENCODING 1111
SWIDTH 468 0
DWIDTH 13 0
BBX 9 18 4 0
BITMAP
3180
3B80
3180
0000
0000
FC00
FC00
1C00
1800
1800
1800
3800
3000
3000
3000
3000
3F00
1F00
ENDCHAR
STARTCHAR 0458
ENCODING 1112
SWIDTH 468 0
DWIDTH 13 0
BBX 13 23 1 -4
BITMAP
0078
0078
0070
0000
0000
07F0
0FF0
0070
0060
0060
0060
00E0
00C0
00C0
00C0
01C0
01C0
0180
0180
0380
C700
FE00
3800
ENDCHAR
STARTCHAR 0459
ENCODING 1113
SWIDTH 468 0
DWIDTH 13 0
BBX 14 13 0 0
BITMAP
07E0
07E0
0660
06E0
0CC0
0CF8
0CFC
18CC
198C
198C
3198
F1F8
C3F0
ENDCHAR
STARTCHAR 045A
ENCODING 1114
SWIDTH 468 0
DWIDTH 13 0
BBX 13 13 1 0
BITMAP
18C0
18C0
18C0
30C0
3180
3FF0
3FF8
6198
6318
6318
6330
C3F0
C7E0
ENDCHAR
STARTCHAR 045B
ENCODING 1115
SWIDTH 468 0
DWIDTH 13 0
BBX 12 19 2 0
BITMAP
0600
0E00
3FC0
3FC0
0C00
1C00
1FC0
1FE0
1870
3870
3870
3070
3060
3060
7060
60E0
60C0
60C0
E0C0
ENDCHAR
STARTCHAR 045C
ENCODING 1116
SWIDTH 468 0
DWIDTH 13 0
BBX 13 19 2 0
BITMAP
0020
0070
00C0
0180
0100
0000
1838
3870
38E0
3380
3700
3E00
7C00
6600
6700
6380
E1C0
C1C0
C0E0
ENDCHAR
STARTCHAR 045D
ENCODING 1117
SWIDTH 468 0
DWIDTH 13 0
BBX 12 19 2 0
BITMAP
0200
0700
0380
0180
0080
0000
3030
3030
3070
7070
7060
6060
60E0
60E0
E0C0
E0C0
E1C0
7FC0
3EC0
ENDCHAR
STARTCHAR 045E
ENCODING 1118
SWIDTH 468 0
DWIDTH 13 0
BBX 15 23 0 -5
BITMAP
030C
01F8
00F0
0000
0000
0C0E
0C0C
0C0C
0C1C
0E18
0E18
0630
0630
0660
0760
07C0
03C0
0380
0300
0700
9E00
FC00
E000
ENDCHAR
STARTCHAR 045F
ENCODING 1119
SWIDTH 468 0
DWIDTH 13 0
BBX 12 18 2 -5
BITMAP
3030
3030
3070
7070
7060
6060
60E0
60E0
E0C0
E0C0
E1C0
7FC0
3EC0
0000
1C00
1800
1800
1800
ENDCHAR
STARTCHAR 0462
ENCODING 1122
SWIDTH 468 0
DWIDTH 13 0
BBX 11 18 3 0
BITMAP
0C00
0C00
7FC0
7FC0
1800
1800
3800
3F00
3FC0
31C0
70E0
70E0
60E0
60C0
E0C0
E1C0
FF80
FE00
ENDCHAR
STARTCHAR 0463
ENCODING 1123
SWIDTH 468 0
DWIDTH 13 0
BBX 14 13 0 0
BITMAP
1F80
1FC0
18C0
18C0
30C0
31F8
31FC
318C
718C
638C
630C
63F8
E3F0
ENDCHAR
STARTCHAR 0472
ENCODING 1138
SWIDTH 468 0
DWIDTH 13 0
BBX 13 18 2 0
BITMAP
0180
07E0
0F70
1C38
3838
3018
7018
6038
7E38
FFB0
E3F0
C030
C070
C060
E0E0
E1C0
7F80
3F00
ENDCHAR
STARTCHAR 0473
ENCODING 1139
SWIDTH 468 0
DWIDTH 13 0
BBX 12 13 2 0
BITMAP
07C0
1FE0
3870
3030
7030
7C30
FFF0
E3F0
E060
E0E0
E1C0
7F80
3F00
ENDCHAR
STARTCHAR 0474
ENCODING 1140
SWIDTH 468 0
DWIDTH 13 0
BBX 14 17 4 0
BITMAP
C07C
C0F8
C0C0
C1C0
C180
C380
C300
C700
C600
CE00
CC00
DC00
D800
F800
F000
F000
E000
ENDCHAR
STARTCHAR 0475
ENCODING 1141
SWIDTH 468 0
DWIDTH 13 0
BBX 13 13 3 0
BITMAP
E078
E0F0
E1C0
E180
E380
E300
6600
6600
6C00
6C00
7800
7800
7000
ENDCHAR
STARTCHAR 048A
ENCODING 1162
SWIDTH 468 0
DWIDTH 13 0
BBX 14 27 1 -5
BITMAP
030C
03F8
01F0
0000
0000
0C1C
0C1C
0C3C
1878
1858
18D8
1998
3138
3330
3630
3630
6C70
7860
7860
7060
E070
E0F0
0060
00E0
01C0
0380
0100
ENDCHAR
STARTCHAR 048B
ENCODING 1163
SWIDTH 468 0
DWIDTH 13 0
BBX 12 22 2 -4
BITMAP
0C30
07E0
03C0
0000
0000
3070
3060
3060
7060
70E0
60E0
60C0
E0C0
E1C0
E1C0
E1C0
7FE0
7EE0
00C0
00C0
0180
0300
ENDCHAR
STARTCHAR 048C
ENCODING 1164
SWIDTH 468 0
DWIDTH 13 0
BBX 11 17 2 0
BITMAP
0C00
0C00
3F80
7F80
1800
1800
1F80
3FC0
38E0
3060
3060
7060
7060
60E0
61C0
7F80
FF00
ENDCHAR
STARTCHAR 048D
ENCODING 1165
SWIDTH 468 0
DWIDTH 13 0
BBX 11 14 2 0
BITMAP
1800
1800
7F00
FF00
3000
3000
3FC0
7FE0
6060
6060
6060
E0E0
FFC0
FF80
ENDCHAR
STARTCHAR 048E
ENCODING 1166
SWIDTH 468 0
DWIDTH 13 0
BBX 13 17 2 0
BITMAP
1FE0
1FF0
1838
1818
3818
3818
3338
3170
31E0
7FC0
7C80
60C0
60C0
E000
C000
C000
C000
ENDCHAR
STARTCHAR 048F
ENCODING 1167
SWIDTH 468 0
DWIDTH 13 0
BBX 13 18 1 -5
BITMAP
0FE0
1FF0
1838
1838
1838
3838
3038
3030
3370
7360
71E0
7FC0
7F80
E080
E0C0
C000
C000
C000
ENDCHAR
STARTCHAR 0490
ENCODING 1168
SWIDTH 468 0
DWIDTH 13 0
BBX 15 20 1 0
BITMAP
0006
0006
0006
03FE
03FE
0700
0700
0600
0600
0E00
0E00
0C00
0C00
0C00
1C00
1800
1800
1800
FF00
FF00
ENDCHAR
STARTCHAR 0491
ENCODING 1169
SWIDTH 468 0
DWIDTH 13 0
BBX 11 16 3 0
BITMAP
0060
0060
0060
1FE0
3FC0
3800
3000
3000
3000
7000
6000
6000
6000
E000
C000
C000
ENDCHAR
STARTCHAR 0492
ENCODING 1170
SWIDTH 468 0
DWIDTH 13 0
BBX 15 17 1 0
BITMAP
03FE
03FE
0300
0700
0700
0600
0600
3FC0
3FC0
0C00
0C00
0C00
1C00
1800
1800
FF80
FF00
ENDCHAR
STARTCHAR 0493
ENCODING 1171
SWIDTH 468 0
DWIDTH 13 0
BBX 12 13 2 0
BITMAP
1FC0
1FE0
0070
0070
3060
3FC0
1F80
3DC0
7040
E000
E000
7FC0
3FC0
ENDCHAR
STARTCHAR 0494
ENCODING 1172
SWIDTH 468 0
DWIDTH 13 0
BBX 13 22 1 -5
BITMAP
0FF8
0FF8
0C00
1C00
1C00
1800
1B80
1FE0
38F0
3070
3030
3030
7030
6030
6070
6070
E060
00E0
01C0
0780
1F00
1800
ENDCHAR
STARTCHAR 0495
ENCODING 1173
SWIDTH 468 0
DWIDTH 13 0
BBX 11 18 2 -5
BITMAP
1FE0
3FC0
3800
3000
3000
3F00
7FC0
61C0
60C0
60E0
E0E0
C0C0
C0C0
01C0
0180
0700
1E00
1800
ENDCHAR
STARTCHAR 0496
ENCODING 1174
SWIDTH 468 0
DWIDTH 13 0
BBX 17 22 0 -5
BITMAP
0E7380
066300
066600
066600
066C00
02D800
03F000
03F000
07F000
07B000
0DB000
19B000
39B000
331800
631800
631C00
C31C00
001800
001800
001800
003800
003000
ENDCHAR
STARTCHAR 0497
ENCODING 1175
SWIDTH 468 0
DWIDTH 13 0
BBX 16 17 0 -4
BITMAP
18C7
3CCE
0CD8
0CD8
0C90
0DB0
0FF0
09B0
0930
1B30
1330
F33C
E21C
000C
000C
0018
0018
ENDCHAR
STARTCHAR 0498
ENCODING 1176
SWIDTH 468 0
DWIDTH 13 0
BBX 14 22 1 -4
BITMAP
0FF0
0F78
001C
001C
0018
0038
0070
0FE0
0FE0
0070
0030
0030
0030
0070
00E0
FFE0
7F80
0C00
0C00
0600
3C00
3800
ENDCHAR
STARTCHAR 0499
ENCODING 1177
SWIDTH 468 0
DWIDTH 13 0
BBX 12 18 2 -5
BITMAP
1FE0
1FE0
0070
0030
0060
0FE0
1F80
01E0
00E0
00E0
00E0
FFC0
FF00
0800
1C00
0C00
3C00
3800
ENDCHAR
STARTCHAR 049A
ENCODING 1178
SWIDTH 468 0
DWIDTH 13 0
BBX 15 22 1 -5
BITMAP
0C0E
0C1C
0C38
1C70
1CE0
19C0
1B80
1E00
3E00
3700
3380
3180
71C0
60C0
60E0
60F0
E070
0060
0060
0060
0060
00E0
ENDCHAR
STARTCHAR 049B
ENCODING 1179
SWIDTH 468 0
DWIDTH 13 0
BBX 12 17 2 -4
BITMAP
1830
38E0
39C0
3380
3700
3C00
7C00
6E00
6700
6300
E180
C1E0
C1E0
00C0
00C0
00C0
01C0
ENDCHAR
STARTCHAR 049C
ENCODING 1180
SWIDTH 468 0
DWIDTH 13 0
BBX 15 17 1 0
BITMAP
1C0E
1C0C
181C
1B38
1B30
3B60
32C0
3F80
3F80
77C0
64C0
6CC0
6CE0
E060
C060
C070
C070
ENDCHAR
STARTCHAR 049D
ENCODING 1181
SWIDTH 468 0
DWIDTH 13 0
BBX 14 13 1 0
BITMAP
181C
1838
3830
3260
36C0
3F80
7F80
6580
6DC0
6CC0
E0E0
C060
C070
ENDCHAR
STARTCHAR 049E
ENCODING 1182
SWIDTH 468 0
DWIDTH 13 0
BBX 14 17 2 0
BITMAP
0C1C
1C38
7E70
7EE0
19C0
3B80
3700
3E00
3E00
7600
6300
6380
6180
E1C0
E0C0
C0E0
C060
ENDCHAR
STARTCHAR 049F
ENCODING 1183
SWIDTH 468 0
DWIDTH 13 0
BBX 13 14 2 0
BITMAP
1800
1838
FC70
FCE0
31C0
3700
3E00
7C00
6E00
6700
6380
E1C0
C1C0
C0E0
ENDCHAR
STARTCHAR 04A0
ENCODING 1184
SWIDTH 468 0
DWIDTH 13 0
BBX 13 17 3 0
BITMAP
7C38
7C70
1860
18C0
19C0
3B80
3700
3E00
3C00
7600
7700
6300
6380
6180
E180
C1C0
C0C0
ENDCHAR
STARTCHAR 04A1
ENCODING 1185
SWIDTH 468 0
DWIDTH 13 0
BBX 12 13 3 0
BITMAP
F870
F8E0
39C0
3380
3700
3C00
7C00
6E00
6700
6300
E380
C180
C1C0
ENDCHAR
STARTCHAR 04A2
ENCODING 1186
SWIDTH 468 0
DWIDTH 13 0
BBX 15 22 1 -5
BITMAP
0C0E
0C0C
1C0C
180C
181C
181C
3818
3FF8
3FF8
3038
3030
7030
6030
6070
6060
E070
C070
0030
0070
0060
0060
0060
ENDCHAR
STARTCHAR 04A3
ENCODING 1187
SWIDTH 468 0
DWIDTH 13 0
BBX 12 17 2 -4
BITMAP
3830
3830
3030
3070
3060
7FE0
7FE0
60E0
60C0
E0C0
C0C0
C1E0
C1E0
00C0
00C0
00C0
01C0
ENDCHAR
STARTCHAR 04A4
ENCODING 1188
SWIDTH 468 0
DWIDTH 13 0
BBX 16 17 1 0
BITMAP
0C0F
0C1F
1C18
1C18
1818
1838
3830
3FF0
3FF0
3070
3060
7060
6060
60E0
60E0
E0C0
C0C0
ENDCHAR
STARTCHAR 04A5
ENCODING 1189
SWIDTH 468 0
DWIDTH 13 0
BBX 15 13 1 0
BITMAP
1C3E
183E
1830
1870
3860
3FE0
3FE0
30E0
70C0
60C0
60C0
61C0
E1C0
ENDCHAR
STARTCHAR 04A6
ENCODING 1190
SWIDTH 468 0
DWIDTH 13 0
BBX 13 22 1 -5
BITMAP
0FC0
0FC0
18C0
1980
1980
1980
31E0
33F0
3338
3318
6318
6618
6618
6638
C630
CE30
CC30
0060
00E0
01C0
0380
0200
ENDCHAR
STARTCHAR 04A7
ENCODING 1191
SWIDTH 468 0
DWIDTH 13 0
BBX 13 18 1 -5
BITMAP
1F00
3F80
3180
3180
3180
61F0
63F0
6338
6318
E318
C718
C638
C630
0030
0070
00E0
03C0
0300
ENDCHAR
STARTCHAR 04A8
ENCODING 1192
SWIDTH 468 0
DWIDTH 13 0
BBX 13 23 2 -5
BITMAP
00C0
07F8
0F30
1C00
3800
71E0
63F0
6730
E630
C630
CC30
CC30
CC70
CC60
CCE0
ECC0
7F80
3F00
0E00
0600
0780
03C0
0040
ENDCHAR
STARTCHAR 04A9
ENCODING 1193
SWIDTH 468 0
DWIDTH 13 0
BBX 12 17 2 -4
BITMAP
0F80
1F80
3800
71C0
63E0
E670
C630
CC30
CC60
CC60
ECC0
7FC0
3F00
0E00
0700
0380
0080
ENDCHAR
STARTCHAR 04AA
ENCODING 1194
SWIDTH 468 0
DWIDTH 13 0
BBX 14 23 2 -5
BITMAP
0040
03FC
0FB8
1C00
1800
3800
3000
7000
6000
6000
6000
E000
E000
6000
6000
7000
3FC0
1FC0
0C00
0C00
0600
3E00
3800
ENDCHAR
STARTCHAR 04AB
ENCODING 1195
SWIDTH 468 0
DWIDTH 13 0
BBX 12 18 2 -5
BITMAP
07F0
1FF0
3800
7000
6000
E000
C000
C000
C000
C000
E000
7FC0
3FC0
0C00
1C00
0C00
3C00
3800
ENDCHAR
STARTCHAR 04AC
ENCODING 1196
SWIDTH 468 0
DWIDTH 13 0
BBX 12 22 4 -5
BITMAP
7FF0
FFF0
0600
0E00
0E00
0C00
0C00
0C00
1C00
1800
1800
1800
3800
3000
3000
3800
7800
3000
3000
3000
3000
7000
ENDCHAR
STARTCHAR 04AD
ENCODING 1197
SWIDTH 468 0
DWIDTH 13 0
BBX 13 17 1 -4
BITMAP
1F78
1FF8
3198
3198
3398
3318
7318
6330
6030
6030
E030
C078
C070
0030
0030
0070
0060
ENDCHAR
STARTCHAR 04AE
ENCODING 1198
SWIDTH 468 0
DWIDTH 13 0
BBX 13 17 4 0
BITMAP
C038
E030
6070
60E0
60C0
6180
3380
3700
3600
1C00
1800
1800
1800
3800
3000
3000
3000
ENDCHAR
STARTCHAR 04AF
ENCODING 1199
SWIDTH 468 0
DWIDTH 13 0
BBX 11 18 4 -5
BITMAP
C0E0
C0C0
C0C0
C180
C180
C300
C300
E600
6E00
6C00
7800
7800
7000
6000
6000
6000
E000
C000
ENDCHAR
STARTCHAR 04B0
ENCODING 1200
SWIDTH 468 0
DWIDTH 13 0
BBX 14 17 3 0
BITMAP
601C
7018
3038
3070
3060
38C0
1980
1B80
1F00
0E00
7FC0
FFC0
1C00
1C00
1800
1800
1800
ENDCHAR
STARTCHAR 04B1
ENCODING 1201
SWIDTH 468 0
DWIDTH 13 0
BBX 13 18 2 -5
BITMAP
3038
3030
3030
3060
3060
30C0
30C0
3980
1B80
1B00
1E00
FF80
FF80
1800
1800
1800
3800
3000
ENDCHAR
STARTCHAR 04B2
ENCODING 1202
SWIDTH 468 0
DWIDTH 13 0
BBX 15 22 1 -5
BITMAP
0E0E
0E0C
0618
0638
0770
0360
03C0
0380
0380
07C0
0EC0
0CC0
18C0
38E0
7060
E070
C070
0060
0060
0060
0060
00E0
ENDCHAR
STARTCHAR 04B3
ENCODING 1203
SWIDTH 468 0
DWIDTH 13 0
BBX 13 17 1 -4
BITMAP
1818
1C30
0C70
0EE0
07C0
0780
0700
0780
0D80
19C0
30C0
70F0
E0F0
0060
0060
0060
00E0
ENDCHAR
STARTCHAR 04B4
ENCODING 1204
SWIDTH 468 0
DWIDTH 13 0
BBX 13 22 2 -5
BITMAP
3F98
3F98
0C18
0C38
1C38
1830
1830
1830
3870
3060
3060
3060
70E0
60C0
60C0
7FE0
FFE0
00C0
00C0
00C0
00C0
01C0
ENDCHAR
STARTCHAR 04B5
ENCODING 1205
SWIDTH 468 0
DWIDTH 13 0
BBX 12 17 2 -4
BITMAP
7F30
FE30
3870
3870
3060
3060
70E0
70E0
60C0
60C0
61C0
7FE0
3E60
0060
00C0
00C0
00C0
ENDCHAR
STARTCHAR 04B6
ENCODING 1206
SWIDTH 468 0
DWIDTH 13 0
BBX 11 22 4 -5
BITMAP
6060
6060
E060
E0E0
C0E0
C0C0
C0C0
C1C0
E1C0
FF80
7F80
0180
0380
0300
0300
0380
0780
0300
0300
0300
0300
0700
ENDCHAR
STARTCHAR 04B7
ENCODING 1207
SWIDTH 468 0
DWIDTH 13 0
BBX 11 17 3 -4
BITMAP
6060
6060
E060
E0E0
C0C0
C0C0
F3C0
7FC0
0180
0180
0180
03C0
03C0
0180
0180
0180
0380
ENDCHAR
STARTCHAR 04B8
ENCODING 1208
SWIDTH 468 0
DWIDTH 13 0
BBX 12 17 4 0
BITMAP
6030
6070
E060
E060
C060
C0E0
CCC0
CCC0
E8C0
FFC0
7F80
1980
1980
3380
0380
0300
0300
ENDCHAR
STARTCHAR 04B9
ENCODING 1209
SWIDTH 468 0
DWIDTH 13 0
BBX 11 13 3 0
BITMAP
6060
6060
E060
E0E0
CCC0
CCC0
FFC0
7FC0
1980
1980
1980
0380
0300
ENDCHAR
STARTCHAR 04BA
ENCODING 1210
SWIDTH 468 0
DWIDTH 13 0
BBX 13 17 1 0
BITMAP
0C00
0C00
0C00
1C00
1C00
1800
1FE0
1FF0
3830
3038
3038
3030
7030
6030
6070
6070
E060
ENDCHAR
STARTCHAR 04BB
ENCODING 1211
SWIDTH 468 0
DWIDTH 13 0
BBX 12 19 1 0
BITMAP
0600
0E00
0C00
0C00
0C00
1C00
1FE0
1FF0
1870
1830
3830
3030
3030
3070
7060
6060
6060
60E0
E0C0
ENDCHAR
STARTCHAR 04BC
ENCODING 1212
SWIDTH 468 0
DWIDTH 13 0
BBX 14 18 2 0
BITMAP
0020
01F8
03D8
0318
071C
661C
CE1C
EC18
7FF8
3FF8
1C00
1800
1800
1800
1800
1C00
0FC0
0FE0
ENDCHAR
STARTCHAR 04BD
ENCODING 1213
SWIDTH 468 0
DWIDTH 13 0
BBX 13 13 2 0
BITMAP
01F0
07F8
0E38
CC18
DC38
D870
FFE0
3F80
3800
1800
1800
1FE0
0FC0
ENDCHAR
STARTCHAR 04BE
ENCODING 1214
SWIDTH 468 0
DWIDTH 13 0
BBX 14 23 2 -5
BITMAP
0020
01F8
03D8
0318
071C
661C
CE1C
EC18
7FF8
3FF8
1C00
1800
1800
1800
1800
1C00
0FC0
0FE0
0300
0700
0600
0600
0600
ENDCHAR
STARTCHAR 04BF
ENCODING 1215
SWIDTH 468 0
DWIDTH 13 0
BBX 13 17 2 -4
BITMAP
01F0
07F8
0E38
CC18
DC38
D870
FFE0
3F80
3800
1800
1800
1FE0
0FC0
0700
0600
0600
0600
ENDCHAR
STARTCHAR 04C0
ENCODING 1216
SWIDTH 468 0
DWIDTH 13 0
BBX 13 17 2 0
BITMAP
0FF8
0FF8
0180
0180
0380
0300
0300
0300
0700
0600
0600
0600
0E00
0C00
0C00
FF80
FF80
ENDCHAR
STARTCHAR 04C1
ENCODING 1217
SWIDTH 468 0
DWIDTH 13 0
BBX 17 22 0 0
BITMAP
00C600
00FE00
007C00
000000
000000
0E7380
066300
066600
066600
066C00
02D800
03F000
03F000
07F000
07B000
0DB000
199800
399800
331800
631800
631800
C31800
ENDCHAR
STARTCHAR 04C2
ENCODING 1218
SWIDTH 468 0
DWIDTH 13 0
BBX 16 18 0 0
BITMAP
018C
01FC
00F8
0000
0000
18C7
3CCE
0CD8
0CD8
0C90
0DB0
0FF0
09B0
0930
1B30
1330
F338
E218
ENDCHAR
STARTCHAR 04C3
ENCODING 1219
SWIDTH 468 0
DWIDTH 13 0
BBX 15 22 1 -5
BITMAP
0C0E
0C1C
0C38
1C70
1CE0
19C0
1B80
1F00
3FC0
30E0
3070
3030
7030
6030
6030
6070
E060
00E0
01C0
0780
1F00
1800
ENDCHAR
STARTCHAR 04C4
ENCODING 1220
SWIDTH 468 0
DWIDTH 13 0
BBX 13 18 2 -5
BITMAP
1838
3870
38C0
3380
3700
3E00
7F80
61C0
60C0
60C0
E0C0
C0C0
C0C0
01C0
0180
0780
1F00
1800
ENDCHAR
STARTCHAR 04C5
ENCODING 1221
SWIDTH 468 0
DWIDTH 13 0
BBX 15 22 0 -5
BITMAP
00FE
00FE
01CE
018C
018C
038C
031C
0318
0318
0618
0638
0E30
0C30
1C30
3870
F078
E078
0030
0070
00E0
01C0
0080
ENDCHAR
STARTCHAR 04C6
ENCODING 1222
SWIDTH 468 0
DWIDTH 13 0
BBX 14 17 0 -4
BITMAP
01FC
01FC
0398
0318
0318
0738
0630
0630
0C30
1C70
3860
F070
E070
0030
0060
00C0
0080
ENDCHAR
STARTCHAR 04C7
ENCODING 1223
SWIDTH 468 0
DWIDTH 13 0
BBX 15 22 1 -5
BITMAP
0C06
0C0E
1C0C
1C0C
180C
181C
3818
3FF8
3FF8
3038
3030
7030
6030
6070
6070
E060
C060
00E0
00C0
01C0
07C0
0600
ENDCHAR
STARTCHAR 04C8
ENCODING 1224
SWIDTH 468 0
DWIDTH 13 0
BBX 12 18 2 -5
BITMAP
3830
3830
3030
3070
3060
7FE0
7FE0
60E0
60E0
E0C0
C0C0
C1C0
C1C0
0180
0180
0380
1F00
0C00
ENDCHAR
STARTCHAR 04C9
ENCODING 1225
SWIDTH 468 0
DWIDTH 13 0
BBX 14 21 1 -5
BITMAP
0C0C
0C0C
1C0C
1C1C
1818
1818
3818
3FF8
3FF0
3030
3030
7070
6060
6060
6060
E0F0
C0F0
0060
00E0
00C0
0380
ENDCHAR
STARTCHAR 04CA
ENCODING 1226
SWIDTH 468 0
DWIDTH 13 0
BBX 12 17 2 -4
BITMAP
3830
3870
3060
3060
3060
7FE0
7FC0
60C0
60C0
E1C0
C180
C1C0
C1C0
00C0
0180
0300
0200
ENDCHAR
STARTCHAR 04CB
ENCODING 1227
SWIDTH 468 0
DWIDTH 13 0
BBX 12 22 4 -5
BITMAP
6030
6070
E060
E060
C060
C0E0
C0C0
C0C0
E0C0
FFC0
3F80
0180
0180
0380
0380
0700
0700
0E00
0C00
0C00
0C00
1C00
ENDCHAR
STARTCHAR 04CC
ENCODING 1228
SWIDTH 468 0
DWIDTH 13 0
BBX 11 17 3 -4
BITMAP
6060
6060
E060
E0E0
C0C0
C0C0
F3C0
7FC0
0180
0180
0180
0780
0700
0600
0600
0E00
0C00
ENDCHAR
STARTCHAR 04CD
ENCODING 1229
SWIDTH 468 0
DWIDTH 13 0
BBX 14 21 1 -5
BITMAP
0C1C
0E18
1E38
1E38
1678
3658
36D8
3698
37B0
6330
6030
6030
6070
C060
C060
C070
C070
0070
0060
00C0
01C0
ENDCHAR
STARTCHAR 04CE
ENCODING 1230
SWIDTH 468 0
DWIDTH 13 0
BBX 13 17 1 -4
BITMAP
1838
1838
3878
3C70
3CF0
6CB0
6DB0
6D30
6F70
CE60
C060
C070
C070
0070
0060
00C0
0080
ENDCHAR
STARTCHAR 04CF
ENCODING 1231
SWIDTH 468 0
DWIDTH 13 0
BBX 13 17 2 0
BITMAP
0FF8
0FF8
0180
0180
0380
0300
0300
0300
0700
0600
0600
0600
0E00
0C00
0C00
FF80
FF80
ENDCHAR
STARTCHAR 04D0
ENCODING 1232
SWIDTH 468 0
DWIDTH 13 0
BBX 15 22 0 0
BITMAP
00C6
00FE
0078
0000
0000
0070
00F0
01F0
01B0
0330
0330
0638
0638
0C38
1C18
1818
3FF8
3FF8
7018
6018
E018
C018
ENDCHAR
STARTCHAR 04D1
ENCODING 1233
SWIDTH 468 0
DWIDTH 13 0
BBX 13 18 2 0
BITMAP
0318
03F0
01E0
0000
0000
07F0
1FF0
3C30
7070
6060
E060
E060
C0E0
C0C0
C0C0
E1C0
7FC0
7EC0
ENDCHAR
STARTCHAR 04D2
ENCODING 1234
SWIDTH 468 0
DWIDTH 13 0
BBX 15 22 0 0
BITMAP
00CE
01CE
008C
0000
0000
0070
00F0
01F0
01B0
0330
0330
0638
0638
0C38
1C18
1818
3FF8
3FF8
7018
6018
E018
C018
ENDCHAR
STARTCHAR 04D3
ENCODING 1235
SWIDTH 468 0
DWIDTH 13 0
BBX 13 18 2 0
BITMAP
0338
0738
0310
0000
0000
07F0
1FF0
3C30
7070
6060
E060
E060
C0E0
C0C0
C0C0
E1C0
7FC0
7EC0
ENDCHAR
STARTCHAR 04D4
ENCODING 1236
SWIDTH 468 0
DWIDTH 13 0
BBX 17 17 0 0
BITMAP
007F80
005F00
00F800
01B000
01B000
033000
037000
067C00
067C00
0C6000
1CE000
1FC000
3FC000
30C000
71C000
61F800
E1F800
ENDCHAR
STARTCHAR 04D5
ENCODING 1237
SWIDTH 468 0
DWIDTH 13 0
BBX 14 13 1 0
BITMAP
1E38
1F7C
03CC
038C
038C
0F18
3FF0
73E0
6300
E700
E780
FDF0
79F0
ENDCHAR
STARTCHAR 04D6
ENCODING 1238
SWIDTH 468 0
DWIDTH 13 0
BBX 14 22 2 0
BITMAP
031C
03F8
01F0
0000
0000
0FFC
0FF8
1C00
1C00
1800
1800
1800
3FE0
3FE0
3000
3000
7000
6000
6000
6000
FFE0
FFC0
ENDCHAR
STARTCHAR 04D7
ENCODING 1239
SWIDTH 468 0
DWIDTH 13 0
BBX 13 18 2 0
BITMAP
0638
07F0
03E0
0000
0000
07E0
1FF0
3870
7030
6070
E0E0
FFC0
FF00
C000
C000
E000
7FC0
3FC0
ENDCHAR
STARTCHAR 04D8
ENCODING 1240
SWIDTH 468 0
DWIDTH 13 0
BBX 13 18 2 0
BITMAP
0180
1FE0
1CF0
0030
0038
0038
0018
0018
0018
7FF8
FFF0
C030
C070
C060
C0E0
E1C0
7F80
3F00
ENDCHAR
STARTCHAR 04D9
ENCODING 1241
SWIDTH 468 0
DWIDTH 13 0
BBX 12 13 2 0
BITMAP
1FC0
3FE0
0070
0030
0030
07F0
3FF0
7830
6070
E060
E0E0
7FC0
3F00
ENDCHAR
STARTCHAR 04DA
ENCODING 1242
SWIDTH 468 0
DWIDTH 13 0
BBX 13 22 2 0
BITMAP
0338
0738
0230
0000
0180
1FE0
1CF0
0030
0038
0038
0018
0018
0018
7FF8
FFF0
C030
C070
C060
C0E0
E1C0
7F80
3F00
ENDCHAR
STARTCHAR 04DB
ENCODING 1243
SWIDTH 468 0
DWIDTH 13 0
BBX 12 18 2 0
BITMAP
0630
0770
0620
0000
0000
1FC0
3FE0
0070
0030
0030
07F0
3FF0
7830
6070
E060
E0E0
7FC0
3F00
ENDCHAR
STARTCHAR 04DC
ENCODING 1244
SWIDTH 468 0
DWIDTH 13 0
BBX 17 22 0 0
BITMAP
00C600
00EE00
00C600
000000
000000
0E7380
066300
066600
066600
066C00
02D800
03F000
03F000
07F000
07B000
0DB000
199800
399800
331800
631800
631800
C31800
ENDCHAR
STARTCHAR 04DD
ENCODING 1245
SWIDTH 468 0
DWIDTH 13 0
BBX 16 18 0 0
BITMAP
019C
039C
0188
0000
0000
18C7
3CCE
0CD8
0CD8
0C90
0DB0
0FF0
09B0
0930
1B30
1330
F338
E218
ENDCHAR
STARTCHAR 04DE
ENCODING 1246
SWIDTH 468 0
DWIDTH 13 0
BBX 14 22 1 0
BITMAP
0398
0398
0318
0000
0000
0FF0
0F78
001C
001C
0018
0038
0070
0FE0
0FE0
0070
0030
0030
0030
0070
00E0
FFE0
7F80
ENDCHAR
STARTCHAR 04DF
ENCODING 1247
SWIDTH 468 0
DWIDTH 13 0
BBX 12 18 2 0
BITMAP
0630
0670
0420
0000
0000
1FE0
1FE0
0070
0030
0060
0FE0
1F80
01E0
00E0
00E0
00E0
FFC0
FF00
ENDCHAR
STARTCHAR 04E0
ENCODING 1248
SWIDTH 468 0
DWIDTH 13 0
BBX 15 17 1 0
BITMAP
0FFE
0FFC
0018
0030
0060
00C0
0380
03C0
07E0
0070
0030
0030
0030
0030
0060
FFE0
7F80
ENDCHAR
STARTCHAR 04E1
ENCODING 1249
SWIDTH 468 0
DWIDTH 13 0
BBX 13 18 1 -5
BITMAP
0FF8
0FF8
0030
0060
00C0
0180
0700
0E00
0FC0
01C0
00E0
0060
0060
00E0
01C0
E7C0
FF00
1000
ENDCHAR
STARTCHAR 04E2
ENCODING 1250
SWIDTH 468 0
DWIDTH 13 0
BBX 15 22 1 0
BITMAP
01FC
01FC
0000
0000
0000
0C0E
0C1E
0C1C
183C
186C
18CC
18D8
3198
3318
3718
3638
6C30
6830
7830
7070
E060
E060
ENDCHAR
STARTCHAR 04E3
ENCODING 1251
SWIDTH 468 0
DWIDTH 13 0
BBX 12 18 2 0
BITMAP
07F0
0FE0
0000
0000
0000
3030
3030
3070
7070
7060
6060
60E0
60E0
E0C0
E0C0
E1C0
7FC0
3EC0
ENDCHAR
STARTCHAR 04E4
ENCODING 1252
SWIDTH 468 0
DWIDTH 13 0
BBX 15 22 1 0
BITMAP
019C
039C
0198
0000
0000
0C0E
0C1E
0C1C
183C
186C
18CC
18D8
3198
3318
3718
3638
6C30
6830
7830
7070
E060
E060
ENDCHAR
STARTCHAR 04E5
ENCODING 1253
SWIDTH 468 0
DWIDTH 13 0
BBX 12 18 2 0
BITMAP
0E70
0E70
0420
0000
0000
3030
3030
3070
7070
7060
6060
60E0
60E0
E0C0
E0C0
E1C0
7FC0
3EC0
ENDCHAR
STARTCHAR 04E6
ENCODING 1254
SWIDTH 468 0
DWIDTH 13 0
BBX 13 22 2 0
BITMAP
0318
0738
0330
0000
0080
07F0
0F70
1C38
3818
3018
7018
6018
6038
6038
E030
E030
E070
E060
E0E0
61C0
7F80
3F00
ENDCHAR
STARTCHAR 04E7
ENCODING 1255
SWIDTH 468 0
DWIDTH 13 0
BBX 12 18 2 0
BITMAP
0730
0730
0220
0000
0000
07C0
1FE0
3870
3030
7030
6030
E070
E070
E060
E0E0
E1C0
7F80
3F00
ENDCHAR
STARTCHAR 04E8
ENCODING 1256
SWIDTH 468 0
DWIDTH 13 0
BBX 13 18 2 0
BITMAP
0180
07E0
0E70
1C38
3838
3018
7018
6018
7FF8
FFF0
E030
C030
C070
C060
E0E0
E1C0
7F80
3F00
ENDCHAR
STARTCHAR 04E9
ENCODING 1257
SWIDTH 468 0
DWIDTH 13 0
BBX 12 13 2 0
BITMAP
07C0
1FE0
3870
3030
7030
6030
FFF0
E070
E060
E0E0
E1C0
7F80
3F00
ENDCHAR
STARTCHAR 04EA
ENCODING 1258
SWIDTH 468 0
DWIDTH 13 0
BBX 13 22 2 0
BITMAP
0318
0338
0318
0000
0180
07E0
0E70
1C38
3838
3018
7018
6018
7FF8
FFF0
E030
C030
C070
C060
E0E0
E1C0
7F80
3F00
ENDCHAR
STARTCHAR 04EB
ENCODING 1259
SWIDTH 468 0
DWIDTH 13 0
BBX 12 18 2 0
BITMAP
0730
0730
0220
0000
0000
07C0
1FE0
3870
3030
7030
6030
FFF0
E070
E060
E0E0
E1C0
7F80
3F00
ENDCHAR
STARTCHAR 04EC
ENCODING 1260
SWIDTH 468 0
DWIDTH 13 0
BBX 13 22 2 0
BITMAP
0338
0738
0230
0000
0300
1FE0
1CF0
0030
0038
0038
0018
0018
0FF8
0FF8
0030
0030
0070
0060
00E0
81C0
FF80
FE00
ENDCHAR
STARTCHAR 04ED
ENCODING 1261
SWIDTH 468 0
DWIDTH 13 0
BBX 12 18 2 0
BITMAP
0670
0E70
0420
0000
0000
1F80
1FE0
00E0
0070
0070
0FF0
1FF0
0060
0060
00E0
01C0
FF80
FF00
ENDCHAR
STARTCHAR 04EE
ENCODING 1262
SWIDTH 468 0
DWIDTH 13 0
BBX 16 22 1 0
BITMAP
01FC
01FC
0000
0000
0000
1C03
0C07
0C06
0C0C
0E0C
0618
0638
0630
0670
0360
03C0
03C0
0180
0300
0700
FE00
F800
ENDCHAR
STARTCHAR 04EF
ENCODING 1263
SWIDTH 468 0
DWIDTH 13 0
BBX 15 23 0 -5
BITMAP
01FC
03F8
0000
0000
0000
0C0E
0C0C
0C0C
0C1C
0E18
0E18
0630
0630
0660
0760
07C0
03C0
0380
0300
0700
9E00
FC00
E000
ENDCHAR
STARTCHAR 04F0
ENCODING 1264
SWIDTH 468 0
DWIDTH 13 0
BBX 16 22 1 0
BITMAP
018C
01DC
018C
0000
0000
1C03
0C07
0C06
0C0C
0E0C
0618
0638
0630
0670
0360
03C0
03C0
0180
0300
0700
FE00
F800
ENDCHAR
STARTCHAR 04F1
ENCODING 1265
SWIDTH 468 0
DWIDTH 13 0
BBX 15 23 0 -5
BITMAP
0398
0398
0118
0000
0000
0C0E
0C0C
0C0C
0C1C
0E18
0E18
0630
0630
0660
0760
07C0
03C0
0380
0300
0700
9E00
FC00
E000
ENDCHAR
STARTCHAR 04F2
ENCODING 1266
SWIDTH 468 0
DWIDTH 13 0
BBX 16 23 1 0
BITMAP
0022
0077
00EE
019C
0000
0000
1C03
0C07
0C06
0C0C
0E0C
0618
0638
0630
0670
0360
03C0
03C0
0180
0300
0700
FE00
F800
ENDCHAR
STARTCHAR 04F3
ENCODING 1267
SWIDTH 468 0
DWIDTH 13 0
BBX 16 24 0 -5
BITMAP
0062
0067
00CC
0198
0000
0000
0C0E
0C0C
0C0C
0C1C
0E18
0E18
0630
0630
0660
0760
07C0
03C0
0380
0300
0700
9E00
FC00
E000
ENDCHAR
STARTCHAR 04F4
ENCODING 1268
SWIDTH 468 0
DWIDTH 13 0
BBX 12 22 4 0
BITMAP
1CC0
1CC0
18C0
0000
0000
6030
6070
E060
E060
C060
C0E0
C0C0
C0C0
E0C0
FFC0
3F80
0180
0180
0380
0380
0300
0300
ENDCHAR
STARTCHAR 04F5
ENCODING 1269
SWIDTH 468 0
DWIDTH 13 0
BBX 11 18 3 0
BITMAP
0CE0
1CE0
0C40
0000
0000
6060
6060
E060
E0E0
C0C0
C0C0
F3C0
7FC0
0180
0180
0180
0380
0300
ENDCHAR
STARTCHAR 04F6
ENCODING 1270
SWIDTH 468 0
DWIDTH 13 0
BBX 15 22 1 -5
BITMAP
03FE
03FE
0300
0700
0700
0600
0600
0E00
0E00
0C00
0C00
0C00
1C00
1800
1800
FF80
FF00
0300
0300
0700
0600
0600
ENDCHAR
STARTCHAR 04F7
ENCODING 1271
SWIDTH 468 0
DWIDTH 13 0
BBX 11 17 2 -4
BITMAP
1FC0
1FE0
0060
0060
00E0
03C0
1F80
7C00
6000
E000
E000
FFC0
3FC0
0180
0180
0180
0380
ENDCHAR
STARTCHAR 04F8
ENCODING 1272
SWIDTH 468 0
DWIDTH 13 0
BBX 15 22 1 0
BITMAP
0398
0398
0318
0000
0000
1C06
1806
1806
180E
380C
300C
3E0C
3F1C
7398
6198
6198
61B8
E3B0
C330
C730
FE70
FC60
ENDCHAR
STARTCHAR 04F9
ENCODING 1273
SWIDTH 468 0
DWIDTH 13 0
BBX 14 18 1 0
BITMAP
0338
0738
0210
0000
0000
180C
380C
301C
3018
3018
7F18
7F18
63B8
61B0
63B0
C330
FF70
FE60
ENDCHAR
STARTCHAR 1E80
ENCODING 7808
SWIDTH 468 0
DWIDTH 13 0
BBX 14 23 2 0
BITMAP
0100
0380
01C0
00E0
0040
0000
380C
300C
300C
301C
3018
6018
6318
6730
6530
6D30
4930
D960
F160
F140
E1C0
E1C0
C180
ENDCHAR
STARTCHAR 1E81
ENCODING 7809
SWIDTH 468 0
DWIDTH 13 0
BBX 14 19 2 0
BITMAP
0200
0300
0180
01C0
0080
0000
600C
601C
6018
6318
6738
6730
6F30
CF60
DB60
D160
F1C0
E1C0
C180
ENDCHAR
STARTCHAR 1E82
ENCODING 7810
SWIDTH 468 0
DWIDTH 13 0
BBX 14 23 2 0
BITMAP
0010
0030
0070
00C0
0080
0000
380C
300C
300C
301C
3018
6018
6318
6730
6530
6D30
4930
D960
F160
F140
E1C0
E1C0
C180
ENDCHAR
STARTCHAR 1E83
ENCODING 7811
SWIDTH 468 0
DWIDTH 13 0
BBX 14 19 2 0
BITMAP
0060
00E0
01C0
0380
0100
0000
600C
601C
6018
6318
6738
6730
6F30
CF60
DB60
D160
F1C0
E1C0
C180
ENDCHAR
STARTCHAR 1E84
ENCODING 7812
SWIDTH 468 0
DWIDTH 13 0
BBX 14 22 2 0
BITMAP
0318
03B8
0318
0000
0000
380C
300C
300C
301C
3018
6018
6318
6730
6530
6D30
4930
D960
F160
F140
E1C0
E1C0
C180
ENDCHAR
STARTCHAR 1E85
ENCODING 7813
SWIDTH 468 0
DWIDTH 13 0
BBX 14 18 2 0
BITMAP
0630
0770
0620
0000
0000
600C
601C
6018
6318
6738
6730
6F30
CF60
DB60
D160
F1C0
E1C0
C180
ENDCHAR
STARTCHAR 1EF2
ENCODING 7922
SWIDTH 468 0
DWIDTH 13 0
BBX 13 23 4 0
BITMAP
0400
0E00
0700
0300
0100
0000
C038
E030
6070
60E0
60C0
6180
3380
3700
3600
1C00
1800
1800
1800
3800
3000
3000
3000
ENDCHAR
STARTCHAR 1EF3
ENCODING 7923
SWIDTH 468 0
DWIDTH 13 0
BBX 15 24 0 -5
BITMAP
0080
01C0
00E0
0060
0020
0000
0C0E
0C0C
0C0C
0C1C
0E18
0E18
0630
0630
0660
0760
07C0
03C0
0380
0300
0700
9E00
FC00
E000
ENDCHAR
STARTCHAR 1F00
ENCODING 7936
SWIDTH 468 0
DWIDTH 13 0
BBX 12 19 2 0
BITMAP
00E0
00E0
00C0
0180
0100
0000
07F0
0FF0
1C70
3870
7060
6060
E0E0
E0E0
E0C0
E0C0
E0C0
7FF0
3F60
ENDCHAR
STARTCHAR 1F01
ENCODING 7937
SWIDTH 468 0
DWIDTH 13 0
BBX 12 19 2 0
BITMAP
01C0
01C0
0180
00C0
0000
0000
07F0
0FF0
1C70
3870
7060
6060
E0E0
E0E0
E0C0
E0C0
E0C0
7FF0
3F60
ENDCHAR
STARTCHAR 1F02
ENCODING 7938
SWIDTH 468 0
DWIDTH 13 0
BBX 12 19 2 0
BITMAP
0360
0330
0330
0610
0410
0000
07F0
0FF0
1C70
3870
7060
6060
E0E0
E0E0
E0C0
E0C0
E0C0
7FF0
3F60
ENDCHAR
STARTCHAR 1F03
ENCODING 7939
SWIDTH 468 0
DWIDTH 13 0
BBX 12 19 2 0
BITMAP
06C0
06E0
0460
0620
0220
0000
07F0
0FF0
1C70
3870
7060
6060
E0E0
E0E0
E0C0
E0C0
E0C0
7FF0
3F60
ENDCHAR
STARTCHAR 1F04
ENCODING 7940
SWIDTH 468 0
DWIDTH 13 0
BBX 13 19 2 0
BITMAP
0198
0198
01B0
0360
0000
0000
07F0
0FF0
1C70
3870
7060
6060
E0E0
E0E0
E0C0
E0C0
E0C0
7FF0
3F60
ENDCHAR
STARTCHAR 1F05
ENCODING 7941
SWIDTH 468 0
DWIDTH 13 0
BBX 12 19 2 0
BITMAP
0710
0630
0670
02E0
0040
0000
07F0
0FF0
1C70
3870
7060
6060
E0E0
E0E0
E0C0
E0C0
E0C0
7FF0
3F60
ENDCHAR
STARTCHAR 1F06
ENCODING 7942
SWIDTH 468 0
DWIDTH 13 0
BBX 12 22 2 0
BITMAP
00E0
01F0
0310
0040
00C0
00C0
0180
0100
0000
07F0
0FF0
1C70
3870
7060
6060
E0E0
E0E0
E0C0
E0C0
E0C0
7FF0
3F60
ENDCHAR
STARTCHAR 1F07
ENCODING 7943
SWIDTH 468 0
DWIDTH 13 0
BBX 12 22 2 0
BITMAP
00E0
01F0
0310
00C0
00C0
00C0
00C0
0040
0000
07F0
0FF0
1C70
3870
7060
6060
E0E0
E0E0
E0C0
E0C0
E0C0
7FF0
3F60
ENDCHAR
STARTCHAR 1F08
ENCODING 7944
SWIDTH 468 0
DWIDTH 13 0
BBX 13 18 0 0
BITMAP
0400
0E70
0EF0
0CF0
19B0
0330
0338
0638
0618
0C18
0C18
1818
1FF8
3FF8
3018
6018
E018
C018
ENDCHAR
STARTCHAR 1F09
ENCODING 7945
SWIDTH 468 0
DWIDTH 13 0
BBX 13 18 0 0
BITMAP
0800
1C70
18F0
18F0
0DB0
0330
0338
0638
0618
0C18
0C18
1818
1FF8
3FF8
3018
6018
E018
C018
ENDCHAR
STARTCHAR 1F0A
ENCODING 7946
SWIDTH 468 0
DWIDTH 13 0
BBX 15 18 -2 0
BITMAP
2000
7E1C
763C
663C
C36C
80CC
00CE
018E
0186
0306
0306
0606
07FE
0FFE
0C06
1806
3806
3006
ENDCHAR
STARTCHAR 1F0B
ENCODING 7947
SWIDTH 468 0
DWIDTH 13 0
BBX 14 18 -1 0
BITMAP
4000
FC38
CC78
CC78
46D8
0198
019C
031C
030C
060C
060C
0C0C
0FFC
1FFC
180C
300C
700C
600C
ENDCHAR
STARTCHAR 1F0C
ENCODING 7948
SWIDTH 468 0
DWIDTH 13 0
BBX 14 18 -1 0
BITMAP
2000
7338
7778
6E78
CCD8
0198
019C
031C
030C
060C
060C
0C0C
0FFC
1FFC
180C
300C
700C
600C
ENDCHAR
STARTCHAR 1F0D
ENCODING 7949
SWIDTH 468 0
DWIDTH 13 0
BBX 14 17 -1 1
BITMAP
E338
E778
4E78
6CD8
0198
019C
031C
030C
060C
060C
0C0C
0FFC
1FFC
180C
300C
700C
600C
ENDCHAR
STARTCHAR 1F0E
ENCODING 7950
SWIDTH 468 0
DWIDTH 13 0
BBX 13 19 0 0
BITMAP
1E00
3700
6370
18F0
18F0
19B0
3330
0338
0638
0618
0C18
0C18
1818
1FF8
3FF8
3018
6018
E018
C018
ENDCHAR
STARTCHAR 1F0F
ENCODING 7951
SWIDTH 468 0
DWIDTH 13 0
BBX 13 19 0 0
BITMAP
3E00
7600
6270
18F0
38F0
11B0
1B30
0338
0638
0618
0C18
0C18
1818
1FF8
3FF8
3018
6018
E018
C018
ENDCHAR
STARTCHAR 1F10
ENCODING 7952
SWIDTH 468 0
DWIDTH 13 0
BBX 12 19 2 0
BITMAP
00E0
00E0
0040
0180
0100
0000
07F0
1FF0
3800
3800
3800
1F80
1F80
7800
6000
E000
6000
7FC0
3FC0
ENDCHAR
STARTCHAR 1F11
ENCODING 7953
SWIDTH 468 0
DWIDTH 13 0
BBX 12 19 2 0
BITMAP
01C0
01C0
0180
00C0
0040
0000
07F0
1FF0
3800
3800
3800
1F80
1F80
7800
6000
E000
6000
7FC0
3FC0
ENDCHAR
STARTCHAR 1F12
ENCODING 7954
SWIDTH 468 0
DWIDTH 13 0
BBX 13 19 2 0
BITMAP
03F0
03B0
0330
0618
0410
0000
07F0
1FF0
3800
3800
3800
1F80
1F80
7800
6000
E000
6000
7FC0
3FC0
ENDCHAR
STARTCHAR 1F13
ENCODING 7955
SWIDTH 468 0
DWIDTH 13 0
BBX 12 19 2 0
BITMAP
06C0
0660
0660
0230
0220
0000
07F0
1FF0
3800
3800
3800
1F80
1F80
7800
6000
E000
6000
7FC0
3FC0
ENDCHAR
STARTCHAR 1F14
ENCODING 7956
SWIDTH 468 0
DWIDTH 13 0
BBX 13 19 2 0
BITMAP
0188
0198
01B8
0370
0220
0000
07F0
1FF0
3800
3800
3800
1F80
1F80
7800
6000
E000
6000
7FC0
3FC0
ENDCHAR
STARTCHAR 1F15
ENCODING 7957
SWIDTH 468 0
DWIDTH 13 0
BBX 13 19 2 0
BITMAP
0718
0738
0670
0260
0040
0000
07F0
1FF0
3800
3800
3800
1F80
1F80
7800
6000
E000
6000
7FC0
3FC0
ENDCHAR
STARTCHAR 1F18
ENCODING 7960
SWIDTH 468 0
DWIDTH 13 0
BBX 15 17 0 1
BITMAP
77FE
77FE
2600
C600
0600
0E00
0C00
0FF8
0FF0
1C00
1800
1800
1800
3800
3000
3FF0
3FF0
ENDCHAR
STARTCHAR 1F19
ENCODING 7961
SWIDTH 468 0
DWIDTH 13 0
BBX 14 18 1 0
BITMAP
4000
EFFC
CFFC
CC00
6C00
0C00
1C00
1800
1FF0
1FE0
3800
3000
3000
3000
7000
6000
7FE0
7FE0
ENDCHAR
STARTCHAR 1F1A
ENCODING 7962
SWIDTH 468 0
DWIDTH 13 0
BBX 19 18 -4 0
BITMAP
200000
7E7FE0
667FE0
666000
C36000
006000
00E000
00C000
00FF80
00FF00
01C000
018000
018000
018000
038000
030000
03FF00
03FF00
ENDCHAR
STARTCHAR 1F1B
ENCODING 7963
SWIDTH 468 0
DWIDTH 13 0
BBX 18 18 -3 0
BITMAP
400000
DCFFC0
CCFFC0
CCC000
46C000
00C000
01C000
018000
01FF00
01FE00
038000
030000
030000
030000
070000
060000
07FE00
07FE00
ENDCHAR
STARTCHAR 1F1C
ENCODING 7964
SWIDTH 468 0
DWIDTH 13 0
BBX 19 18 -4 0
BITMAP
200000
737FE0
777FE0
666000
CC6000
006000
00E000
00C000
00FF80
00FF00
01C000
018000
018000
018000
038000
030000
03FF00
03FF00
ENDCHAR
STARTCHAR 1F1D
ENCODING 7965
SWIDTH 468 0
DWIDTH 13 0
BBX 18 18 -3 0
BITMAP
800000
C6FFC0
CEFFC0
8CC000
D8C000
00C000
01C000
018000
01FF00
01FE00
038000
030000
030000
030000
070000
060000
07FE00
07FE00
ENDCHAR
STARTCHAR 1F20
ENCODING 7968
SWIDTH 468 0
DWIDTH 13 0
BBX 12 24 2 -5
BITMAP
00E0
00E0
00C0
0180
0100
0000
1FC0
3FE0
3870
3070
3070
3070
7060
6060
6060
60E0
E0C0
C0C0
C0C0
01C0
0180
0180
0180
0380
ENDCHAR
STARTCHAR 1F21
ENCODING 7969
SWIDTH 468 0
DWIDTH 13 0
BBX 12 24 2 -5
BITMAP
01C0
01C0
0180
0080
0000
0000
1FC0
3FE0
3870
3070
3070
3070
7060
6060
6060
60E0
E0C0
C0C0
C0C0
01C0
0180
0180
0180
0380
ENDCHAR
STARTCHAR 1F22
ENCODING 7970
SWIDTH 468 0
DWIDTH 13 0
BBX 12 24 2 -5
BITMAP
0360
0370
0330
0610
0410
0000
1FC0
3FE0
3870
3070
3070
3070
7060
6060
6060
60E0
E0C0
C0C0
C0C0
01C0
0180
0180
0180
0380
ENDCHAR
STARTCHAR 1F23
ENCODING 7971
SWIDTH 468 0
DWIDTH 13 0
BBX 12 24 2 -5
BITMAP
06C0
0EE0
0460
0660
0220
0000
1FC0
3FE0
3870
3070
3070
3070
7060
6060
6060
60E0
E0C0
C0C0
C0C0
01C0
0180
0180
0180
0380
ENDCHAR
STARTCHAR 1F24
ENCODING 7972
SWIDTH 468 0
DWIDTH 13 0
BBX 13 24 2 -5
BITMAP
0198
0398
01B0
0360
0000
0000
1FC0
3FE0
3870
3070
3070
3070
7060
6060
6060
60E0
E0C0
C0C0
C0C0
01C0
0180
0180
0180
0380
ENDCHAR
STARTCHAR 1F25
ENCODING 7973
SWIDTH 468 0
DWIDTH 13 0
BBX 12 24 2 -5
BITMAP
0710
0630
0660
02E0
0040
0000
1FC0
3FE0
3870
3070
3070
3070
7060
6060
6060
60E0
E0C0
C0C0
C0C0
01C0
0180
0180
0180
0380
ENDCHAR
STARTCHAR 1F26
ENCODING 7974
SWIDTH 468 0
DWIDTH 13 0
BBX 12 27 2 -5
BITMAP
00E0
01F0
0310
0000
00C0
00C0
0180
0100
0000
1FC0
3FE0
3870
3070
3070
3070
7060
6060
6060
60E0
E0C0
C0C0
C0C0
01C0
0180
0180
0180
0380
ENDCHAR
STARTCHAR 1F27
ENCODING 7975
SWIDTH 468 0
DWIDTH 13 0
BBX 12 27 2 -5
BITMAP
00E0
01F0
0310
0080
00C0
0080
00C0
0040
0000
1FC0
3FE0
3870
3070
3070
3070
7060
6060
6060
60E0
E0C0
C0C0
C0C0
01C0
0180
0180
0180
0380
ENDCHAR
STARTCHAR 1F28
ENCODING 7976
SWIDTH 468 0
DWIDTH 13 0
BBX 16 18 0 0
BITMAP
2000
7603
7607
6E06
CE06
0C06
0C0E
1C0C
1FFC
1FFC
181C
1818
3818
3018
3038
3038
7030
6030
ENDCHAR
STARTCHAR 1F29
ENCODING 7977
SWIDTH 468 0
DWIDTH 13 0
BBX 16 17 0 1
BITMAP
E603
E607
4E06
6E06
0C06
0C0E
1C0C
1FFC
1FFC
181C
1818
3818
3018
3038
3038
7030
6030
ENDCHAR
STARTCHAR 1F2A
ENCODING 7978
SWIDTH 468 0
DWIDTH 13 0
BBX 21 18 -5 0
BITMAP
220000
763018
363038
237030
C37030
006030
006070
00E060
00FFE0
00FFE0
00C0E0
00C0C0
01C0C0
0180C0
0181C0
0181C0
038180
030180
ENDCHAR
STARTCHAR 1F2B
ENCODING 7979
SWIDTH 468 0
DWIDTH 13 0
BBX 20 18 -4 0
BITMAP
040000
EC6030
EC6070
46E060
66E060
00C060
00C0E0
01C0C0
01FFC0
01FFC0
0181C0
018180
038180
030180
030380
030380
070300
060300
ENDCHAR
STARTCHAR 1F2C
ENCODING 7980
SWIDTH 468 0
DWIDTH 13 0
BBX 20 18 -4 0
BITMAP
020000
636030
666070
6CE060
D8E060
00C060
00C0E0
01C0C0
01FFC0
01FFC0
0181C0
018180
038180
030180
030380
030380
070300
060300
ENDCHAR
STARTCHAR 1F2D
ENCODING 7981
SWIDTH 468 0
DWIDTH 13 0
BBX 20 18 -4 0
BITMAP
420000
E36030
C66070
CCE060
78E060
00C060
00C0E0
01C0C0
01FFC0
01FFC0
0181C0
018180
038180
030180
030380
030380
070300
060300
ENDCHAR
STARTCHAR 1F2E
ENCODING 7982
SWIDTH 468 0
DWIDTH 13 0
BBX 18 19 -2 0
BITMAP
780000
CC0000
8580C0
3181C0
738180
638180
C30180
030380
070300
07FF00
07FF00
060700
060600
0E0600
0C0600
0C0E00
0C0E00
1C0C00
180C00
ENDCHAR
STARTCHAR 1F2F
ENCODING 7983
SWIDTH 468 0
DWIDTH 13 0
BBX 18 19 -2 0
BITMAP
780000
CC0000
8580C0
7181C0
738180
638180
330180
030380
070300
07FF00
07FF00
060700
060600
0E0600
0C0600
0C0E00
0C0E00
1C0C00
180C00
ENDCHAR
STARTCHAR 1F30
ENCODING 7984
SWIDTH 468 0
DWIDTH 13 0
BBX 8 19 4 0
BITMAP
0E
0E
06
0C
00
00
FC
FC
1C
18
18
18
38
30
30
30
30
3F
1F
ENDCHAR
STARTCHAR 1F31
ENCODING 7985
SWIDTH 468 0
DWIDTH 13 0
BBX 8 19 4 0
BITMAP
1C
1C
18
0C
00
00
FC
FC
1C
18
18
18
38
30
30
30
30
3F
1F
ENDCHAR
STARTCHAR 1F32
ENCODING 7986
SWIDTH 468 0
DWIDTH 13 0
BBX 9 19 4 0
BITMAP
3E00
3B00
3300
6180
4100
0000
FC00
FC00
1C00
1800
1800
1800
3800
3000
3000
3000
3000
3F00
1F00
ENDCHAR
STARTCHAR 1F33
ENCODING 7987
SWIDTH 468 0
DWIDTH 13 0
BBX 8 19 4 0
BITMAP
6C
66
46
62
22
00
FC
FC
1C
18
18
18
38
30
30
30
30
3F
1F
ENDCHAR
STARTCHAR 1F34
ENCODING 7988
SWIDTH 468 0
DWIDTH 13 0
BBX 9 19 4 0
BITMAP
1880
1980
1B00
3700
2200
0000
FC00
FC00
1C00
1800
1800
1800
3800
3000
3000
3000
3000
3F00
1F00
ENDCHAR
STARTCHAR 1F35
ENCODING 7989
SWIDTH 468 0
DWIDTH 13 0
BBX 9 19 4 0
BITMAP
7180
7380
6700
2E00
0400
0000
FC00
FC00
1C00
1800
1800
1800
3800
3000
3000
3000
3000
3F00
1F00
ENDCHAR
STARTCHAR 1F36
ENCODING 7990
SWIDTH 468 0
DWIDTH 13 0
BBX 9 22 4 0
BITMAP
0E00
1F00
3180
0400
0C00
0C00
1800
1000
0000
FC00
FC00
1C00
1800
1800
1800
3800
3000
3000
3000
3000
3F00
1F00
ENDCHAR
STARTCHAR 1F37
ENCODING 7991
SWIDTH 468 0
DWIDTH 13 0
BBX 9 22 4 0
BITMAP
0E00
1F00
3180
0400
0C00
0C00
0C00
0400
0000
FC00
FC00
1C00
1800
1800
1800
3800
3000
3000
3000
3000
3F00
1F00
ENDCHAR
STARTCHAR 1F38
ENCODING 7992
SWIDTH 468 0
DWIDTH 13 0
BBX 14 18 1 0
BITMAP
2000
77FC
67FC
60C0
C0C0
01C0
0180
0180
0180
0380
0300
0300
0300
0700
0600
0600
7FC0
7FC0
ENDCHAR
STARTCHAR 1F39
ENCODING 7993
SWIDTH 468 0
DWIDTH 13 0
BBX 14 18 1 0
BITMAP
2000
E7FC
E7FC
40C0
60C0
01C0
0180
0180
0180
0380
0300
0300
0300
0700
0600
0600
7FC0
7FC0
ENDCHAR
STARTCHAR 1F3A
ENCODING 7994
SWIDTH 468 0
DWIDTH 13 0
BBX 19 18 -4 0
BITMAP
220000
763FE0
363FE0
230600
C30600
000E00
000C00
000C00
000C00
001C00
001800
001800
001800
003800
003000
003000
03FE00
03FE00
ENDCHAR
STARTCHAR 1F3B
ENCODING 7995
SWIDTH 468 0
DWIDTH 13 0
BBX 18 18 -3 0
BITMAP
040000
EC7FC0
EC7FC0
460C00
660C00
001C00
001800
001800
001800
003800
003000
003000
003000
007000
006000
006000
07FC00
07FC00
ENDCHAR
STARTCHAR 1F3C
ENCODING 7996
SWIDTH 468 0
DWIDTH 13 0
BBX 18 18 -3 0
BITMAP
020000
637FC0
667FC0
6C0C00
D80C00
001C00
001800
001800
001800
003800
003000
003000
003000
007000
006000
006000
07FC00
07FC00
ENDCHAR
STARTCHAR 1F3D
ENCODING 7997
SWIDTH 468 0
DWIDTH 13 0
BBX 18 18 -3 0
BITMAP
420000
E37FC0
C67FC0
CC0C00
780C00
001C00
001800
001800
001800
003800
003000
003000
003000
007000
006000
006000
07FC00
07FC00
ENDCHAR
STARTCHAR 1F3E
ENCODING 7998
SWIDTH 468 0
DWIDTH 13 0
BBX 16 19 -1 0
BITMAP
7800
CC00
8DFF
71FF
7030
6030
C070
0060
0060
0060
00E0
00C0
00C0
00C0
01C0
0180
0180
1FF0
1FF0
ENDCHAR
STARTCHAR 1F3F
ENCODING 7999
SWIDTH 468 0
DWIDTH 13 0
BBX 16 19 -1 0
BITMAP
7800
CC00
8DFF
71FF
6030
6030
3070
0060
0060
0060
00E0
00C0
00C0
00C0
01C0
0180
0180
1FF0
1FF0
ENDCHAR
STARTCHAR 1F40
ENCODING 8000
SWIDTH 468 0
DWIDTH 13 0
BBX 12 19 2 0
BITMAP
00E0
00E0
00C0
0180
0100
0000
07C0
1FE0
3870
3030
7030
6030
E070
E070
E060
E0E0
E1C0
7F80
3F00
ENDCHAR
STARTCHAR 1F41
ENCODING 8001
SWIDTH 468 0
DWIDTH 13 0
BBX 12 19 2 0
BITMAP
01C0
01C0
0180
0080
0000
0000
07C0
1FE0
3870
3030
7030
6030
E070
E070
E060
E0E0
E1C0
7F80
3F00
ENDCHAR
STARTCHAR 1F42
ENCODING 8002
SWIDTH 468 0
DWIDTH 13 0
BBX 12 19 2 0
BITMAP
0360
0370
0330
0630
0410
0000
07C0
1FE0
3870
3030
7030
6030
E070
E070
E060
E0E0
E1C0
7F80
3F00
ENDCHAR
STARTCHAR 1F43
ENCODING 8003
SWIDTH 468 0
DWIDTH 13 0
BBX 12 19 2 0
BITMAP
06C0
0EE0
0460
0660
0220
0000
07C0
1FE0
3870
3030
7030
6030
E070
E070
E060
E0E0
E1C0
7F80
3F00
ENDCHAR
STARTCHAR 1F44
ENCODING 8004
SWIDTH 468 0
DWIDTH 13 0
BBX 13 19 2 0
BITMAP
0398
0398
01B0
0360
0000
0000
07C0
1FE0
3870
3030
7030
6030
E070
E070
E060
E0E0
E1C0
7F80
3F00
ENDCHAR
STARTCHAR 1F45
ENCODING 8005
SWIDTH 468 0
DWIDTH 13 0
BBX 12 19 2 0
BITMAP
0710
0630
0660
02E0
0240
0000
07C0
1FE0
3870
3030
7030
6030
E070
E070
E060
E0E0
E1C0
7F80
3F00
ENDCHAR
STARTCHAR 1F48
ENCODING 8008
SWIDTH 468 0
DWIDTH 13 0
BBX 15 18 0 0
BITMAP
0020
71F8
339C
270E
CE0E
0C0E
1C0E
180E
180E
380C
300C
300C
3018
3018
3030
3870
1FE0
0FC0
ENDCHAR
STARTCHAR 1F49
ENCODING 8009
SWIDTH 468 0
DWIDTH 13 0
BBX 15 18 0 0
BITMAP
4020
E1F8
E39C
470E
6E0E
0C0E
1C0E
180E
180E
380C
300C
300C
3018
3018
3030
3870
1FE0
0FC0
ENDCHAR
STARTCHAR 1F4A
ENCODING 8010
SWIDTH 468 0
DWIDTH 13 0
BBX 20 18 -5 0
BITMAP
220100
760FC0
361CE0
233870
C37070
006070
00E070
00C070
00C070
01C060
018060
018060
0180C0
0180C0
018180
01C380
00FF00
007E00
ENDCHAR
STARTCHAR 1F4B
ENCODING 8011
SWIDTH 468 0
DWIDTH 13 0
BBX 19 18 -4 0
BITMAP
440200
EC1F80
EC39C0
4670E0
66E0E0
00C0E0
01C0E0
0180E0
0180E0
0380C0
0300C0
0300C0
030180
030180
030300
038700
01FE00
00FC00
ENDCHAR
STARTCHAR 1F4C
ENCODING 8012
SWIDTH 468 0
DWIDTH 13 0
BBX 18 18 -3 0
BITMAP
020400
633F00
667380
6CE1C0
D9C1C0
0181C0
0381C0
0301C0
0301C0
070180
060180
060180
060300
060300
060600
070E00
03FC00
01F800
ENDCHAR
STARTCHAR 1F4D
ENCODING 8013
SWIDTH 468 0
DWIDTH 13 0
BBX 18 18 -3 0
BITMAP
420400
E33F00
C67380
CCE1C0
79C1C0
0181C0
0381C0
0301C0
0301C0
070180
060180
060180
060300
060300
060600
070E00
03FC00
01F800
ENDCHAR
STARTCHAR 1F50
ENCODING 8016
SWIDTH 468 0
DWIDTH 13 0
BBX 12 19 2 0
BITMAP
00C0
00C0
00C0
0180
0000
0000
3830
3030
3030
3070
7060
6060
6060
60E0
E0C0
E0C0
61C0
7F80
3F00
ENDCHAR
STARTCHAR 1F51
ENCODING 8017
SWIDTH 468 0
DWIDTH 13 0
BBX 12 19 2 0
BITMAP
0180
0180
0100
0180
0080
0000
3830
3030
3030
3070
7060
6060
6060
60E0
E0C0
E0C0
61C0
7F80
3F00
ENDCHAR
STARTCHAR 1F52
ENCODING 8018
SWIDTH 468 0
DWIDTH 13 0
BBX 12 19 2 0
BITMAP
0760
0760
0230
0430
0000
0000
3830
3030
3030
3070
7060
6060
6060
60E0
E0C0
E0C0
61C0
7F80
3F00
ENDCHAR
STARTCHAR 1F53
ENCODING 8019
SWIDTH 468 0
DWIDTH 13 0
BBX 12 19 2 0
BITMAP
0EC0
0EC0
0C60
0460
0000
0000
3830
3030
3030
3070
7060
6060
6060
60E0
E0C0
E0C0
61C0
7F80
3F00
ENDCHAR
STARTCHAR 1F54
ENCODING 8020
SWIDTH 468 0
DWIDTH 13 0
BBX 13 19 2 0
BITMAP
0398
03B8
0370
0660
0400
0000
3830
3030
3030
3070
7060
6060
6060
60E0
E0C0
E0C0
61C0
7F80
3F00
ENDCHAR
STARTCHAR 1F55
ENCODING 8021
SWIDTH 468 0
DWIDTH 13 0
BBX 12 19 2 0
BITMAP
0630
0630
0460
06C0
0200
0000
3830
3030
3030
3070
7060
6060
6060
60E0
E0C0
E0C0
61C0
7F80
3F00
ENDCHAR
STARTCHAR 1F56
ENCODING 8022
SWIDTH 468 0
DWIDTH 13 0
BBX 12 22 2 0
BITMAP
00E0
03F0
0210
0080
01C0
00C0
0180
0000
0000
3830
3030
3030
3070
7060
6060
6060
60E0
E0C0
E0C0
61C0
7F80
3F00
ENDCHAR
STARTCHAR 1F57
ENCODING 8023
SWIDTH 468 0
DWIDTH 13 0
BBX 12 22 2 0
BITMAP
00E0
03F0
0210
0080
01C0
0180
0080
0000
0000
3830
3030
3030
3070
7060
6060
6060
60E0
E0C0
E0C0
61C0
7F80
3F00
ENDCHAR
STARTCHAR 1F59
ENCODING 8025
SWIDTH 468 0
DWIDTH 13 0
BBX 17 18 0 0
BITMAP
400000
EC0380
EE0300
460700
660E00
060C00
061800
033800
037000
036000
01C000
018000
018000
018000
038000
030000
030000
030000
ENDCHAR
STARTCHAR 1F5B
ENCODING 8027
SWIDTH 468 0
DWIDTH 13 0
BBX 20 18 -3 0
BITMAP
800000
D98070
CDC060
8CC0E0
C4C1C0
00C180
00C300
006700
006E00
006C00
003800
003000
003000
003000
007000
006000
006000
006000
ENDCHAR
STARTCHAR 1F5D
ENCODING 8029
SWIDTH 468 0
DWIDTH 13 0
BBX 22 17 -5 1
BITMAP
63601C
E77018
4E3038
6C3070
003060
0030C0
0019C0
001B80
001B00
000E00
000C00
000C00
000C00
001C00
001800
001800
001800
ENDCHAR
STARTCHAR 1F5F
ENCODING 8031
SWIDTH 468 0
DWIDTH 13 0
BBX 20 19 -3 0
BITMAP
780000
CC0000
858070
61C060
60C0E0
60C1C0
30C180
00C300
006700
006E00
006C00
003800
003000
003000
003000
007000
006000
006000
006000
ENDCHAR
STARTCHAR 1F60
ENCODING 8032
SWIDTH 468 0
DWIDTH 13 0
BBX 13 19 1 0
BITMAP
00E0
00E0
0060
00C0
0000
0000
0C30
1C30
3838
3038
6018
6318
6318
E338
C738
C730
E730
7FE0
79E0
ENDCHAR
STARTCHAR 1F61
ENCODING 8033
SWIDTH 468 0
DWIDTH 13 0
BBX 13 19 1 0
BITMAP
00C0
01C0
0080
00C0
0040
0000
0C30
1C30
3838
3038
6018
6318
6318
E338
C738
C730
E730
7FE0
79E0
ENDCHAR
STARTCHAR 1F62
ENCODING 8034
SWIDTH 468 0
DWIDTH 13 0
BBX 13 19 1 0
BITMAP
03B0
03B0
0138
0618
0400
0000
0C30
1C30
3838
3038
6018
6318
6318
E338
C738
C730
E730
7FE0
79E0
ENDCHAR
STARTCHAR 1F63
ENCODING 8035
SWIDTH 468 0
DWIDTH 13 0
BBX 13 19 1 0
BITMAP
07E0
0760
0660
0230
0020
0000
0C30
1C30
3838
3038
6018
6318
6318
E338
C738
C730
E730
7FE0
79E0
ENDCHAR
STARTCHAR 1F64
ENCODING 8036
SWIDTH 468 0
DWIDTH 13 0
BBX 14 19 1 0
BITMAP
01CC
01DC
01B8
0330
0220
0000
0C30
1C30
3838
3038
6018
6318
6318
E338
C738
C730
E730
7FE0
79E0
ENDCHAR
STARTCHAR 1F65
ENCODING 8037
SWIDTH 468 0
DWIDTH 13 0
BBX 13 19 1 0
BITMAP
0318
0738
0230
0360
0100
0000
0C30
1C30
3838
3038
6018
6318
6318
E338
C738
C730
E730
7FE0
79E0
ENDCHAR
STARTCHAR 1F66
ENCODING 8038
SWIDTH 468 0
DWIDTH 13 0
BBX 13 22 1 0
BITMAP
0070
01F8
0118
0040
00E0
0040
00C0
0100
0000
0C30
1C30
3838
3038
6018
6318
6318
E338
C738
C730
E730
7FE0
79E0
ENDCHAR
STARTCHAR 1F67
ENCODING 8039
SWIDTH 468 0
DWIDTH 13 0
BBX 13 22 1 0
BITMAP
0070
01F8
0118
0040
00E0
00C0
0040
0000
0000
0C30
1C30
3838
3038
6018
6318
6318
E338
C738
C730
E730
7FE0
79E0
ENDCHAR
STARTCHAR 1F68
ENCODING 8040
SWIDTH 468 0
DWIDTH 13 0
BBX 15 18 0 0
BITMAP
2030
71FC
73FC
660E
CE0E
1C06
1806
180E
380E
380C
380C
381C
3818
3838
1830
1860
FCF8
FDF8
ENDCHAR
STARTCHAR 1F69
ENCODING 8041
SWIDTH 468 0
DWIDTH 13 0
BBX 15 18 0 0
BITMAP
4030
E1FC
C3FC
C60E
6E0E
1C06
1806
180E
380E
380C
380C
381C
3818
3838
1830
1860
FCF8
FDF8
ENDCHAR
STARTCHAR 1F6A
ENCODING 8042
SWIDTH 468 0
DWIDTH 13 0
BBX 20 18 -5 0
BITMAP
200180
760FE0
761FE0
633070
C37070
00E030
00C030
00C070
01C070
01C060
01C060
01C0E0
01C0C0
01C1C0
00C180
00C300
07E7C0
07EFC0
ENDCHAR
STARTCHAR 1F6B
ENCODING 8043
SWIDTH 468 0
DWIDTH 13 0
BBX 19 18 -4 0
BITMAP
400300
EC1FC0
CC3FC0
C660E0
66E0E0
01C060
018060
0180E0
0380E0
0380C0
0380C0
0381C0
038180
038380
018300
018600
0FCF80
0FDF80
ENDCHAR
STARTCHAR 1F6C
ENCODING 8044
SWIDTH 468 0
DWIDTH 13 0
BBX 19 18 -4 0
BITMAP
000300
731FC0
373FC0
2660E0
CCE0E0
01C060
018060
0180E0
0380E0
0380C0
0380C0
0381C0
038180
038380
018300
018600
0FCF80
0FDF80
ENDCHAR
STARTCHAR 1F6D
ENCODING 8045
SWIDTH 468 0
DWIDTH 13 0
BBX 18 18 -3 0
BITMAP
400600
C73F80
CE7F80
CCC1C0
59C1C0
0380C0
0300C0
0301C0
0701C0
070180
070180
070380
070300
070700
030600
030C00
1F9F00
1FBF00
ENDCHAR
STARTCHAR 1F6E
ENCODING 8046
SWIDTH 468 0
DWIDTH 13 0
BBX 16 19 -1 0
BITMAP
7800
CC18
84FE
31FE
7307
2707
CE03
0C03
0C07
1C07
1C06
1C06
1C0E
1C0C
1C1C
0C18
0C30
7E7C
7EFC
ENDCHAR
STARTCHAR 1F6F
ENCODING 8047
SWIDTH 468 0
DWIDTH 13 0
BBX 17 19 -2 0
BITMAP
3C0000
6C0C00
C67F00
30FF00
318380
238380
170180
060180
060380
0E0380
0E0300
0E0300
0E0700
0E0600
0E0E00
060C00
061800
3F3E00
3F7E00
ENDCHAR
STARTCHAR 1F70
ENCODING 8048
SWIDTH 468 0
DWIDTH 13 0
BBX 12 19 2 0
BITMAP
0300
0780
01C0
00E0
0040
0000
07F0
0FF0
1C70
3870
7060
6060
E0E0
E0E0
E0C0
E0C0
E0C0
7FF0
3F60
ENDCHAR
STARTCHAR 1F71
ENCODING 8049
SWIDTH 468 0
DWIDTH 13 0
BBX 12 19 2 0
BITMAP
0020
00F0
01C0
0380
0000
0000
07F0
0FF0
1C70
3870
7060
6060
E0E0
E0E0
E0C0
E0C0
E0C0
7FF0
3F60
ENDCHAR
STARTCHAR 1F72
ENCODING 8050
SWIDTH 468 0
DWIDTH 13 0
BBX 12 19 2 0
BITMAP
0300
0380
01C0
00E0
0040
0000
07F0
1FF0
3800
3800
3800
1F80
1F80
7800
6000
E000
6000
7FC0
3FC0
ENDCHAR
STARTCHAR 1F73
ENCODING 8051
SWIDTH 468 0
DWIDTH 13 0
BBX 12 19 2 0
BITMAP
0020
00F0
01C0
0180
0000
0000
07F0
1FF0
3800
3800
3800
1F80
1F80
7800
6000
E000
6000
7FC0
3FC0
ENDCHAR
STARTCHAR 1F74
ENCODING 8052
SWIDTH 468 0
DWIDTH 13 0
BBX 12 24 2 -5
BITMAP
0300
0780
01C0
00C0
0040
0000
1FC0
3FE0
3870
3070
3070
3070
7060
6060
6060
60E0
E0C0
C0C0
C0C0
01C0
0180
0180
0180
0380
ENDCHAR
STARTCHAR 1F75
ENCODING 8053
SWIDTH 468 0
DWIDTH 13 0
BBX 12 24 2 -5
BITMAP
0060
00F0
01C0
0380
0000
0000
1FC0
3FE0
3870
3070
3070
3070
7060
6060
6060
60E0
E0C0
C0C0
C0C0
01C0
0180
0180
0180
0380
ENDCHAR
STARTCHAR 1F76
ENCODING 8054
SWIDTH 468 0
DWIDTH 13 0
BBX 8 19 4 0
BITMAP
10
38
1C
0E
00
00
FC
FC
1C
18
18
18
38
30
30
30
30
3F
1F
ENDCHAR
STARTCHAR 1F77
ENCODING 8055
SWIDTH 468 0
DWIDTH 13 0
BBX 8 19 4 0
BITMAP
02
07
0E
18
00
00
FC
FC
1C
18
18
18
38
30
30
30
30
3F
1F
ENDCHAR
STARTCHAR 1F78
ENCODING 8056
SWIDTH 468 0
DWIDTH 13 0
BBX 12 19 2 0
BITMAP
0300
0780
01C0
00C0
0040
0000
07C0
1FE0
3870
3030
7030
6030
E070
E070
E060
E0E0
E1C0
7F80
3F00
ENDCHAR
STARTCHAR 1F79
ENCODING 8057
SWIDTH 468 0
DWIDTH 13 0
BBX 12 19 2 0
BITMAP
0060
00F0
01C0
0380
0000
0000
07C0
1FE0
3870
3030
7030
6030
E070
E070
E060
E0E0
E1C0
7F80
3F00
ENDCHAR
STARTCHAR 1F7A
ENCODING 8058
SWIDTH 468 0
DWIDTH 13 0
BBX 12 19 2 0
BITMAP
0200
0700
0380
00C0
0000
0000
3830
3030
3030
3070
7060
6060
6060
60E0
E0C0
E0C0
61C0
7F80
3F00
ENDCHAR
STARTCHAR 1F7B
ENCODING 8059
SWIDTH 468 0
DWIDTH 13 0
BBX 12 19 2 0
BITMAP
0060
00E0
01C0
0300
0000
0000
3830
3030
3030
3070
7060
6060
6060
60E0
E0C0
E0C0
61C0
7F80
3F00
ENDCHAR
STARTCHAR 1F7C
ENCODING 8060
SWIDTH 468 0
DWIDTH 13 0
BBX 13 19 1 0
BITMAP
0100
0380
01C0
00E0
0000
0000
0C30
1C30
3838
3038
6018
6318
6318
E338
C738
C730
E730
7FE0
79E0
ENDCHAR
STARTCHAR 1F7D
ENCODING 8061
SWIDTH 468 0
DWIDTH 13 0
BBX 13 19 1 0
BITMAP
0030
0070
00E0
0180
0000
0000
0C30
1C30
3838
3038
6018
6318
6318
E338
C738
C730
E730
7FE0
79E0
ENDCHAR
STARTCHAR 1F80
ENCODING 8064
SWIDTH 468 0
DWIDTH 13 0
BBX 12 24 2 -5
BITMAP
00E0
00E0
00C0
0180
0100
0000
07F0
0FF0
1C70
3870
7060
6060
E0E0
E0E0
E0C0
E0C0
E0C0
7FF0
3F60
0000
1C00
1800
1E00
0600
ENDCHAR
STARTCHAR 1F81
ENCODING 8065
SWIDTH 468 0
DWIDTH 13 0
BBX 12 24 2 -5
BITMAP
01C0
01C0
0180
00C0
0000
0000
07F0
0FF0
1C70
3870
7060
6060
E0E0
E0E0
E0C0
E0C0
E0C0
7FF0
3F60
0000
1C00
1800
1E00
0600
ENDCHAR
STARTCHAR 1F82
ENCODING 8066
SWIDTH 468 0
DWIDTH 13 0
BBX 12 24 2 -5
BITMAP
0360
0330
0330
0610
0410
0000
07F0
0FF0
1C70
3870
7060
6060
E0E0
E0E0
E0C0
E0C0
E0C0
7FF0
3F60
0000
1C00
1800
1E00
0600
ENDCHAR
STARTCHAR 1F83
ENCODING 8067
SWIDTH 468 0
DWIDTH 13 0
BBX 12 24 2 -5
BITMAP
06C0
06E0
0460
0620
0220
0000
07F0
0FF0
1C70
3870
7060
6060
E0E0
E0E0
E0C0
E0C0
E0C0
7FF0
3F60
0000
1C00
1800
1E00
0600
ENDCHAR
STARTCHAR 1F84
ENCODING 8068
SWIDTH 468 0
DWIDTH 13 0
BBX 13 24 2 -5
BITMAP
0198
0198
01B0
0360
0000
0000
07F0
0FF0
1C70
3870
7060
6060
E0E0
E0E0
E0C0
E0C0
E0C0
7FF0
3F60
0000
1C00
1800
1E00
0600
ENDCHAR
STARTCHAR 1F85
ENCODING 8069
SWIDTH 468 0
DWIDTH 13 0
BBX 12 24 2 -5
BITMAP
0710
0630
0670
02E0
0040
0000
07F0
0FF0
1C70
3870
7060
6060
E0E0
E0E0
E0C0
E0C0
E0C0
7FF0
3F60
0000
1C00
1800
1E00
0600
ENDCHAR
STARTCHAR 1F86
ENCODING 8070
SWIDTH 468 0
DWIDTH 13 0
BBX 12 27 2 -5
BITMAP
00E0
01F0
0310
0040
00C0
00C0
0180
0100
0000
07F0
0FF0
1C70
3870
7060
6060
E0E0
E0E0
E0C0
E0C0
E0C0
7FF0
3F60
0000
1C00
1800
1E00
0600
ENDCHAR
STARTCHAR 1F87
ENCODING 8071
SWIDTH 468 0
DWIDTH 13 0
BBX 12 27 2 -5
BITMAP
00E0
01F0
0310
00C0
00C0
00C0
00C0
0040
0000
07F0
0FF0
1C70
3870
7060
6060
E0E0
E0E0
E0C0
E0C0
E0C0
7FF0
3F60
0000
1C00
1800
1E00
0600
ENDCHAR
STARTCHAR 1F88
ENCODING 8072
SWIDTH 468 0
DWIDTH 13 0
BBX 15 18 0 0
BITMAP
2000
3380
3380
3780
4780
0D86
0D8C
0D8C
198C
198C
1198
3198
3F98
7F98
61B8
61B8
C19C
C198
ENDCHAR
STARTCHAR 1F89
ENCODING 8073
SWIDTH 468 0
DWIDTH 13 0
BBX 15 17 0 1
BITMAP
E380
E380
4780
6780
0D86
0D8C
0D8C
198C
198C
1198
3198
3F98
7F98
61B8
61B8
C19C
C198
ENDCHAR
STARTCHAR 1F8A
ENCODING 8074
SWIDTH 468 0
DWIDTH 13 0
BBX 20 18 -5 0
BITMAP
020000
761C00
371C00
233C00
C33C00
006C30
006C60
006C60
00CC60
00CC60
008CC0
018CC0
01FCC0
03FCC0
030DC0
030DC0
060CE0
060CC0
ENDCHAR
STARTCHAR 1F8B
ENCODING 8075
SWIDTH 468 0
DWIDTH 13 0
BBX 19 18 -4 0
BITMAP
040000
EC3800
EE3800
467800
667800
00D860
00D8C0
00D8C0
0198C0
0198C0
011980
031980
03F980
07F980
061B80
061B80
0C19C0
0C1980
ENDCHAR
STARTCHAR 1F8C
ENCODING 8076
SWIDTH 468 0
DWIDTH 13 0
BBX 18 18 -3 0
BITMAP
020000
677000
667000
4CF000
98F000
01B0C0
01B180
01B180
033180
033180
023300
063300
07F300
0FF300
0C3700
0C3700
183380
183300
ENDCHAR
STARTCHAR 1F8D
ENCODING 8077
SWIDTH 468 0
DWIDTH 13 0
BBX 18 18 -3 0
BITMAP
420000
E77000
C67000
CCF000
58F000
01B0C0
01B180
01B180
033180
033180
023300
063300
07F300
0FF300
0C3700
0C3700
183380
183300
ENDCHAR
STARTCHAR 1F8E
ENCODING 8078
SWIDTH 468 0
DWIDTH 13 0
BBX 16 19 -1 0
BITMAP
7C00
CC00
85C0
31C0
73C0
23C0
C6C3
06C6
06C6
0CC6
0CC6
08CC
18CC
1FCC
3FCC
30DC
30DC
60CE
60CC
ENDCHAR
STARTCHAR 1F8F
ENCODING 8079
SWIDTH 468 0
DWIDTH 13 0
BBX 16 19 -1 0
BITMAP
7800
CC00
85C0
31C0
73C0
63C0
36C3
06C6
06C6
0CC6
0CC6
08CC
18CC
1FCC
3FCC
30DC
30DC
60CE
60CC
ENDCHAR
STARTCHAR 1F90
ENCODING 8080
SWIDTH 468 0
DWIDTH 13 0
BBX 13 24 1 -5
BITMAP
0070
0070
0060
00C0
0080
0000
0FE0
1FF0
1C38
1838
1838
1838
3830
3030
3030
3070
7060
6060
6060
00E0
E0C0
C0C0
F0C0
31C0
ENDCHAR
STARTCHAR 1F91
ENCODING 8081
SWIDTH 468 0
DWIDTH 13 0
BBX 13 24 1 -5
BITMAP
00E0
00E0
00C0
0040
0000
0000
0FE0
1FF0
1C38
1838
1838
1838
3830
3030
3030
3070
7060
6060
6060
00E0
E0C0
C0C0
F0C0
31C0
ENDCHAR
STARTCHAR 1F92
ENCODING 8082
SWIDTH 468 0
DWIDTH 13 0
BBX 13 24 1 -5
BITMAP
01B0
01B8
0198
0308
0208
0000
0FE0
1FF0
1C38
1838
1838
1838
3830
3030
3030
3070
7060
6060
6060
00E0
E0C0
C0C0
F0C0
31C0
ENDCHAR
STARTCHAR 1F93
ENCODING 8083
SWIDTH 468 0
DWIDTH 13 0
BBX 13 24 1 -5
BITMAP
0360
0770
0230
0330
0110
0000
0FE0
1FF0
1C38
1838
1838
1838
3830
3030
3030
3070
7060
6060
6060
00E0
E0C0
C0C0
F0C0
31C0
ENDCHAR
STARTCHAR 1F94
ENCODING 8084
SWIDTH 468 0
DWIDTH 13 0
BBX 14 24 1 -5
BITMAP
00CC
01CC
00D8
01B0
0000
0000
0FE0
1FF0
1C38
1838
1838
1838
3830
3030
3030
3070
7060
6060
6060
00E0
E0C0
C0C0
F0C0
31C0
ENDCHAR
STARTCHAR 1F95
ENCODING 8085
SWIDTH 468 0
DWIDTH 13 0
BBX 13 24 1 -5
BITMAP
0388
0318
0330
0170
0020
0000
0FE0
1FF0
1C38
1838
1838
1838
3830
3030
3030
3070
7060
6060
6060
00E0
E0C0
C0C0
F0C0
31C0
ENDCHAR
STARTCHAR 1F96
ENCODING 8086
SWIDTH 468 0
DWIDTH 13 0
BBX 13 27 1 -5
BITMAP
0070
00F8
0188
0000
0060
0060
00C0
0080
0000
0FE0
1FF0
1C38
1838
1838
1838
3830
3030
3030
3070
7060
6060
6060
00E0
E0C0
C0C0
F0C0
31C0
ENDCHAR
STARTCHAR 1F97
ENCODING 8087
SWIDTH 468 0
DWIDTH 13 0
BBX 13 27 1 -5
BITMAP
0070
00F8
0188
0040
0060
0040
0060
0020
0000
0FE0
1FF0
1C38
1838
1838
1838
3830
3030
3030
3070
7060
6060
6060
00E0
E0C0
C0C0
F0C0
31C0
ENDCHAR
STARTCHAR 1F98
ENCODING 8088
SWIDTH 468 0
DWIDTH 13 0
BBX 15 18 0 0
BITMAP
2000
7C30
7C30
6C60
CC60
1C66
186C
18CC
1FCC
1FCC
30D8
3198
3198
3198
61B8
6338
631C
6318
ENDCHAR
STARTCHAR 1F99
ENCODING 8089
SWIDTH 468 0
DWIDTH 13 0
BBX 15 17 0 1
BITMAP
EC30
EC30
4C60
6C60
1C66
186C
18CC
1FCC
1FCC
30D8
3198
3198
3198
61B8
6338
631C
6318
ENDCHAR
STARTCHAR 1F9A
ENCODING 8090
SWIDTH 468 0
DWIDTH 13 0
BBX 20 18 -5 0
BITMAP
220000
766180
366180
236300
C36300
00E330
00C360
00C660
00FE60
00FE60
0186C0
018CC0
018CC0
018CC0
030DC0
0319C0
0318E0
0318C0
ENDCHAR
STARTCHAR 1F9B
ENCODING 8091
SWIDTH 468 0
DWIDTH 13 0
BBX 19 18 -4 0
BITMAP
040000
ECC300
ECC300
46C600
66C600
01C660
0186C0
018CC0
01FCC0
01FCC0
030D80
031980
031980
031980
061B80
063380
0631C0
063180
ENDCHAR
STARTCHAR 1F9C
ENCODING 8092
SWIDTH 468 0
DWIDTH 13 0
BBX 19 18 -4 0
BITMAP
020000
63C300
66C300
6CC600
D8C600
01C660
0186C0
018CC0
01FCC0
01FCC0
030D80
031980
031980
031980
061B80
063380
0631C0
063180
ENDCHAR
STARTCHAR 1F9D
ENCODING 8093
SWIDTH 468 0
DWIDTH 13 0
BBX 19 18 -4 0
BITMAP
420000
E3C300
C6C300
CCC600
78C600
01C660
0186C0
018CC0
01FCC0
01FCC0
030D80
031980
031980
031980
061B80
063380
0631C0
063180
ENDCHAR
STARTCHAR 1F9E
ENCODING 8094
SWIDTH 468 0
DWIDTH 13 0
BBX 17 19 -2 0
BITMAP
780000
CC0000
870C00
330C00
731800
631800
C71980
061B00
063300
07F300
07F300
0C3600
0C6600
0C6600
0C6600
186E00
18CE00
18C700
18C600
ENDCHAR
STARTCHAR 1F9F
ENCODING 8095
SWIDTH 468 0
DWIDTH 13 0
BBX 17 19 -2 0
BITMAP
780000
CC0000
870C00
730C00
731800
631800
371980
061B00
063300
07F300
07F300
0C3600
0C6600
0C6600
0C6600
186E00
18CE00
18C700
18C600
ENDCHAR
STARTCHAR 1FA0
ENCODING 8096
SWIDTH 468 0
DWIDTH 13 0
BBX 13 24 1 -5
BITMAP
00E0
00E0
0060
00C0
0000
0000
0C30
1C30
3838
3038
6018
6318
6318
E338
C738
C730
E730
7FE0
79E0
0000
0C00
0C00
0F00
0200
ENDCHAR
STARTCHAR 1FA1
ENCODING 8097
SWIDTH 468 0
DWIDTH 13 0
BBX 13 24 1 -5
BITMAP
00C0
01C0
0080
00C0
0040
0000
0C30
1C30
3838
3038
6018
6318
6318
E338
C738
C730
E730
7FE0
79E0
0000
0C00
0C00
0F00
0200
ENDCHAR
STARTCHAR 1FA2
ENCODING 8098
SWIDTH 468 0
DWIDTH 13 0
BBX 13 24 1 -5
BITMAP
03B0
03B0
0138
0618
0400
0000
0C30
1C30
3838
3038
6018
6318
6318
E338
C738
C730
E730
7FE0
79E0
0000
0C00
0C00
0F00
0200
ENDCHAR
STARTCHAR 1FA3
ENCODING 8099
SWIDTH 468 0
DWIDTH 13 0
BBX 13 24 1 -5
BITMAP
07E0
0760
0660
0230
0020
0000
0C30
1C30
3838
3038
6018
6318
6318
E338
C738
C730
E730
7FE0
79E0
0000
0C00
0C00
0F00
0200
ENDCHAR
STARTCHAR 1FA4
ENCODING 8100
SWIDTH 468 0
DWIDTH 13 0
BBX 14 24 1 -5
BITMAP
01CC
01DC
01B8
0330
0220
0000
0C30
1C30
3838
3038
6018
6318
6318
E338
C738
C730
E730
7FE0
79E0
0000
0C00
0C00
0F00
0200
ENDCHAR
STARTCHAR 1FA5
ENCODING 8101
SWIDTH 468 0
DWIDTH 13 0
BBX 13 24 1 -5
BITMAP
0318
0738
0230
0360
0100
0000
0C30
1C30
3838
3038
6018
6318
6318
E338
C738
C730
E730
7FE0
79E0
0000
0C00
0C00
0F00
0200
ENDCHAR
STARTCHAR 1FA6
ENCODING 8102
SWIDTH 468 0
DWIDTH 13 0
BBX 13 27 1 -5
BITMAP
0070
01F8
0118
0040
00E0
0040
00C0
0100
0000
0C30
1C30
3838
3038
6018
6318
6318
E338
C738
C730
E730
7FE0
79E0
0000
0C00
0C00
0F00
0200
ENDCHAR
STARTCHAR 1FA7
ENCODING 8103
SWIDTH 468 0
DWIDTH 13 0
BBX 13 27 1 -5
BITMAP
0070
01F8
0118
0040
00E0
00C0
0040
0000
0000
0C30
1C30
3838
3038
6018
6318
6318
E338
C738
C730
E730
7FE0
79E0
0000
0C00
0C00
0F00
0200
ENDCHAR
STARTCHAR 1FA8
ENCODING 8104
SWIDTH 468 0
DWIDTH 13 0
BBX 16 18 -1 0
BITMAP
2040
73E0
7770
6630
CC30
0C33
1836
1866
1866
1866
186C
18CC
18CC
198C
199C
1B1C
7B8E
7F8C
ENDCHAR
STARTCHAR 1FA9
ENCODING 8105
SWIDTH 468 0
DWIDTH 13 0
BBX 16 18 -1 0
BITMAP
4040
E3E0
C770
C630
6C30
0C33
1836
1866
1866
1866
186C
18CC
18CC
198C
199C
1B1C
7B8E
7F8C
ENDCHAR
STARTCHAR 1FAA
ENCODING 8106
SWIDTH 468 0
DWIDTH 13 0
BBX 21 18 -6 0
BITMAP
200200
761F00
763B80
633180
C36180
006198
00C1B0
00C330
00C330
00C330
00C360
00C660
00C660
00CC60
00CCE0
00D8E0
03DC70
03FC60
ENDCHAR
STARTCHAR 1FAB
ENCODING 8107
SWIDTH 468 0
DWIDTH 13 0
BBX 20 18 -5 0
BITMAP
400400
EC3E00
CC7700
C66300
66C300
00C330
018360
018660
018660
018660
0186C0
018CC0
018CC0
0198C0
0199C0
01B1C0
07B8E0
07F8C0
ENDCHAR
STARTCHAR 1FAC
ENCODING 8108
SWIDTH 468 0
DWIDTH 13 0
BBX 20 18 -5 0
BITMAP
100400
733E00
337700
266300
CCC300
00C330
018360
018660
018660
018660
0186C0
018CC0
018CC0
0198C0
0199C0
01B1C0
07B8E0
07F8C0
ENDCHAR
STARTCHAR 1FAD
ENCODING 8109
SWIDTH 468 0
DWIDTH 13 0
BBX 19 18 -4 0
BITMAP
400800
C67C00
C6EE00
CCC600
598600
018660
0306C0
030CC0
030CC0
030CC0
030D80
031980
031980
033180
033380
036380
0F71C0
0FF180
ENDCHAR
STARTCHAR 1FAE
ENCODING 8110
SWIDTH 468 0
DWIDTH 13 0
BBX 17 19 -2 0
BITMAP
780000
CC2000
85F000
33B800
731800
261800
C61980
0C1B00
0C3300
0C3300
0C3300
0C3600
0C6600
0C6600
0CC600
0CCE00
0D8E00
3DC700
3FC600
ENDCHAR
STARTCHAR 1FAF
ENCODING 8111
SWIDTH 468 0
DWIDTH 13 0
BBX 17 19 -2 0
BITMAP
780000
CC2000
85F000
33B800
731800
661800
361980
0C1B00
0C3300
0C3300
0C3300
0C3600
0C6600
0C6600
0CC600
0CCE00
0D8E00
3DC700
3FC600
ENDCHAR
STARTCHAR 1FB0
ENCODING 8112
SWIDTH 468 0
DWIDTH 13 0
BBX 12 19 2 0
BITMAP
0210
0230
03F0
01C0
0000
0000
07F0
0FF0
1C70
3870
7060
6060
E0E0
E0E0
E0C0
E0C0
E0C0
7FF0
3F60
ENDCHAR
STARTCHAR 1FB1
ENCODING 8113
SWIDTH 468 0
DWIDTH 13 0
BBX 12 18 2 0
BITMAP
07F0
07F0
0000
0000
0000
07F0
0FF0
1C70
3870
7060
6060
E0E0
E0E0
E0C0
E0C0
E0C0
7FF0
3F60
ENDCHAR
STARTCHAR 1FB2
ENCODING 8114
SWIDTH 468 0
DWIDTH 13 0
BBX 12 24 2 -5
BITMAP
0300
0780
01C0
00E0
0040
0000
07F0
0FF0
1C70
3870
7060
6060
E0E0
E0E0
E0C0
E0C0
E0C0
7FF0
3F60
0000
1C00
1800
1E00
0600
ENDCHAR
STARTCHAR 1FB3
ENCODING 8115
SWIDTH 468 0
DWIDTH 13 0
BBX 12 18 2 -5
BITMAP
07F0
0FF0
1C70
3870
7060
6060
E0E0
E0E0
E0C0
E0C0
E0C0
7FF0
3F60
0000
1C00
1800
1E00
0600
ENDCHAR
STARTCHAR 1FB4
ENCODING 8116
SWIDTH 468 0
DWIDTH 13 0
BBX 12 24 2 -5
BITMAP
0020
00F0
01C0
0380
0000
0000
07F0
0FF0
1C70
3870
7060
6060
E0E0
E0E0
E0C0
E0C0
E0C0
7FF0
3F60
0000
1C00
1800
1E00
0600
ENDCHAR
STARTCHAR 1FB6
ENCODING 8118
SWIDTH 468 0
DWIDTH 13 0
BBX 12 19 2 0
BITMAP
0080
03E0
0630
0630
0000
0000
07F0
0FF0
1C70
3870
7060
6060
E0E0
E0E0
E0C0
E0C0
E0C0
7FF0
3F60
ENDCHAR
STARTCHAR 1FB7
ENCODING 8119
SWIDTH 468 0
DWIDTH 13 0
BBX 12 24 2 -5
BITMAP
0080
03E0
0630
0630
0000
0000
07F0
0FF0
1C70
3870
7060
6060
E0E0
E0E0
E0C0
E0C0
E0C0
7FF0
3F60
0000
1C00
1800
1E00
0600
ENDCHAR
STARTCHAR 1FB8
ENCODING 8120
SWIDTH 468 0
DWIDTH 13 0
BBX 15 22 0 0
BITMAP
00C6
007C
0078
0000
0000
0070
00F0
01F0
01B0
0330
0330
0638
0638
0C38
1C18
1818
3FF8
3FF8
7018
6018
E018
C018
ENDCHAR
STARTCHAR 1FB9
ENCODING 8121
SWIDTH 468 0
DWIDTH 13 0
BBX 15 22 0 0
BITMAP
00FE
00FE
0000
0000
0000
0070
00F0
01F0
01B0
0330
0330
0638
0638
0C38
1C18
1818
3FF8
3FF8
7018
6018
E018
C018
ENDCHAR
STARTCHAR 1FBA
ENCODING 8122
SWIDTH 468 0
DWIDTH 13 0
BBX 13 17 0 1
BITMAP
6070
70F0
38F0
1DB0
0330
0338
0638
0618
0C18
0C18
1818
1FF8
3FF8
3018
6018
E018
C018
ENDCHAR
STARTCHAR 1FBB
ENCODING 8123
SWIDTH 468 0
DWIDTH 13 0
BBX 13 17 0 1
BITMAP
0670
0EF0
1CF0
31B0
03B8
0338
0618
0618
0C18
0C18
1818
1FF8
3FF8
3018
6018
6018
C018
ENDCHAR
STARTCHAR 1FBC
ENCODING 8124
SWIDTH 468 0
DWIDTH 13 0
BBX 15 17 0 0
BITMAP
0380
0380
0780
0780
0D86
0D8C
0D8C
198C
198C
1198
3198
3F98
7F98
61B8
61B8
C19C
C198
ENDCHAR
STARTCHAR 1FBD
ENCODING 8125
SWIDTH 468 0
DWIDTH 13 0
BBX 3 4 8 14
BITMAP
60
60
60
C0
ENDCHAR
STARTCHAR 1FBE
ENCODING 8126
SWIDTH 468 0
DWIDTH 13 0
BBX 4 4 5 -5
BITMAP
C0
C0
F0
20
ENDCHAR
STARTCHAR 1FBF
ENCODING 8127
SWIDTH 468 0
DWIDTH 13 0
BBX 3 4 8 14
BITMAP
60
60
60
C0
ENDCHAR
STARTCHAR 1FC0
ENCODING 8128
SWIDTH 468 0
DWIDTH 13 0
BBX 7 4 7 15
BITMAP
10
7C
C6
C6
ENDCHAR
STARTCHAR 1FC1
ENCODING 8129
SWIDTH 468 0
DWIDTH 13 0
BBX 7 6 7 15
BITMAP
3E
62
42
00
C6
C6
ENDCHAR
STARTCHAR 1FC2
ENCODING 8130
SWIDTH 468 0
DWIDTH 13 0
BBX 13 24 1 -5
BITMAP
0180
03C0
00E0
0060
0020
0000
0FE0
1FF0
1C38
1838
1838
1838
3830
3030
3030
3070
7060
6060
6060
00E0
E0C0
C0C0
F0C0
31C0
ENDCHAR
STARTCHAR 1FC3
ENCODING 8131
SWIDTH 468 0
DWIDTH 13 0
BBX 13 18 1 -5
BITMAP
0FE0
1FF0
1C38
1838
1838
1838
3830
3030
3030
3070
7060
6060
6060
00E0
E0C0
C0C0
F0C0
31C0
ENDCHAR
STARTCHAR 1FC4
ENCODING 8132
SWIDTH 468 0
DWIDTH 13 0
BBX 13 24 1 -5
BITMAP
0010
0038
0070
00C0
0080
0000
0FE0
1FF0
1C38
1838
1838
1838
3830
3030
3030
3070
7060
6060
6060
00E0
E0C0
C0C0
F0C0
31C0
ENDCHAR
STARTCHAR 1FC6
ENCODING 8134
SWIDTH 468 0
DWIDTH 13 0
BBX 12 24 2 -5
BITMAP
0080
03E0
0630
0630
0000
0000
1FC0
3FE0
3870
3070
3070
3070
7060
6060
6060
60E0
E0C0
C0C0
C0C0
01C0
0180
0180
0180
0380
ENDCHAR
STARTCHAR 1FC7
ENCODING 8135
SWIDTH 468 0
DWIDTH 13 0
BBX 13 24 1 -5
BITMAP
0040
01F0
0318
0318
0000
0000
0FE0
1FF0
1C38
1838
1838
1838
3830
3030
3030
3070
7060
6060
6060
00E0
E0C0
C0C0
F0C0
31C0
ENDCHAR
STARTCHAR 1FC8
ENCODING 8136
SWIDTH 468 0
DWIDTH 13 0
BBX 16 17 0 1
BITMAP
C3FF
E3FE
7700
3700
0600
0600
0600
0FF8
0FF8
0C00
0C00
1C00
1800
1800
1800
3FF8
3FF0
ENDCHAR
STARTCHAR 1FC9
ENCODING 8137
SWIDTH 468 0
DWIDTH 13 0
BBX 16 17 0 1
BITMAP
33FF
73FE
E700
C700
0600
0600
0600
0FF8
0FF8
0C00
0C00
1C00
1800
1800
1800
3FF8
3FF0
ENDCHAR
STARTCHAR 1FCA
ENCODING 8138
SWIDTH 468 0
DWIDTH 13 0
BBX 17 17 -1 1
BITMAP
C30180
E30380
770300
370300
060300
060700
0E0600
0FFE00
0FFE00
0C0E00
0C0C00
1C0C00
180C00
181C00
181C00
381800
301800
ENDCHAR
STARTCHAR 1FCB
ENCODING 8139
SWIDTH 468 0
DWIDTH 13 0
BBX 17 17 -1 1
BITMAP
330180
7B0380
E70300
C70300
060300
060700
0E0600
0FFE00
0FFE00
0C0E00
0C0C00
1C0C00
180C00
181C00
181C00
381800
301800
ENDCHAR
STARTCHAR 1FCC
ENCODING 8140
SWIDTH 468 0
DWIDTH 13 0
BBX 14 17 1 0
BITMAP
1860
1860
18C0
18C0
38CC
30D8
3198
3F98
3F98
61B0
6330
6330
6330
C370
C670
C638
C630
ENDCHAR
STARTCHAR 1FCD
ENCODING 8141
SWIDTH 468 0
DWIDTH 13 0
BBX 7 5 6 14
BITMAP
6C
66
66
C2
82
ENDCHAR
STARTCHAR 1FCE
ENCODING 8142
SWIDTH 468 0
DWIDTH 13 0
BBX 7 4 7 14
BITMAP
66
66
6C
D8
ENDCHAR
STARTCHAR 1FCF
ENCODING 8143
SWIDTH 468 0
DWIDTH 13 0
BBX 6 8 8 14
BITMAP
38
FC
8C
20
70
20
60
80
ENDCHAR
STARTCHAR 1FD0
ENCODING 8144
SWIDTH 468 0
DWIDTH 13 0
BBX 8 19 4 0
BITMAP
63
63
3E
1C
00
00
FC
FC
1C
18
18
18
38
30
30
30
30
3F
1F
ENDCHAR
STARTCHAR 1FD1
ENCODING 8145
SWIDTH 468 0
DWIDTH 13 0
BBX 9 18 4 0
BITMAP
3F80
7F00
0000
0000
0000
FC00
FC00
1C00
1800
1800
1800
3800
3000
3000
3000
3000
3F00
1F00
ENDCHAR
STARTCHAR 1FD2
ENCODING 8146
SWIDTH 468 0
DWIDTH 13 0
BBX 10 19 4 0
BITMAP
1C00
ECC0
EDC0
4680
0400
0000
FC00
FC00
1C00
1800
1800
1800
3800
3000
3000
3000
3000
3F00
1F00
ENDCHAR
STARTCHAR 1FD3
ENCODING 8147
SWIDTH 468 0
DWIDTH 13 0
BBX 10 19 4 0
BITMAP
0600
EEC0
EDC0
5880
0000
0000
FC00
FC00
1C00
1800
1800
1800
3800
3000
3000
3000
3000
3F00
1F00
ENDCHAR
STARTCHAR 1FD6
ENCODING 8150
SWIDTH 468 0
DWIDTH 13 0
BBX 8 19 4 0
BITMAP
0C
3F
33
61
00
00
FC
FC
1C
18
18
18
38
30
30
30
30
3F
1F
ENDCHAR
STARTCHAR 1FD7
ENCODING 8151
SWIDTH 468 0
DWIDTH 13 0
BBX 9 21 4 0
BITMAP
0F00
1980
3180
0000
7380
7380
0000
0000
FC00
FC00
1C00
1800
1800
1800
3800
3000
3000
3000
3000
3F00
1F00
ENDCHAR
STARTCHAR 1FD8
ENCODING 8152
SWIDTH 468 0
DWIDTH 13 0
BBX 13 22 2 0
BITMAP
0318
01F0
01E0
0000
0000
0FF8
0FF8
0180
0180
0380
0300
0300
0300
0700
0600
0600
0600
0E00
0C00
0C00
FF80
FF80
ENDCHAR
STARTCHAR 1FD9
ENCODING 8153
SWIDTH 468 0
DWIDTH 13 0
BBX 13 22 2 0
BITMAP
03F8
03F8
0000
0000
0000
0FF8
0FF8
0180
0180
0380
0300
0300
0300
0700
0600
0600
0600
0E00
0C00
0C00
FF80
FF80
ENDCHAR
STARTCHAR 1FDA
ENCODING 8154
SWIDTH 468 0
DWIDTH 13 0
BBX 15 17 0 1
BITMAP
C3FE
E3FE
7060
3060
00E0
00C0
00C0
00C0
01C0
0180
0180
0180
0380
0300
0300
3FE0
3FE0
ENDCHAR
STARTCHAR 1FDB
ENCODING 8155
SWIDTH 468 0
DWIDTH 13 0
BBX 15 17 0 1
BITMAP
33FE
73FE
E060
C060
00E0
00C0
00C0
00C0
01C0
0180
0180
0180
0380
0300
0300
3FE0
3FE0
ENDCHAR
STARTCHAR 1FDD
ENCODING 8157
SWIDTH 468 0
DWIDTH 13 0
BBX 7 5 7 14
BITMAP
FC
CC
CC
46
44
ENDCHAR
STARTCHAR 1FDE
ENCODING 8158
SWIDTH 468 0
DWIDTH 13 0
BBX 7 5 7 14
BITMAP
C6
C6
8C
D8
40
ENDCHAR
STARTCHAR 1FDF
ENCODING 8159
SWIDTH 468 0
DWIDTH 13 0
BBX 6 7 8 14
BITMAP
38
FC
8C
20
70
60
20
ENDCHAR
STARTCHAR 1FE0
ENCODING 8160
SWIDTH 468 0
DWIDTH 13 0
BBX 12 19 2 0
BITMAP
0630
0630
03E0
01C0
0000
0000
3830
3030
3030
3070
7060
6060
6060
60E0
E0C0
E0C0
61C0
7F80
3F00
ENDCHAR
STARTCHAR 1FE1
ENCODING 8161
SWIDTH 468 0
DWIDTH 13 0
BBX 12 18 2 0
BITMAP
07F0
07F0
0000
0000
0000
3830
3030
3030
3070
7060
6060
6060
60E0
E0C0
E0C0
61C0
7F80
3F00
ENDCHAR
STARTCHAR 1FE2
ENCODING 8162
SWIDTH 468 0
DWIDTH 13 0
BBX 13 19 2 0
BITMAP
0180
0D98
1C98
08C0
0080
0000
3830
3030
3030
3070
7060
6060
6060
60E0
E0C0
E0C0
61C0
7F80
3F00
ENDCHAR
STARTCHAR 1FE3
ENCODING 8163
SWIDTH 468 0
DWIDTH 13 0
BBX 13 19 2 0
BITMAP
00C0
0CD8
1D98
0B00
0100
0000
3830
3030
3030
3070
7060
6060
6060
60E0
E0C0
E0C0
61C0
7F80
3F00
ENDCHAR
STARTCHAR 1FE4
ENCODING 8164
SWIDTH 468 0
DWIDTH 13 0
BBX 13 24 1 -5
BITMAP
0070
0070
0060
00C0
0080
0000
03E0
0FF0
0C38
1C18
1818
3818
3818
3038
3030
7070
70E0
7FE0
7F80
6000
E000
C000
C000
C000
ENDCHAR
STARTCHAR 1FE5
ENCODING 8165
SWIDTH 468 0
DWIDTH 13 0
BBX 13 24 1 -5
BITMAP
00E0
00E0
00C0
0040
0000
0000
03E0
0FF0
0C38
1C18
1818
3818
3818
3038
3030
7070
70E0
7FE0
7F80
6000
E000
C000
C000
C000
ENDCHAR
STARTCHAR 1FE6
ENCODING 8166
SWIDTH 468 0
DWIDTH 13 0
BBX 12 19 2 0
BITMAP
0080
03E0
0660
0420
0000
0000
3830
3030
3030
3070
7060
6060
6060
60E0
E0C0
E0C0
61C0
7F80
3F00
ENDCHAR
STARTCHAR 1FE7
ENCODING 8167
SWIDTH 468 0
DWIDTH 13 0
BBX 12 21 2 0
BITMAP
01F0
0330
0210
0000
0E70
0E70
0000
0000
3830
3030
3030
3070
7060
6060
6060
60E0
E0C0
E0C0
61C0
7F80
3F00
ENDCHAR
STARTCHAR 1FE8
ENCODING 8168
SWIDTH 468 0
DWIDTH 13 0
BBX 13 22 4 0
BITMAP
0C60
07C0
0780
0000
0000
C038
E030
6070
60E0
60C0
6180
3380
3700
3600
1C00
1800
1800
1800
3800
3000
3000
3000
ENDCHAR
STARTCHAR 1FE9
ENCODING 8169
SWIDTH 468 0
DWIDTH 13 0
BBX 13 22 4 0
BITMAP
0FE0
0FE0
0000
0000
0000
C038
E030
6070
60E0
60C0
6180
3380
3700
3600
1C00
1800
1800
1800
3800
3000
3000
3000
ENDCHAR
STARTCHAR 1FEA
ENCODING 8170
SWIDTH 468 0
DWIDTH 13 0
BBX 18 17 -1 1
BITMAP
C601C0
E70180
730380
330700
030600
030C00
019C00
01B800
01B000
00E000
00C000
00C000
00C000
01C000
018000
018000
018000
ENDCHAR
STARTCHAR 1FEB
ENCODING 8171
SWIDTH 468 0
DWIDTH 13 0
BBX 19 17 -2 1
BITMAP
1B00E0
3B80C0
E181C0
C18380
018300
018600
00CE00
00DC00
00D800
007000
006000
006000
006000
00E000
00C000
00C000
00C000
ENDCHAR
STARTCHAR 1FEC
ENCODING 8172
SWIDTH 468 0
DWIDTH 13 0
BBX 14 18 1 0
BITMAP
4000
EFF0
CFF8
CC1C
6C0C
1C0C
1C1C
181C
1838
18F0
3FE0
3E00
3000
3000
7000
6000
6000
6000
ENDCHAR
STARTCHAR 1FED
ENCODING 8173
SWIDTH 468 0
DWIDTH 13 0
BBX 10 5 5 14
BITMAP
1C00
6CC0
EDC0
4680
0400
ENDCHAR
STARTCHAR 1FEE
ENCODING 8174
SWIDTH 468 0
DWIDTH 13 0
BBX 10 5 5 14
BITMAP
0600
66C0
EDC0
5880
0800
ENDCHAR
STARTCHAR 1FEF
ENCODING 8175
SWIDTH 468 0
DWIDTH 13 0
BBX 5 5 7 14
BITMAP
60
F0
30
18
08
ENDCHAR
STARTCHAR 1FF2
ENCODING 8178
SWIDTH 468 0
DWIDTH 13 0
BBX 13 24 1 -5
BITMAP
0100
0380
01C0
00E0
0000
0000
0C30
1C30
3838
3038
6018
6318
6318
E338
C738
C730
E730
7FE0
79E0
0000
0C00
0C00
0F00
0200
ENDCHAR
STARTCHAR 1FF3
ENCODING 8179
SWIDTH 468 0
DWIDTH 13 0
BBX 13 18 1 -5
BITMAP
0C30
1C30
3838
3038
6018
6318
6318
E338
C738
C730
E730
7FE0
79E0
0000
0C00
0C00
0F00
0200
ENDCHAR
STARTCHAR 1FF4
ENCODING 8180
SWIDTH 468 0
DWIDTH 13 0
BBX 13 24 1 -5
BITMAP
0030
0070
00E0
0180
0000
0000
0C30
1C30
3838
3038
6018
6318
6318
E338
C738
C730
E730
7FE0
79E0
0000
0C00
0C00
0F00
0200
ENDCHAR
STARTCHAR 1FF6
ENCODING 8182
SWIDTH 468 0
DWIDTH 13 0
BBX 13 19 1 0
BITMAP
0040
01F0
0330
0210
0000
0000
0C30
1C30
3838
3038
6018
6318
6318
E338
C738
C730
E730
7FE0
79E0
ENDCHAR
STARTCHAR 1FF7
ENCODING 8183
SWIDTH 468 0
DWIDTH 13 0
BBX 13 24 1 -5
BITMAP
0040
01F0
0330
0210
0000
0000
0C30
1C30
3838
3038
6018
6318
6318
E338
C738
C730
E730
7FE0
79E0
0000
0C00
0C00
0F00
0200
ENDCHAR
STARTCHAR 1FF8
ENCODING 8184
SWIDTH 468 0
DWIDTH 13 0
BBX 17 18 -2 0
BITMAP
400800
607E00
F0E700
31C380
1B8380
030380
070380
060380
060380
0E0300
0C0300
0C0300
0C0600
0C0600
0C0C00
0E1C00
07F800
03F000
ENDCHAR
STARTCHAR 1FF9
ENCODING 8185
SWIDTH 468 0
DWIDTH 13 0
BBX 15 18 0 0
BITMAP
0020
31F8
739C
E70E
CE0E
0C0E
1C0E
180E
180E
380C
300C
300C
3018
3018
3030
3870
1FE0
0FC0
ENDCHAR
STARTCHAR 1FFA
ENCODING 8186
SWIDTH 468 0
DWIDTH 13 0
BBX 17 18 -2 0
BITMAP
000C00
C07F00
E0FF00
718380
1B8380
070180
060180
060380
0E0380
0E0300
0E0300
0E0700
0E0600
0E0E00
060C00
061800
3F3E00
3F7E00
ENDCHAR
STARTCHAR 1FFB
ENCODING 8187
SWIDTH 468 0
DWIDTH 13 0
BBX 16 18 -1 0
BITMAP
0018
18FE
39FE
7307
C707
0E03
0C03
0C07
1C07
1C06
1C06
1C0E
1C0C
1C1C
0C18
0C30
7E7C
7EFC
ENDCHAR
STARTCHAR 1FFC
ENCODING 8188
SWIDTH 468 0
DWIDTH 13 0
BBX 15 18 0 0
BITMAP
0080
07C0
0EE0
0C60
1860
1866
306C
30CC
30CC
30CC
30D8
3198
3198
3318
3338
3638
F71C
FF18
ENDCHAR
STARTCHAR 1FFD
ENCODING 8189
SWIDTH 468 0
DWIDTH 13 0
BBX 5 4 8 14
BITMAP
10
38
70
C0
ENDCHAR
STARTCHAR 1FFE
ENCODING 8190
SWIDTH 468 0
DWIDTH 13 0
BBX 3 4 9 14
BITMAP
E0
E0
C0
40
ENDCHAR
STARTCHAR 2013
ENCODING 8211
SWIDTH 468 0
DWIDTH 13 0
BBX 10 2 3 7
BITMAP
FFC0
FFC0
ENDCHAR
STARTCHAR 2014
ENCODING 8212
SWIDTH 468 0
DWIDTH 13 0
BBX 14 2 1 7
BITMAP
FFFC
FFFC
ENDCHAR
STARTCHAR 2015
ENCODING 8213
SWIDTH 468 0
DWIDTH 13 0
BBX 14 1 1 7
BITMAP
FFFC
ENDCHAR
STARTCHAR 2018
ENCODING 8216
SWIDTH 468 0
DWIDTH 13 0
BBX 6 8 7 12
BITMAP
04
1C
38
60
70
F0
F0
70
ENDCHAR
STARTCHAR 2019
ENCODING 8217
SWIDTH 468 0
DWIDTH 13 0
BBX 6 8 7 12
BITMAP
18
38
7C
3C
18
38
F0
C0
ENDCHAR
STARTCHAR 201A
ENCODING 8218
SWIDTH 468 0
DWIDTH 13 0
BBX 6 8 3 -4
BITMAP
18
3C
3C
3C
18
38
F0
C0
ENDCHAR
STARTCHAR 201C
ENCODING 8220
SWIDTH 468 0
DWIDTH 13 0
BBX 12 7 4 12
BITMAP
1870
38E0
6180
E1C0
F1E0
F1E0
60C0
ENDCHAR
STARTCHAR 201D
ENCODING 8221
SWIDTH 468 0
DWIDTH 13 0
BBX 11 7 4 12
BITMAP
38E0
78E0
78E0
1860
30E0
E3C0
C100
ENDCHAR
STARTCHAR 201E
ENCODING 8222
SWIDTH 468 0
DWIDTH 13 0
BBX 11 7 1 -4
BITMAP
78E0
78E0
78E0
1860
30E0
E380
8000
ENDCHAR
STARTCHAR 2020
ENCODING 8224
SWIDTH 468 0
DWIDTH 13 0
BBX 10 21 4 -4
BITMAP
0600
0600
0600
0600
0C00
FFC0
FFC0
0C00
1800
1800
1800
1800
3000
3000
3000
3000
2000
6000
6000
4000
4000
ENDCHAR
STARTCHAR 2021
ENCODING 8225
SWIDTH 468 0
DWIDTH 13 0
BBX 12 21 2 -4
BITMAP
0180
0180
0180
0180
0300
3FF0
3FF0
0300
0600
0600
0600
0600
7FC0
FFC0
0C00
0C00
0800
1800
1800
1000
1000
ENDCHAR
STARTCHAR 2022
ENCODING 8226
SWIDTH 468 0
DWIDTH 13 0
BBX 7 8 5 4
BITMAP
38
FC
FE
FE
FE
FE
FC
78
ENDCHAR
STARTCHAR 2026
ENCODING 8230
SWIDTH 468 0
DWIDTH 13 0
BBX 12 3 1 0
BITMAP
4420
EE70
CE70
ENDCHAR
STARTCHAR 2030
ENCODING 8240
SWIDTH 468 0
DWIDTH 13 0
BBX 14 18 2 0
BITMAP
0800
1C00
2400
6404
6C1C
6C70
78C0
3380
0E00
3800
6000
DC70
16D0
3690
27B0
25B0
2DA0
39E0
ENDCHAR
STARTCHAR 2039
ENCODING 8249
SWIDTH 468 0
DWIDTH 13 0
BBX 7 10 5 3
BITMAP
0E
1C
38
70
E0
60
60
30
30
18
ENDCHAR
STARTCHAR 203A
ENCODING 8250
SWIDTH 468 0
DWIDTH 13 0
BBX 6 10 5 3
BITMAP
30
30
38
18
1C
1C
38
70
E0
C0
ENDCHAR
STARTCHAR 2044
ENCODING 8260
SWIDTH 468 0
DWIDTH 13 0
BBX 15 17 1 0
BITMAP
000E
000C
0018
0030
0070
0060
00C0
0180
0300
0700
0600
0C00
1800
3000
3000
6000
C000
ENDCHAR
STARTCHAR 2070
ENCODING 8304
SWIDTH 468 0
DWIDTH 13 0
BBX 8 10 5 8
BITMAP
04
1F
33
61
69
5B
C3
C2
66
7C
ENDCHAR
STARTCHAR 2074
ENCODING 8308
SWIDTH 468 0
DWIDTH 13 0
BBX 8 9 5 8
BITMAP
06
0E
16
26
46
FF
FE
0C
0C
ENDCHAR
STARTCHAR 2075
ENCODING 8309
SWIDTH 468 0
DWIDTH 13 0
BBX 8 9 5 8
BITMAP
1F
10
30
38
3E
06
06
86
FC
ENDCHAR
STARTCHAR 2076
ENCODING 8310
SWIDTH 468 0
DWIDTH 13 0
BBX 8 9 5 8
BITMAP
0F
1C
30
7C
7E
43
C2
66
7C
ENDCHAR
STARTCHAR 2077
ENCODING 8311
SWIDTH 468 0
DWIDTH 13 0
BBX 8 9 6 8
BITMAP
7F
06
0C
18
18
30
60
60
C0
ENDCHAR
STARTCHAR 2078
ENCODING 8312
SWIDTH 468 0
DWIDTH 13 0
BBX 8 10 6 8
BITMAP
08
3E
63
62
76
7C
C6
86
CC
FC
ENDCHAR
STARTCHAR 2079
ENCODING 8313
SWIDTH 468 0
DWIDTH 13 0
BBX 8 10 5 8
BITMAP
08
3E
63
63
63
7F
3E
06
3C
F0
ENDCHAR
STARTCHAR 2080
ENCODING 8320
SWIDTH 468 0
DWIDTH 13 0
BBX 8 10 4 0
BITMAP
1C
3E
63
63
DB
DB
C6
C6
EC
78
ENDCHAR
STARTCHAR 2081
ENCODING 8321
SWIDTH 468 0
DWIDTH 13 0
BBX 6 10 4 0
BITMAP
04
1C
7C
48
18
18
18
10
FC
FC
ENDCHAR
STARTCHAR 2082
ENCODING 8322
SWIDTH 468 0
DWIDTH 13 0
BBX 8 10 4 0
BITMAP
1C
7E
03
02
06
1C
30
60
FE
FE
ENDCHAR
STARTCHAR 2083
ENCODING 8323
SWIDTH 468 0
DWIDTH 13 0
BBX 7 10 4 0
BITMAP
1C
3E
02
06
1C
3E
06
06
CC
F8
ENDCHAR
STARTCHAR 2084
ENCODING 8324
SWIDTH 468 0
DWIDTH 13 0
BBX 8 10 3 0
BITMAP
03
07
0F
1A
32
66
FF
FF
04
0C
ENDCHAR
STARTCHAR 2085
ENCODING 8325
SWIDTH 468 0
DWIDTH 13 0
BBX 9 10 3 0
BITMAP
1F80
1F00
1000
3000
3C00
0E00
0600
0600
CE00
FC00
ENDCHAR
STARTCHAR 2086
ENCODING 8326
SWIDTH 468 0
DWIDTH 13 0
BBX 7 10 4 0
BITMAP
02
1E
70
60
FC
CC
86
84
CC
78
ENDCHAR
STARTCHAR 2087
ENCODING 8327
SWIDTH 468 0
DWIDTH 13 0
BBX 7 10 5 0
BITMAP
FE
FE
0C
18
30
30
60
40
C0
C0
ENDCHAR
STARTCHAR 2088
ENCODING 8328
SWIDTH 468 0
DWIDTH 13 0
BBX 8 10 4 0
BITMAP
1E
3F
63
63
3E
7E
C6
C6
CE
7C
ENDCHAR
STARTCHAR 2089
ENCODING 8329
SWIDTH 468 0
DWIDTH 13 0
BBX 8 10 4 0
BITMAP
1E
3F
63
63
63
7F
06
0E
F8
F0
ENDCHAR
STARTCHAR 20AC
ENCODING 8364
SWIDTH 468 0
DWIDTH 13 0
BBX 14 18 2 0
BITMAP
0010
01FC
03D8
0700
0E00
1C00
7FE0
7FE0
3800
3000
3000
FF80
3000
3000
3000
3800
1FE0
0FE0
ENDCHAR
STARTCHAR 20AE
ENCODING 8366
SWIDTH 468 0
DWIDTH 13 0
BBX 13 17 3 0
BITMAP
7FF8
7FF8
0300
0700
0620
07E0
0780
3E00
7E00
4C80
0FC0
1E00
7C00
D800
1800
1800
3800
ENDCHAR
STARTCHAR 20B4
ENCODING 8372
SWIDTH 468 0
DWIDTH 13 0
BBX 13 18 2 0
BITMAP
0100
0FE0
0EF0
0030
0030
0030
7FF8
7FF8
03C0
0F00
1C00
FFF0
7000
6000
E000
6000
7FC0
3FC0
ENDCHAR
STARTCHAR 20B9
ENCODING 8377
SWIDTH 468 0
DWIDTH 13 0
BBX 14 17 3 0
BITMAP
3FFC
3FF8
01C0
00C0
7FF0
7FE0
01C0
0380
FF00
FC00
E000
6000
3000
3800
1800
1C00
0C00
ENDCHAR
STARTCHAR 2113
ENCODING 8467
SWIDTH 468 0
DWIDTH 13 0
BBX 11 19 2 0
BITMAP
0780
0FC0
1CC0
1840
1840
18C0
18C0
18C0
1980
1980
1B00
1E00
1C00
3800
F800
5800
1C00
0FE0
0FC0
ENDCHAR
STARTCHAR 2116
ENCODING 8470
SWIDTH 468 0
DWIDTH 13 0
BBX 16 18 0 0
BITMAP
0002
0C67
0C6D
0CC9
1CC9
1CDB
1CDB
1D9A
159E
358C
3780
3700
373C
677C
6700
6600
6600
C600
ENDCHAR
STARTCHAR 2122
ENCODING 8482
SWIDTH 468 0
DWIDTH 13 0
BBX 13 7 3 10
BITMAP
F910
33B8
33B8
33F8
3358
3318
3318
ENDCHAR
STARTCHAR 2126
ENCODING 8486
SWIDTH 468 0
DWIDTH 13 0
BBX 15 18 0 0
BITMAP
0030
01FC
03FC
060E
0E0E
1C06
1806
180E
380E
380C
380C
381C
3818
3838
1830
1860
FCF8
FDF8
ENDCHAR
STARTCHAR 212E
ENCODING 8494
SWIDTH 468 0
DWIDTH 13 0
BBX 12 11 2 0
BITMAP
0F00
30C0
4020
C030
C030
C030
FFC0
C000
4000
4020
3FC0
ENDCHAR
STARTCHAR 2153
ENCODING 8531
SWIDTH 468 0
DWIDTH 13 0
BBX 15 17 1 0
BITMAP
060E
1E0C
1618
0430
0460
0CE0
0CC0
0180
0300
0700
06F0
0C98
1830
30F0
7030
6030
C1E0
ENDCHAR
STARTCHAR 2154
ENCODING 8532
SWIDTH 468 0
DWIDTH 13 0
BBX 15 17 1 1
BITMAP
3E06
060C
0618
1C30
3070
7C60
7CC0
0180
0300
0700
06F0
0C98
1830
38F0
3030
6030
C1E0
ENDCHAR
STARTCHAR 2155
ENCODING 8533
SWIDTH 468 0
DWIDTH 13 0
BBX 15 17 1 0
BITMAP
0606
1E0C
1618
0430
0470
0C60
0CC0
0180
0380
0300
0678
0C40
18C0
38F0
3010
6130
C1E0
ENDCHAR
STARTCHAR 2156
ENCODING 8534
SWIDTH 468 0
DWIDTH 13 0
BBX 15 17 1 1
BITMAP
3E06
060C
0618
1C30
3030
7C60
7CC0
0180
0380
0300
0678
0C40
18C0
18F0
3010
6130
C1E0
ENDCHAR
STARTCHAR 2157
ENCODING 8535
SWIDTH 468 0
DWIDTH 13 0
BBX 15 18 1 0
BITMAP
0C00
1E06
020C
1E18
1E30
0670
3E60
38C0
0180
0380
0300
0678
0C40
18C0
38F0
3010
6130
C1E0
ENDCHAR
STARTCHAR 2158
ENCODING 8536
SWIDTH 468 0
DWIDTH 13 0
BBX 15 17 1 0
BITMAP
0606
0E0C
1618
3618
7F30
0460
0CC0
01C0
0180
0300
0678
0C40
0CC0
18F0
3010
6130
E1E0
ENDCHAR
STARTCHAR 2159
ENCODING 8537
SWIDTH 468 0
DWIDTH 13 0
BBX 15 17 1 0
BITMAP
0606
1E0C
1618
0430
0470
0C60
0CC0
0180
0380
0300
0638
0C60
18A0
39F0
3190
6190
C0E0
ENDCHAR
STARTCHAR 215A
ENCODING 8538
SWIDTH 468 0
DWIDTH 13 0
BBX 15 17 1 0
BITMAP
0F06
180C
1C18
0618
0630
7E60
38C0
01C0
0180
0300
0638
0C60
0CA0
19F0
3190
6190
E0E0
ENDCHAR
STARTCHAR 215B
ENCODING 8539
SWIDTH 468 0
DWIDTH 13 0
BBX 15 17 1 0
BITMAP
060E
1E0C
1618
0430
0460
0CE0
0CC0
0180
0300
0700
0678
0CC8
18D8
30F0
7198
6190
C1F0
ENDCHAR
STARTCHAR 215C
ENCODING 8540
SWIDTH 468 0
DWIDTH 13 0
BBX 15 18 1 0
BITMAP
0C00
1E0E
020C
1E18
1E30
0660
3EE0
38C0
0180
0300
0700
0678
0CC8
18D8
30F0
7198
6190
C1F0
ENDCHAR
STARTCHAR 215D
ENCODING 8541
SWIDTH 468 0
DWIDTH 13 0
BBX 15 17 1 0
BITMAP
0F0E
180C
1C18
0630
0660
7EE0
38C0
0180
0300
0700
0678
0CC8
18D8
30F0
7198
6190
C1F0
ENDCHAR
STARTCHAR 215E
ENCODING 8542
SWIDTH 468 0
DWIDTH 13 0
BBX 15 17 1 0
BITMAP
0F8E
030C
0218
0430
0C60
08E0
18C0
0180
0300
0700
0678
0CC8
18D8
30F0
7198
6190
C1F0
ENDCHAR
STARTCHAR 2202
ENCODING 8706
SWIDTH 468 0
DWIDTH 13 0
BBX 13 19 2 0
BITMAP
0FC0
0FE0
0070
0030
0038
0038
0038
0FF8
3FF8
3830
7030
6030
E070
E060
C060
C0E0
E1C0
7F80
3F00
ENDCHAR
STARTCHAR 2206
ENCODING 8710
SWIDTH 468 0
DWIDTH 13 0
BBX 13 17 0 0
BITMAP
0070
00F0
01F0
01B0
0330
0330
0638
0638
0C38
1C18
1818
3818
3018
7018
6018
FFF8
FFF8
ENDCHAR
STARTCHAR 220F
ENCODING 8719
SWIDTH 468 0
DWIDTH 13 0
BBX 16 20 0 -3
BITMAP
07FF
07FE
0606
0E06
0C0E
0C0E
0C0C
1C0C
180C
181C
1818
3818
3018
3038
3030
7030
7030
6070
6060
E060
ENDCHAR
STARTCHAR 2211
ENCODING 8721
SWIDTH 468 0
DWIDTH 13 0
BBX 15 20 1 -3
BITMAP
07FE
0FFE
0600
0700
0300
0300
0180
0180
01C0
01C0
0180
0300
0700
0E00
1C00
3800
3000
6000
FFE0
FFC0
ENDCHAR
STARTCHAR 2212
ENCODING 8722
SWIDTH 468 0
DWIDTH 13 0
BBX 12 2 2 6
BITMAP
7FF0
FFF0
ENDCHAR
STARTCHAR 2215
ENCODING 8725
SWIDTH 468 0
DWIDTH 13 0
BBX 15 17 1 0
BITMAP
000E
000C
0018
0030
0070
0060
00C0
0180
0300
0700
0600
0C00
1800
3000
3000
6000
C000
ENDCHAR
STARTCHAR 2219
ENCODING 8729
SWIDTH 468 0
DWIDTH 13 0
BBX 4 4 6 6
BITMAP
70
F0
F0
F0
ENDCHAR
STARTCHAR 221A
ENCODING 8730
SWIDTH 468 0
DWIDTH 13 0
BBX 15 19 2 0
BITMAP
0006
000C
000C
0018
0018
0030
0030
0060
0060
10C0
F0C0
F180
3180
1B00
1B00
1E00
1E00
1C00
1C00
ENDCHAR
STARTCHAR 221E
ENCODING 8734
SWIDTH 468 0
DWIDTH 13 0
BBX 12 7 2 4
BITMAP
18E0
7DF0
4730
C630
C630
FF60
7BE0
ENDCHAR
STARTCHAR 222B
ENCODING 8747
SWIDTH 468 0
DWIDTH 13 0
BBX 14 24 1 -5
BITMAP
003C
007C
00E0
00C0
01C0
0180
0180
0180
0380
0380
0300
0300
0300
0700
0600
0600
0600
0E00
0C00
0C00
1C00
3800
F000
8000
ENDCHAR
STARTCHAR 2248
ENCODING 8776
SWIDTH 468 0
DWIDTH 13 0
BBX 14 9 1 3
BITMAP
0E0C
1F9C
31F8
20F0
0000
1800
3E30
67F0
C3E0
ENDCHAR
STARTCHAR 2260
ENCODING 8800
SWIDTH 468 0
DWIDTH 13 0
BBX 13 14 2 0
BITMAP
0070
0060
00C0
7FF8
7FF0
0300
0600
0600
FFE0
FFE0
1800
3000
6000
2000
ENDCHAR
STARTCHAR 2264
ENCODING 8804
SWIDTH 468 0
DWIDTH 13 0
BBX 14 14 1 0
BITMAP
000C
003C
01F0
07C0
1E00
3800
1E00
07C0
01F0
0070
0010
0000
FFE0
FFE0
ENDCHAR
STARTCHAR 2265
ENCODING 8805
SWIDTH 468 0
DWIDTH 13 0
BBX 14 14 1 0
BITMAP
0C00
1F00
07C0
00F0
003C
003C
01F8
07C0
3F00
3800
0000
0000
FFE0
FFE0
ENDCHAR
STARTCHAR 2500
ENCODING 9472
SWIDTH 468 0
DWIDTH 13 0
BBX 14 2 0 8
BITMAP
FFFC
FFFC
ENDCHAR
STARTCHAR 2502
ENCODING 9474
SWIDTH 468 0
DWIDTH 13 0
BBX 2 28 6 -5
BITMAP
C0
C0
C0
C0
C0
C0
C0
C0
C0
C0
C0
C0
C0
C0
C0
C0
C0
C0
C0
C0
C0
C0
C0
C0
C0
C0
C0
C0
ENDCHAR
STARTCHAR 250C
ENCODING 9484
SWIDTH 468 0
DWIDTH 13 0
BBX 8 15 6 -5
BITMAP
FF
FF
C0
C0
C0
C0
C0
C0
C0
C0
C0
C0
C0
C0
C0
ENDCHAR
STARTCHAR 2510
ENCODING 9488
SWIDTH 468 0
DWIDTH 13 0
BBX 8 15 0 -5
BITMAP
FF
FF
03
03
03
03
03
03
03
03
03
03
03
03
03
ENDCHAR
STARTCHAR 2514
ENCODING 9492
SWIDTH 468 0
DWIDTH 13 0
BBX 8 15 6 8
BITMAP
C0
C0
C0
C0
C0
C0
C0
C0
C0
C0
C0
C0
C0
FF
FF
ENDCHAR
STARTCHAR 2518
ENCODING 9496
SWIDTH 468 0
DWIDTH 13 0
BBX 8 15 0 8
BITMAP
03
03
03
03
03
03
03
03
03
03
03
03
03
FF
FF
ENDCHAR
STARTCHAR 251C
ENCODING 9500
SWIDTH 468 0
DWIDTH 13 0
BBX 8 28 6 -5
BITMAP
C0
C0
C0
C0
C0
C0
C0
C0
C0
C0
C0
C0
C0
FF
FF
C0
C0
C0
C0
C0
C0
C0
C0
C0
C0
C0
C0
C0
ENDCHAR
STARTCHAR 2524
ENCODING 9508
SWIDTH 468 0
DWIDTH 13 0
BBX 8 28 0 -5
BITMAP
03
03
03
03
03
03
03
03
03
03
03
03
03
FF
FF
03
03
03
03
03
03
03
03
03
03
03
03
03
ENDCHAR
STARTCHAR 252C
ENCODING 9516
SWIDTH 468 0
DWIDTH 13 0
BBX 14 15 0 -5
BITMAP
FFFC
FFFC
0300
0300
0300
0300
0300
0300
0300
0300
0300
0300
0300
0300
0300
ENDCHAR
STARTCHAR 2534
ENCODING 9524
SWIDTH 468 0
DWIDTH 13 0
BBX 14 15 0 8
BITMAP
0300
0300
0300
0300
0300
0300
0300
0300
0300
0300
0300
0300
0300
FFFC
FFFC
ENDCHAR
STARTCHAR 253C
ENCODING 9532
SWIDTH 468 0
DWIDTH 13 0
BBX 14 28 0 -5
BITMAP
0300
0300
0300
0300
0300
0300
0300
0300
0300
0300
0300
0300
0300
FFFC
FFFC
0300
0300
0300
0300
0300
0300
0300
0300
0300
0300
0300
0300
0300
ENDCHAR
STARTCHAR 2550
ENCODING 9552
SWIDTH 468 0
DWIDTH 13 0
BBX 14 7 0 6
BITMAP
FFFC
FFFC
FFFC
0000
0000
FFFC
FFFC
ENDCHAR
STARTCHAR 2551
ENCODING 9553
SWIDTH 468 0
DWIDTH 13 0
BBX 6 28 4 -5
BITMAP
CC
CC
CC
CC
CC
CC
CC
CC
CC
CC
CC
CC
CC
CC
CC
CC
CC
CC
CC
CC
CC
CC
CC
CC
CC
CC
CC
CC
ENDCHAR
STARTCHAR 2552
ENCODING 9554
SWIDTH 468 0
DWIDTH 13 0
BBX 8 18 6 -5
BITMAP
FF
FF
FF
00
00
FF
FF
C0
C0
C0
C0
C0
C0
C0
C0
C0
C0
C0
ENDCHAR
ENDFONT
